%TF.GenerationSoftware,KiCad,Pcbnew,9.0.6*%
%TF.CreationDate,2026-04-08T16:38:53+10:00*%
%TF.ProjectId,Linear_Acuator_Control,4c696e65-6172-45f4-9163-7561746f725f,rev?*%
%TF.SameCoordinates,Original*%
%TF.FileFunction,Legend,Top*%
%TF.FilePolarity,Positive*%
%FSLAX46Y46*%
G04 Gerber Fmt 4.6, Leading zero omitted, Abs format (unit mm)*
G04 Created by KiCad (PCBNEW 9.0.6) date 2026-04-08 16:38:53*
%MOMM*%
%LPD*%
G01*
G04 APERTURE LIST*
%ADD10C,0.100000*%
%ADD11C,0.150000*%
%ADD12C,0.000000*%
%ADD13C,0.120000*%
G04 APERTURE END LIST*
D10*
X86648496Y-102420038D02*
X86553258Y-102372419D01*
X86553258Y-102372419D02*
X86410401Y-102372419D01*
X86410401Y-102372419D02*
X86267544Y-102420038D01*
X86267544Y-102420038D02*
X86172306Y-102515276D01*
X86172306Y-102515276D02*
X86124687Y-102610514D01*
X86124687Y-102610514D02*
X86077068Y-102800990D01*
X86077068Y-102800990D02*
X86077068Y-102943847D01*
X86077068Y-102943847D02*
X86124687Y-103134323D01*
X86124687Y-103134323D02*
X86172306Y-103229561D01*
X86172306Y-103229561D02*
X86267544Y-103324800D01*
X86267544Y-103324800D02*
X86410401Y-103372419D01*
X86410401Y-103372419D02*
X86505639Y-103372419D01*
X86505639Y-103372419D02*
X86648496Y-103324800D01*
X86648496Y-103324800D02*
X86696115Y-103277180D01*
X86696115Y-103277180D02*
X86696115Y-102943847D01*
X86696115Y-102943847D02*
X86505639Y-102943847D01*
X87124687Y-103372419D02*
X87124687Y-102372419D01*
X87124687Y-102372419D02*
X87696115Y-103372419D01*
X87696115Y-103372419D02*
X87696115Y-102372419D01*
X88172306Y-103372419D02*
X88172306Y-102372419D01*
X88172306Y-102372419D02*
X88410401Y-102372419D01*
X88410401Y-102372419D02*
X88553258Y-102420038D01*
X88553258Y-102420038D02*
X88648496Y-102515276D01*
X88648496Y-102515276D02*
X88696115Y-102610514D01*
X88696115Y-102610514D02*
X88743734Y-102800990D01*
X88743734Y-102800990D02*
X88743734Y-102943847D01*
X88743734Y-102943847D02*
X88696115Y-103134323D01*
X88696115Y-103134323D02*
X88648496Y-103229561D01*
X88648496Y-103229561D02*
X88553258Y-103324800D01*
X88553258Y-103324800D02*
X88410401Y-103372419D01*
X88410401Y-103372419D02*
X88172306Y-103372419D01*
X78438095Y-44817419D02*
X78438095Y-45626942D01*
X78438095Y-45626942D02*
X78485714Y-45722180D01*
X78485714Y-45722180D02*
X78533333Y-45769800D01*
X78533333Y-45769800D02*
X78628571Y-45817419D01*
X78628571Y-45817419D02*
X78819047Y-45817419D01*
X78819047Y-45817419D02*
X78914285Y-45769800D01*
X78914285Y-45769800D02*
X78961904Y-45722180D01*
X78961904Y-45722180D02*
X79009523Y-45626942D01*
X79009523Y-45626942D02*
X79009523Y-44817419D01*
X80009523Y-45817419D02*
X79438095Y-45817419D01*
X79723809Y-45817419D02*
X79723809Y-44817419D01*
X79723809Y-44817419D02*
X79628571Y-44960276D01*
X79628571Y-44960276D02*
X79533333Y-45055514D01*
X79533333Y-45055514D02*
X79438095Y-45103133D01*
D11*
X117833333Y-38954819D02*
X117357143Y-38954819D01*
X117357143Y-38954819D02*
X117357143Y-37954819D01*
X118119048Y-38050057D02*
X118166667Y-38002438D01*
X118166667Y-38002438D02*
X118261905Y-37954819D01*
X118261905Y-37954819D02*
X118500000Y-37954819D01*
X118500000Y-37954819D02*
X118595238Y-38002438D01*
X118595238Y-38002438D02*
X118642857Y-38050057D01*
X118642857Y-38050057D02*
X118690476Y-38145295D01*
X118690476Y-38145295D02*
X118690476Y-38240533D01*
X118690476Y-38240533D02*
X118642857Y-38383390D01*
X118642857Y-38383390D02*
X118071429Y-38954819D01*
X118071429Y-38954819D02*
X118690476Y-38954819D01*
X112321427Y-57454819D02*
X111845237Y-57454819D01*
X111845237Y-57454819D02*
X111845237Y-56454819D01*
X112654761Y-57454819D02*
X112654761Y-56788152D01*
X112654761Y-56454819D02*
X112607142Y-56502438D01*
X112607142Y-56502438D02*
X112654761Y-56550057D01*
X112654761Y-56550057D02*
X112702380Y-56502438D01*
X112702380Y-56502438D02*
X112654761Y-56454819D01*
X112654761Y-56454819D02*
X112654761Y-56550057D01*
X113130951Y-56788152D02*
X113130951Y-57454819D01*
X113130951Y-56883390D02*
X113178570Y-56835771D01*
X113178570Y-56835771D02*
X113273808Y-56788152D01*
X113273808Y-56788152D02*
X113416665Y-56788152D01*
X113416665Y-56788152D02*
X113511903Y-56835771D01*
X113511903Y-56835771D02*
X113559522Y-56931009D01*
X113559522Y-56931009D02*
X113559522Y-57454819D01*
X114416665Y-57407200D02*
X114321427Y-57454819D01*
X114321427Y-57454819D02*
X114130951Y-57454819D01*
X114130951Y-57454819D02*
X114035713Y-57407200D01*
X114035713Y-57407200D02*
X113988094Y-57311961D01*
X113988094Y-57311961D02*
X113988094Y-56931009D01*
X113988094Y-56931009D02*
X114035713Y-56835771D01*
X114035713Y-56835771D02*
X114130951Y-56788152D01*
X114130951Y-56788152D02*
X114321427Y-56788152D01*
X114321427Y-56788152D02*
X114416665Y-56835771D01*
X114416665Y-56835771D02*
X114464284Y-56931009D01*
X114464284Y-56931009D02*
X114464284Y-57026247D01*
X114464284Y-57026247D02*
X113988094Y-57121485D01*
X115321427Y-57454819D02*
X115321427Y-56931009D01*
X115321427Y-56931009D02*
X115273808Y-56835771D01*
X115273808Y-56835771D02*
X115178570Y-56788152D01*
X115178570Y-56788152D02*
X114988094Y-56788152D01*
X114988094Y-56788152D02*
X114892856Y-56835771D01*
X115321427Y-57407200D02*
X115226189Y-57454819D01*
X115226189Y-57454819D02*
X114988094Y-57454819D01*
X114988094Y-57454819D02*
X114892856Y-57407200D01*
X114892856Y-57407200D02*
X114845237Y-57311961D01*
X114845237Y-57311961D02*
X114845237Y-57216723D01*
X114845237Y-57216723D02*
X114892856Y-57121485D01*
X114892856Y-57121485D02*
X114988094Y-57073866D01*
X114988094Y-57073866D02*
X115226189Y-57073866D01*
X115226189Y-57073866D02*
X115321427Y-57026247D01*
X115797618Y-57454819D02*
X115797618Y-56788152D01*
X115797618Y-56978628D02*
X115845237Y-56883390D01*
X115845237Y-56883390D02*
X115892856Y-56835771D01*
X115892856Y-56835771D02*
X115988094Y-56788152D01*
X115988094Y-56788152D02*
X116083332Y-56788152D01*
X117607142Y-57454819D02*
X117607142Y-56931009D01*
X117607142Y-56931009D02*
X117559523Y-56835771D01*
X117559523Y-56835771D02*
X117464285Y-56788152D01*
X117464285Y-56788152D02*
X117273809Y-56788152D01*
X117273809Y-56788152D02*
X117178571Y-56835771D01*
X117607142Y-57407200D02*
X117511904Y-57454819D01*
X117511904Y-57454819D02*
X117273809Y-57454819D01*
X117273809Y-57454819D02*
X117178571Y-57407200D01*
X117178571Y-57407200D02*
X117130952Y-57311961D01*
X117130952Y-57311961D02*
X117130952Y-57216723D01*
X117130952Y-57216723D02*
X117178571Y-57121485D01*
X117178571Y-57121485D02*
X117273809Y-57073866D01*
X117273809Y-57073866D02*
X117511904Y-57073866D01*
X117511904Y-57073866D02*
X117607142Y-57026247D01*
X118511904Y-57407200D02*
X118416666Y-57454819D01*
X118416666Y-57454819D02*
X118226190Y-57454819D01*
X118226190Y-57454819D02*
X118130952Y-57407200D01*
X118130952Y-57407200D02*
X118083333Y-57359580D01*
X118083333Y-57359580D02*
X118035714Y-57264342D01*
X118035714Y-57264342D02*
X118035714Y-56978628D01*
X118035714Y-56978628D02*
X118083333Y-56883390D01*
X118083333Y-56883390D02*
X118130952Y-56835771D01*
X118130952Y-56835771D02*
X118226190Y-56788152D01*
X118226190Y-56788152D02*
X118416666Y-56788152D01*
X118416666Y-56788152D02*
X118511904Y-56835771D01*
X118797619Y-56788152D02*
X119178571Y-56788152D01*
X118940476Y-56454819D02*
X118940476Y-57311961D01*
X118940476Y-57311961D02*
X118988095Y-57407200D01*
X118988095Y-57407200D02*
X119083333Y-57454819D01*
X119083333Y-57454819D02*
X119178571Y-57454819D01*
X119940476Y-56788152D02*
X119940476Y-57454819D01*
X119511905Y-56788152D02*
X119511905Y-57311961D01*
X119511905Y-57311961D02*
X119559524Y-57407200D01*
X119559524Y-57407200D02*
X119654762Y-57454819D01*
X119654762Y-57454819D02*
X119797619Y-57454819D01*
X119797619Y-57454819D02*
X119892857Y-57407200D01*
X119892857Y-57407200D02*
X119940476Y-57359580D01*
X120845238Y-57454819D02*
X120845238Y-56931009D01*
X120845238Y-56931009D02*
X120797619Y-56835771D01*
X120797619Y-56835771D02*
X120702381Y-56788152D01*
X120702381Y-56788152D02*
X120511905Y-56788152D01*
X120511905Y-56788152D02*
X120416667Y-56835771D01*
X120845238Y-57407200D02*
X120750000Y-57454819D01*
X120750000Y-57454819D02*
X120511905Y-57454819D01*
X120511905Y-57454819D02*
X120416667Y-57407200D01*
X120416667Y-57407200D02*
X120369048Y-57311961D01*
X120369048Y-57311961D02*
X120369048Y-57216723D01*
X120369048Y-57216723D02*
X120416667Y-57121485D01*
X120416667Y-57121485D02*
X120511905Y-57073866D01*
X120511905Y-57073866D02*
X120750000Y-57073866D01*
X120750000Y-57073866D02*
X120845238Y-57026247D01*
X121178572Y-56788152D02*
X121559524Y-56788152D01*
X121321429Y-56454819D02*
X121321429Y-57311961D01*
X121321429Y-57311961D02*
X121369048Y-57407200D01*
X121369048Y-57407200D02*
X121464286Y-57454819D01*
X121464286Y-57454819D02*
X121559524Y-57454819D01*
X122035715Y-57454819D02*
X121940477Y-57407200D01*
X121940477Y-57407200D02*
X121892858Y-57359580D01*
X121892858Y-57359580D02*
X121845239Y-57264342D01*
X121845239Y-57264342D02*
X121845239Y-56978628D01*
X121845239Y-56978628D02*
X121892858Y-56883390D01*
X121892858Y-56883390D02*
X121940477Y-56835771D01*
X121940477Y-56835771D02*
X122035715Y-56788152D01*
X122035715Y-56788152D02*
X122178572Y-56788152D01*
X122178572Y-56788152D02*
X122273810Y-56835771D01*
X122273810Y-56835771D02*
X122321429Y-56883390D01*
X122321429Y-56883390D02*
X122369048Y-56978628D01*
X122369048Y-56978628D02*
X122369048Y-57264342D01*
X122369048Y-57264342D02*
X122321429Y-57359580D01*
X122321429Y-57359580D02*
X122273810Y-57407200D01*
X122273810Y-57407200D02*
X122178572Y-57454819D01*
X122178572Y-57454819D02*
X122035715Y-57454819D01*
X122797620Y-57454819D02*
X122797620Y-56788152D01*
X122797620Y-56978628D02*
X122845239Y-56883390D01*
X122845239Y-56883390D02*
X122892858Y-56835771D01*
X122892858Y-56835771D02*
X122988096Y-56788152D01*
X122988096Y-56788152D02*
X123083334Y-56788152D01*
X124130954Y-56550057D02*
X124178573Y-56502438D01*
X124178573Y-56502438D02*
X124273811Y-56454819D01*
X124273811Y-56454819D02*
X124511906Y-56454819D01*
X124511906Y-56454819D02*
X124607144Y-56502438D01*
X124607144Y-56502438D02*
X124654763Y-56550057D01*
X124654763Y-56550057D02*
X124702382Y-56645295D01*
X124702382Y-56645295D02*
X124702382Y-56740533D01*
X124702382Y-56740533D02*
X124654763Y-56883390D01*
X124654763Y-56883390D02*
X124083335Y-57454819D01*
X124083335Y-57454819D02*
X124702382Y-57454819D01*
X111128571Y-56614700D02*
X112271429Y-56614700D01*
X123428571Y-56614700D02*
X124571429Y-56614700D01*
X124000000Y-57186128D02*
X124000000Y-56043271D01*
X76804408Y-76034915D02*
X76756789Y-76130153D01*
X76756789Y-76130153D02*
X76661551Y-76225391D01*
X76661551Y-76225391D02*
X76518693Y-76368248D01*
X76518693Y-76368248D02*
X76471074Y-76463486D01*
X76471074Y-76463486D02*
X76471074Y-76558724D01*
X76709170Y-76511105D02*
X76661551Y-76606343D01*
X76661551Y-76606343D02*
X76566312Y-76701581D01*
X76566312Y-76701581D02*
X76375836Y-76749200D01*
X76375836Y-76749200D02*
X76042503Y-76749200D01*
X76042503Y-76749200D02*
X75852027Y-76701581D01*
X75852027Y-76701581D02*
X75756789Y-76606343D01*
X75756789Y-76606343D02*
X75709170Y-76511105D01*
X75709170Y-76511105D02*
X75709170Y-76320629D01*
X75709170Y-76320629D02*
X75756789Y-76225391D01*
X75756789Y-76225391D02*
X75852027Y-76130153D01*
X75852027Y-76130153D02*
X76042503Y-76082534D01*
X76042503Y-76082534D02*
X76375836Y-76082534D01*
X76375836Y-76082534D02*
X76566312Y-76130153D01*
X76566312Y-76130153D02*
X76661551Y-76225391D01*
X76661551Y-76225391D02*
X76709170Y-76320629D01*
X76709170Y-76320629D02*
X76709170Y-76511105D01*
X75709170Y-75177772D02*
X75709170Y-75653962D01*
X75709170Y-75653962D02*
X76185360Y-75701581D01*
X76185360Y-75701581D02*
X76137741Y-75653962D01*
X76137741Y-75653962D02*
X76090122Y-75558724D01*
X76090122Y-75558724D02*
X76090122Y-75320629D01*
X76090122Y-75320629D02*
X76137741Y-75225391D01*
X76137741Y-75225391D02*
X76185360Y-75177772D01*
X76185360Y-75177772D02*
X76280598Y-75130153D01*
X76280598Y-75130153D02*
X76518693Y-75130153D01*
X76518693Y-75130153D02*
X76613931Y-75177772D01*
X76613931Y-75177772D02*
X76661551Y-75225391D01*
X76661551Y-75225391D02*
X76709170Y-75320629D01*
X76709170Y-75320629D02*
X76709170Y-75558724D01*
X76709170Y-75558724D02*
X76661551Y-75653962D01*
X76661551Y-75653962D02*
X76613931Y-75701581D01*
X82387684Y-90834496D02*
X82054351Y-90358305D01*
X81816256Y-90834496D02*
X81816256Y-89834496D01*
X81816256Y-89834496D02*
X82197208Y-89834496D01*
X82197208Y-89834496D02*
X82292446Y-89882115D01*
X82292446Y-89882115D02*
X82340065Y-89929734D01*
X82340065Y-89929734D02*
X82387684Y-90024972D01*
X82387684Y-90024972D02*
X82387684Y-90167829D01*
X82387684Y-90167829D02*
X82340065Y-90263067D01*
X82340065Y-90263067D02*
X82292446Y-90310686D01*
X82292446Y-90310686D02*
X82197208Y-90358305D01*
X82197208Y-90358305D02*
X81816256Y-90358305D01*
X82721018Y-89834496D02*
X83340065Y-89834496D01*
X83340065Y-89834496D02*
X83006732Y-90215448D01*
X83006732Y-90215448D02*
X83149589Y-90215448D01*
X83149589Y-90215448D02*
X83244827Y-90263067D01*
X83244827Y-90263067D02*
X83292446Y-90310686D01*
X83292446Y-90310686D02*
X83340065Y-90405924D01*
X83340065Y-90405924D02*
X83340065Y-90644019D01*
X83340065Y-90644019D02*
X83292446Y-90739257D01*
X83292446Y-90739257D02*
X83244827Y-90786877D01*
X83244827Y-90786877D02*
X83149589Y-90834496D01*
X83149589Y-90834496D02*
X82863875Y-90834496D01*
X82863875Y-90834496D02*
X82768637Y-90786877D01*
X82768637Y-90786877D02*
X82721018Y-90739257D01*
X82387684Y-87714496D02*
X82054351Y-87238305D01*
X81816256Y-87714496D02*
X81816256Y-86714496D01*
X81816256Y-86714496D02*
X82197208Y-86714496D01*
X82197208Y-86714496D02*
X82292446Y-86762115D01*
X82292446Y-86762115D02*
X82340065Y-86809734D01*
X82340065Y-86809734D02*
X82387684Y-86904972D01*
X82387684Y-86904972D02*
X82387684Y-87047829D01*
X82387684Y-87047829D02*
X82340065Y-87143067D01*
X82340065Y-87143067D02*
X82292446Y-87190686D01*
X82292446Y-87190686D02*
X82197208Y-87238305D01*
X82197208Y-87238305D02*
X81816256Y-87238305D01*
X83244827Y-87047829D02*
X83244827Y-87714496D01*
X83006732Y-86666877D02*
X82768637Y-87381162D01*
X82768637Y-87381162D02*
X83387684Y-87381162D01*
X82387684Y-84484496D02*
X82054351Y-84008305D01*
X81816256Y-84484496D02*
X81816256Y-83484496D01*
X81816256Y-83484496D02*
X82197208Y-83484496D01*
X82197208Y-83484496D02*
X82292446Y-83532115D01*
X82292446Y-83532115D02*
X82340065Y-83579734D01*
X82340065Y-83579734D02*
X82387684Y-83674972D01*
X82387684Y-83674972D02*
X82387684Y-83817829D01*
X82387684Y-83817829D02*
X82340065Y-83913067D01*
X82340065Y-83913067D02*
X82292446Y-83960686D01*
X82292446Y-83960686D02*
X82197208Y-84008305D01*
X82197208Y-84008305D02*
X81816256Y-84008305D01*
X82768637Y-83579734D02*
X82816256Y-83532115D01*
X82816256Y-83532115D02*
X82911494Y-83484496D01*
X82911494Y-83484496D02*
X83149589Y-83484496D01*
X83149589Y-83484496D02*
X83244827Y-83532115D01*
X83244827Y-83532115D02*
X83292446Y-83579734D01*
X83292446Y-83579734D02*
X83340065Y-83674972D01*
X83340065Y-83674972D02*
X83340065Y-83770210D01*
X83340065Y-83770210D02*
X83292446Y-83913067D01*
X83292446Y-83913067D02*
X82721018Y-84484496D01*
X82721018Y-84484496D02*
X83340065Y-84484496D01*
X82387684Y-81264496D02*
X82054351Y-80788305D01*
X81816256Y-81264496D02*
X81816256Y-80264496D01*
X81816256Y-80264496D02*
X82197208Y-80264496D01*
X82197208Y-80264496D02*
X82292446Y-80312115D01*
X82292446Y-80312115D02*
X82340065Y-80359734D01*
X82340065Y-80359734D02*
X82387684Y-80454972D01*
X82387684Y-80454972D02*
X82387684Y-80597829D01*
X82387684Y-80597829D02*
X82340065Y-80693067D01*
X82340065Y-80693067D02*
X82292446Y-80740686D01*
X82292446Y-80740686D02*
X82197208Y-80788305D01*
X82197208Y-80788305D02*
X81816256Y-80788305D01*
X83340065Y-81264496D02*
X82768637Y-81264496D01*
X83054351Y-81264496D02*
X83054351Y-80264496D01*
X83054351Y-80264496D02*
X82959113Y-80407353D01*
X82959113Y-80407353D02*
X82863875Y-80502591D01*
X82863875Y-80502591D02*
X82768637Y-80550210D01*
X71374408Y-76074915D02*
X71326789Y-76170153D01*
X71326789Y-76170153D02*
X71231551Y-76265391D01*
X71231551Y-76265391D02*
X71088693Y-76408248D01*
X71088693Y-76408248D02*
X71041074Y-76503486D01*
X71041074Y-76503486D02*
X71041074Y-76598724D01*
X71279170Y-76551105D02*
X71231551Y-76646343D01*
X71231551Y-76646343D02*
X71136312Y-76741581D01*
X71136312Y-76741581D02*
X70945836Y-76789200D01*
X70945836Y-76789200D02*
X70612503Y-76789200D01*
X70612503Y-76789200D02*
X70422027Y-76741581D01*
X70422027Y-76741581D02*
X70326789Y-76646343D01*
X70326789Y-76646343D02*
X70279170Y-76551105D01*
X70279170Y-76551105D02*
X70279170Y-76360629D01*
X70279170Y-76360629D02*
X70326789Y-76265391D01*
X70326789Y-76265391D02*
X70422027Y-76170153D01*
X70422027Y-76170153D02*
X70612503Y-76122534D01*
X70612503Y-76122534D02*
X70945836Y-76122534D01*
X70945836Y-76122534D02*
X71136312Y-76170153D01*
X71136312Y-76170153D02*
X71231551Y-76265391D01*
X71231551Y-76265391D02*
X71279170Y-76360629D01*
X71279170Y-76360629D02*
X71279170Y-76551105D01*
X70279170Y-75789200D02*
X70279170Y-75170153D01*
X70279170Y-75170153D02*
X70660122Y-75503486D01*
X70660122Y-75503486D02*
X70660122Y-75360629D01*
X70660122Y-75360629D02*
X70707741Y-75265391D01*
X70707741Y-75265391D02*
X70755360Y-75217772D01*
X70755360Y-75217772D02*
X70850598Y-75170153D01*
X70850598Y-75170153D02*
X71088693Y-75170153D01*
X71088693Y-75170153D02*
X71183931Y-75217772D01*
X71183931Y-75217772D02*
X71231551Y-75265391D01*
X71231551Y-75265391D02*
X71279170Y-75360629D01*
X71279170Y-75360629D02*
X71279170Y-75646343D01*
X71279170Y-75646343D02*
X71231551Y-75741581D01*
X71231551Y-75741581D02*
X71183931Y-75789200D01*
X132954819Y-58166666D02*
X132478628Y-58499999D01*
X132954819Y-58738094D02*
X131954819Y-58738094D01*
X131954819Y-58738094D02*
X131954819Y-58357142D01*
X131954819Y-58357142D02*
X132002438Y-58261904D01*
X132002438Y-58261904D02*
X132050057Y-58214285D01*
X132050057Y-58214285D02*
X132145295Y-58166666D01*
X132145295Y-58166666D02*
X132288152Y-58166666D01*
X132288152Y-58166666D02*
X132383390Y-58214285D01*
X132383390Y-58214285D02*
X132431009Y-58261904D01*
X132431009Y-58261904D02*
X132478628Y-58357142D01*
X132478628Y-58357142D02*
X132478628Y-58738094D01*
X131954819Y-57309523D02*
X131954819Y-57499999D01*
X131954819Y-57499999D02*
X132002438Y-57595237D01*
X132002438Y-57595237D02*
X132050057Y-57642856D01*
X132050057Y-57642856D02*
X132192914Y-57738094D01*
X132192914Y-57738094D02*
X132383390Y-57785713D01*
X132383390Y-57785713D02*
X132764342Y-57785713D01*
X132764342Y-57785713D02*
X132859580Y-57738094D01*
X132859580Y-57738094D02*
X132907200Y-57690475D01*
X132907200Y-57690475D02*
X132954819Y-57595237D01*
X132954819Y-57595237D02*
X132954819Y-57404761D01*
X132954819Y-57404761D02*
X132907200Y-57309523D01*
X132907200Y-57309523D02*
X132859580Y-57261904D01*
X132859580Y-57261904D02*
X132764342Y-57214285D01*
X132764342Y-57214285D02*
X132526247Y-57214285D01*
X132526247Y-57214285D02*
X132431009Y-57261904D01*
X132431009Y-57261904D02*
X132383390Y-57309523D01*
X132383390Y-57309523D02*
X132335771Y-57404761D01*
X132335771Y-57404761D02*
X132335771Y-57595237D01*
X132335771Y-57595237D02*
X132383390Y-57690475D01*
X132383390Y-57690475D02*
X132431009Y-57738094D01*
X132431009Y-57738094D02*
X132526247Y-57785713D01*
X94584819Y-75336666D02*
X94108628Y-75669999D01*
X94584819Y-75908094D02*
X93584819Y-75908094D01*
X93584819Y-75908094D02*
X93584819Y-75527142D01*
X93584819Y-75527142D02*
X93632438Y-75431904D01*
X93632438Y-75431904D02*
X93680057Y-75384285D01*
X93680057Y-75384285D02*
X93775295Y-75336666D01*
X93775295Y-75336666D02*
X93918152Y-75336666D01*
X93918152Y-75336666D02*
X94013390Y-75384285D01*
X94013390Y-75384285D02*
X94061009Y-75431904D01*
X94061009Y-75431904D02*
X94108628Y-75527142D01*
X94108628Y-75527142D02*
X94108628Y-75908094D01*
X93584819Y-74431904D02*
X93584819Y-74908094D01*
X93584819Y-74908094D02*
X94061009Y-74955713D01*
X94061009Y-74955713D02*
X94013390Y-74908094D01*
X94013390Y-74908094D02*
X93965771Y-74812856D01*
X93965771Y-74812856D02*
X93965771Y-74574761D01*
X93965771Y-74574761D02*
X94013390Y-74479523D01*
X94013390Y-74479523D02*
X94061009Y-74431904D01*
X94061009Y-74431904D02*
X94156247Y-74384285D01*
X94156247Y-74384285D02*
X94394342Y-74384285D01*
X94394342Y-74384285D02*
X94489580Y-74431904D01*
X94489580Y-74431904D02*
X94537200Y-74479523D01*
X94537200Y-74479523D02*
X94584819Y-74574761D01*
X94584819Y-74574761D02*
X94584819Y-74812856D01*
X94584819Y-74812856D02*
X94537200Y-74908094D01*
X94537200Y-74908094D02*
X94489580Y-74955713D01*
X117561905Y-91504819D02*
X117561905Y-90504819D01*
X117561905Y-90504819D02*
X117800000Y-90504819D01*
X117800000Y-90504819D02*
X117942857Y-90552438D01*
X117942857Y-90552438D02*
X118038095Y-90647676D01*
X118038095Y-90647676D02*
X118085714Y-90742914D01*
X118085714Y-90742914D02*
X118133333Y-90933390D01*
X118133333Y-90933390D02*
X118133333Y-91076247D01*
X118133333Y-91076247D02*
X118085714Y-91266723D01*
X118085714Y-91266723D02*
X118038095Y-91361961D01*
X118038095Y-91361961D02*
X117942857Y-91457200D01*
X117942857Y-91457200D02*
X117800000Y-91504819D01*
X117800000Y-91504819D02*
X117561905Y-91504819D01*
X118990476Y-90838152D02*
X118990476Y-91504819D01*
X118752381Y-90457200D02*
X118514286Y-91171485D01*
X118514286Y-91171485D02*
X119133333Y-91171485D01*
X132654819Y-90538094D02*
X131654819Y-90538094D01*
X131654819Y-90538094D02*
X131654819Y-90299999D01*
X131654819Y-90299999D02*
X131702438Y-90157142D01*
X131702438Y-90157142D02*
X131797676Y-90061904D01*
X131797676Y-90061904D02*
X131892914Y-90014285D01*
X131892914Y-90014285D02*
X132083390Y-89966666D01*
X132083390Y-89966666D02*
X132226247Y-89966666D01*
X132226247Y-89966666D02*
X132416723Y-90014285D01*
X132416723Y-90014285D02*
X132511961Y-90061904D01*
X132511961Y-90061904D02*
X132607200Y-90157142D01*
X132607200Y-90157142D02*
X132654819Y-90299999D01*
X132654819Y-90299999D02*
X132654819Y-90538094D01*
X131654819Y-89633332D02*
X131654819Y-89014285D01*
X131654819Y-89014285D02*
X132035771Y-89347618D01*
X132035771Y-89347618D02*
X132035771Y-89204761D01*
X132035771Y-89204761D02*
X132083390Y-89109523D01*
X132083390Y-89109523D02*
X132131009Y-89061904D01*
X132131009Y-89061904D02*
X132226247Y-89014285D01*
X132226247Y-89014285D02*
X132464342Y-89014285D01*
X132464342Y-89014285D02*
X132559580Y-89061904D01*
X132559580Y-89061904D02*
X132607200Y-89109523D01*
X132607200Y-89109523D02*
X132654819Y-89204761D01*
X132654819Y-89204761D02*
X132654819Y-89490475D01*
X132654819Y-89490475D02*
X132607200Y-89585713D01*
X132607200Y-89585713D02*
X132559580Y-89633332D01*
X110954819Y-73078094D02*
X109954819Y-73078094D01*
X110954819Y-72506666D02*
X110383390Y-72935237D01*
X109954819Y-72506666D02*
X110526247Y-73078094D01*
X110954819Y-71554285D02*
X110954819Y-72125713D01*
X110954819Y-71839999D02*
X109954819Y-71839999D01*
X109954819Y-71839999D02*
X110097676Y-71935237D01*
X110097676Y-71935237D02*
X110192914Y-72030475D01*
X110192914Y-72030475D02*
X110240533Y-72125713D01*
X122801905Y-93004819D02*
X122801905Y-92004819D01*
X122801905Y-92004819D02*
X123040000Y-92004819D01*
X123040000Y-92004819D02*
X123182857Y-92052438D01*
X123182857Y-92052438D02*
X123278095Y-92147676D01*
X123278095Y-92147676D02*
X123325714Y-92242914D01*
X123325714Y-92242914D02*
X123373333Y-92433390D01*
X123373333Y-92433390D02*
X123373333Y-92576247D01*
X123373333Y-92576247D02*
X123325714Y-92766723D01*
X123325714Y-92766723D02*
X123278095Y-92861961D01*
X123278095Y-92861961D02*
X123182857Y-92957200D01*
X123182857Y-92957200D02*
X123040000Y-93004819D01*
X123040000Y-93004819D02*
X122801905Y-93004819D01*
X123754286Y-92100057D02*
X123801905Y-92052438D01*
X123801905Y-92052438D02*
X123897143Y-92004819D01*
X123897143Y-92004819D02*
X124135238Y-92004819D01*
X124135238Y-92004819D02*
X124230476Y-92052438D01*
X124230476Y-92052438D02*
X124278095Y-92100057D01*
X124278095Y-92100057D02*
X124325714Y-92195295D01*
X124325714Y-92195295D02*
X124325714Y-92290533D01*
X124325714Y-92290533D02*
X124278095Y-92433390D01*
X124278095Y-92433390D02*
X123706667Y-93004819D01*
X123706667Y-93004819D02*
X124325714Y-93004819D01*
X130550057Y-65595238D02*
X130502438Y-65690476D01*
X130502438Y-65690476D02*
X130407200Y-65785714D01*
X130407200Y-65785714D02*
X130264342Y-65928571D01*
X130264342Y-65928571D02*
X130216723Y-66023809D01*
X130216723Y-66023809D02*
X130216723Y-66119047D01*
X130454819Y-66071428D02*
X130407200Y-66166666D01*
X130407200Y-66166666D02*
X130311961Y-66261904D01*
X130311961Y-66261904D02*
X130121485Y-66309523D01*
X130121485Y-66309523D02*
X129788152Y-66309523D01*
X129788152Y-66309523D02*
X129597676Y-66261904D01*
X129597676Y-66261904D02*
X129502438Y-66166666D01*
X129502438Y-66166666D02*
X129454819Y-66071428D01*
X129454819Y-66071428D02*
X129454819Y-65880952D01*
X129454819Y-65880952D02*
X129502438Y-65785714D01*
X129502438Y-65785714D02*
X129597676Y-65690476D01*
X129597676Y-65690476D02*
X129788152Y-65642857D01*
X129788152Y-65642857D02*
X130121485Y-65642857D01*
X130121485Y-65642857D02*
X130311961Y-65690476D01*
X130311961Y-65690476D02*
X130407200Y-65785714D01*
X130407200Y-65785714D02*
X130454819Y-65880952D01*
X130454819Y-65880952D02*
X130454819Y-66071428D01*
X130454819Y-64690476D02*
X130454819Y-65261904D01*
X130454819Y-64976190D02*
X129454819Y-64976190D01*
X129454819Y-64976190D02*
X129597676Y-65071428D01*
X129597676Y-65071428D02*
X129692914Y-65166666D01*
X129692914Y-65166666D02*
X129740533Y-65261904D01*
X104550057Y-65095238D02*
X104502438Y-65190476D01*
X104502438Y-65190476D02*
X104407200Y-65285714D01*
X104407200Y-65285714D02*
X104264342Y-65428571D01*
X104264342Y-65428571D02*
X104216723Y-65523809D01*
X104216723Y-65523809D02*
X104216723Y-65619047D01*
X104454819Y-65571428D02*
X104407200Y-65666666D01*
X104407200Y-65666666D02*
X104311961Y-65761904D01*
X104311961Y-65761904D02*
X104121485Y-65809523D01*
X104121485Y-65809523D02*
X103788152Y-65809523D01*
X103788152Y-65809523D02*
X103597676Y-65761904D01*
X103597676Y-65761904D02*
X103502438Y-65666666D01*
X103502438Y-65666666D02*
X103454819Y-65571428D01*
X103454819Y-65571428D02*
X103454819Y-65380952D01*
X103454819Y-65380952D02*
X103502438Y-65285714D01*
X103502438Y-65285714D02*
X103597676Y-65190476D01*
X103597676Y-65190476D02*
X103788152Y-65142857D01*
X103788152Y-65142857D02*
X104121485Y-65142857D01*
X104121485Y-65142857D02*
X104311961Y-65190476D01*
X104311961Y-65190476D02*
X104407200Y-65285714D01*
X104407200Y-65285714D02*
X104454819Y-65380952D01*
X104454819Y-65380952D02*
X104454819Y-65571428D01*
X103550057Y-64761904D02*
X103502438Y-64714285D01*
X103502438Y-64714285D02*
X103454819Y-64619047D01*
X103454819Y-64619047D02*
X103454819Y-64380952D01*
X103454819Y-64380952D02*
X103502438Y-64285714D01*
X103502438Y-64285714D02*
X103550057Y-64238095D01*
X103550057Y-64238095D02*
X103645295Y-64190476D01*
X103645295Y-64190476D02*
X103740533Y-64190476D01*
X103740533Y-64190476D02*
X103883390Y-64238095D01*
X103883390Y-64238095D02*
X104454819Y-64809523D01*
X104454819Y-64809523D02*
X104454819Y-64190476D01*
X142833333Y-39454819D02*
X142357143Y-39454819D01*
X142357143Y-39454819D02*
X142357143Y-38454819D01*
X143690476Y-39454819D02*
X143119048Y-39454819D01*
X143404762Y-39454819D02*
X143404762Y-38454819D01*
X143404762Y-38454819D02*
X143309524Y-38597676D01*
X143309524Y-38597676D02*
X143214286Y-38692914D01*
X143214286Y-38692914D02*
X143119048Y-38740533D01*
X136071427Y-57704819D02*
X135595237Y-57704819D01*
X135595237Y-57704819D02*
X135595237Y-56704819D01*
X136404761Y-57704819D02*
X136404761Y-57038152D01*
X136404761Y-56704819D02*
X136357142Y-56752438D01*
X136357142Y-56752438D02*
X136404761Y-56800057D01*
X136404761Y-56800057D02*
X136452380Y-56752438D01*
X136452380Y-56752438D02*
X136404761Y-56704819D01*
X136404761Y-56704819D02*
X136404761Y-56800057D01*
X136880951Y-57038152D02*
X136880951Y-57704819D01*
X136880951Y-57133390D02*
X136928570Y-57085771D01*
X136928570Y-57085771D02*
X137023808Y-57038152D01*
X137023808Y-57038152D02*
X137166665Y-57038152D01*
X137166665Y-57038152D02*
X137261903Y-57085771D01*
X137261903Y-57085771D02*
X137309522Y-57181009D01*
X137309522Y-57181009D02*
X137309522Y-57704819D01*
X138166665Y-57657200D02*
X138071427Y-57704819D01*
X138071427Y-57704819D02*
X137880951Y-57704819D01*
X137880951Y-57704819D02*
X137785713Y-57657200D01*
X137785713Y-57657200D02*
X137738094Y-57561961D01*
X137738094Y-57561961D02*
X137738094Y-57181009D01*
X137738094Y-57181009D02*
X137785713Y-57085771D01*
X137785713Y-57085771D02*
X137880951Y-57038152D01*
X137880951Y-57038152D02*
X138071427Y-57038152D01*
X138071427Y-57038152D02*
X138166665Y-57085771D01*
X138166665Y-57085771D02*
X138214284Y-57181009D01*
X138214284Y-57181009D02*
X138214284Y-57276247D01*
X138214284Y-57276247D02*
X137738094Y-57371485D01*
X139071427Y-57704819D02*
X139071427Y-57181009D01*
X139071427Y-57181009D02*
X139023808Y-57085771D01*
X139023808Y-57085771D02*
X138928570Y-57038152D01*
X138928570Y-57038152D02*
X138738094Y-57038152D01*
X138738094Y-57038152D02*
X138642856Y-57085771D01*
X139071427Y-57657200D02*
X138976189Y-57704819D01*
X138976189Y-57704819D02*
X138738094Y-57704819D01*
X138738094Y-57704819D02*
X138642856Y-57657200D01*
X138642856Y-57657200D02*
X138595237Y-57561961D01*
X138595237Y-57561961D02*
X138595237Y-57466723D01*
X138595237Y-57466723D02*
X138642856Y-57371485D01*
X138642856Y-57371485D02*
X138738094Y-57323866D01*
X138738094Y-57323866D02*
X138976189Y-57323866D01*
X138976189Y-57323866D02*
X139071427Y-57276247D01*
X139547618Y-57704819D02*
X139547618Y-57038152D01*
X139547618Y-57228628D02*
X139595237Y-57133390D01*
X139595237Y-57133390D02*
X139642856Y-57085771D01*
X139642856Y-57085771D02*
X139738094Y-57038152D01*
X139738094Y-57038152D02*
X139833332Y-57038152D01*
X141357142Y-57704819D02*
X141357142Y-57181009D01*
X141357142Y-57181009D02*
X141309523Y-57085771D01*
X141309523Y-57085771D02*
X141214285Y-57038152D01*
X141214285Y-57038152D02*
X141023809Y-57038152D01*
X141023809Y-57038152D02*
X140928571Y-57085771D01*
X141357142Y-57657200D02*
X141261904Y-57704819D01*
X141261904Y-57704819D02*
X141023809Y-57704819D01*
X141023809Y-57704819D02*
X140928571Y-57657200D01*
X140928571Y-57657200D02*
X140880952Y-57561961D01*
X140880952Y-57561961D02*
X140880952Y-57466723D01*
X140880952Y-57466723D02*
X140928571Y-57371485D01*
X140928571Y-57371485D02*
X141023809Y-57323866D01*
X141023809Y-57323866D02*
X141261904Y-57323866D01*
X141261904Y-57323866D02*
X141357142Y-57276247D01*
X142261904Y-57657200D02*
X142166666Y-57704819D01*
X142166666Y-57704819D02*
X141976190Y-57704819D01*
X141976190Y-57704819D02*
X141880952Y-57657200D01*
X141880952Y-57657200D02*
X141833333Y-57609580D01*
X141833333Y-57609580D02*
X141785714Y-57514342D01*
X141785714Y-57514342D02*
X141785714Y-57228628D01*
X141785714Y-57228628D02*
X141833333Y-57133390D01*
X141833333Y-57133390D02*
X141880952Y-57085771D01*
X141880952Y-57085771D02*
X141976190Y-57038152D01*
X141976190Y-57038152D02*
X142166666Y-57038152D01*
X142166666Y-57038152D02*
X142261904Y-57085771D01*
X142547619Y-57038152D02*
X142928571Y-57038152D01*
X142690476Y-56704819D02*
X142690476Y-57561961D01*
X142690476Y-57561961D02*
X142738095Y-57657200D01*
X142738095Y-57657200D02*
X142833333Y-57704819D01*
X142833333Y-57704819D02*
X142928571Y-57704819D01*
X143690476Y-57038152D02*
X143690476Y-57704819D01*
X143261905Y-57038152D02*
X143261905Y-57561961D01*
X143261905Y-57561961D02*
X143309524Y-57657200D01*
X143309524Y-57657200D02*
X143404762Y-57704819D01*
X143404762Y-57704819D02*
X143547619Y-57704819D01*
X143547619Y-57704819D02*
X143642857Y-57657200D01*
X143642857Y-57657200D02*
X143690476Y-57609580D01*
X144595238Y-57704819D02*
X144595238Y-57181009D01*
X144595238Y-57181009D02*
X144547619Y-57085771D01*
X144547619Y-57085771D02*
X144452381Y-57038152D01*
X144452381Y-57038152D02*
X144261905Y-57038152D01*
X144261905Y-57038152D02*
X144166667Y-57085771D01*
X144595238Y-57657200D02*
X144500000Y-57704819D01*
X144500000Y-57704819D02*
X144261905Y-57704819D01*
X144261905Y-57704819D02*
X144166667Y-57657200D01*
X144166667Y-57657200D02*
X144119048Y-57561961D01*
X144119048Y-57561961D02*
X144119048Y-57466723D01*
X144119048Y-57466723D02*
X144166667Y-57371485D01*
X144166667Y-57371485D02*
X144261905Y-57323866D01*
X144261905Y-57323866D02*
X144500000Y-57323866D01*
X144500000Y-57323866D02*
X144595238Y-57276247D01*
X144928572Y-57038152D02*
X145309524Y-57038152D01*
X145071429Y-56704819D02*
X145071429Y-57561961D01*
X145071429Y-57561961D02*
X145119048Y-57657200D01*
X145119048Y-57657200D02*
X145214286Y-57704819D01*
X145214286Y-57704819D02*
X145309524Y-57704819D01*
X145785715Y-57704819D02*
X145690477Y-57657200D01*
X145690477Y-57657200D02*
X145642858Y-57609580D01*
X145642858Y-57609580D02*
X145595239Y-57514342D01*
X145595239Y-57514342D02*
X145595239Y-57228628D01*
X145595239Y-57228628D02*
X145642858Y-57133390D01*
X145642858Y-57133390D02*
X145690477Y-57085771D01*
X145690477Y-57085771D02*
X145785715Y-57038152D01*
X145785715Y-57038152D02*
X145928572Y-57038152D01*
X145928572Y-57038152D02*
X146023810Y-57085771D01*
X146023810Y-57085771D02*
X146071429Y-57133390D01*
X146071429Y-57133390D02*
X146119048Y-57228628D01*
X146119048Y-57228628D02*
X146119048Y-57514342D01*
X146119048Y-57514342D02*
X146071429Y-57609580D01*
X146071429Y-57609580D02*
X146023810Y-57657200D01*
X146023810Y-57657200D02*
X145928572Y-57704819D01*
X145928572Y-57704819D02*
X145785715Y-57704819D01*
X146547620Y-57704819D02*
X146547620Y-57038152D01*
X146547620Y-57228628D02*
X146595239Y-57133390D01*
X146595239Y-57133390D02*
X146642858Y-57085771D01*
X146642858Y-57085771D02*
X146738096Y-57038152D01*
X146738096Y-57038152D02*
X146833334Y-57038152D01*
X148452382Y-57704819D02*
X147880954Y-57704819D01*
X148166668Y-57704819D02*
X148166668Y-56704819D01*
X148166668Y-56704819D02*
X148071430Y-56847676D01*
X148071430Y-56847676D02*
X147976192Y-56942914D01*
X147976192Y-56942914D02*
X147880954Y-56990533D01*
X135628571Y-56614700D02*
X136771429Y-56614700D01*
X147928571Y-56614700D02*
X149071429Y-56614700D01*
X148500000Y-57186128D02*
X148500000Y-56043271D01*
X102683333Y-104304819D02*
X102207143Y-104304819D01*
X102207143Y-104304819D02*
X102207143Y-103304819D01*
X102921429Y-103304819D02*
X103540476Y-103304819D01*
X103540476Y-103304819D02*
X103207143Y-103685771D01*
X103207143Y-103685771D02*
X103350000Y-103685771D01*
X103350000Y-103685771D02*
X103445238Y-103733390D01*
X103445238Y-103733390D02*
X103492857Y-103781009D01*
X103492857Y-103781009D02*
X103540476Y-103876247D01*
X103540476Y-103876247D02*
X103540476Y-104114342D01*
X103540476Y-104114342D02*
X103492857Y-104209580D01*
X103492857Y-104209580D02*
X103445238Y-104257200D01*
X103445238Y-104257200D02*
X103350000Y-104304819D01*
X103350000Y-104304819D02*
X103064286Y-104304819D01*
X103064286Y-104304819D02*
X102969048Y-104257200D01*
X102969048Y-104257200D02*
X102921429Y-104209580D01*
X97583333Y-83900057D02*
X97630952Y-83852438D01*
X97630952Y-83852438D02*
X97726190Y-83804819D01*
X97726190Y-83804819D02*
X97964285Y-83804819D01*
X97964285Y-83804819D02*
X98059523Y-83852438D01*
X98059523Y-83852438D02*
X98107142Y-83900057D01*
X98107142Y-83900057D02*
X98154761Y-83995295D01*
X98154761Y-83995295D02*
X98154761Y-84090533D01*
X98154761Y-84090533D02*
X98107142Y-84233390D01*
X98107142Y-84233390D02*
X97535714Y-84804819D01*
X97535714Y-84804819D02*
X98154761Y-84804819D01*
X99011904Y-84138152D02*
X99011904Y-84804819D01*
X98773809Y-83757200D02*
X98535714Y-84471485D01*
X98535714Y-84471485D02*
X99154761Y-84471485D01*
X99440476Y-84138152D02*
X99678571Y-84804819D01*
X99678571Y-84804819D02*
X99916666Y-84138152D01*
X101011905Y-83900057D02*
X101059524Y-83852438D01*
X101059524Y-83852438D02*
X101154762Y-83804819D01*
X101154762Y-83804819D02*
X101392857Y-83804819D01*
X101392857Y-83804819D02*
X101488095Y-83852438D01*
X101488095Y-83852438D02*
X101535714Y-83900057D01*
X101535714Y-83900057D02*
X101583333Y-83995295D01*
X101583333Y-83995295D02*
X101583333Y-84090533D01*
X101583333Y-84090533D02*
X101535714Y-84233390D01*
X101535714Y-84233390D02*
X100964286Y-84804819D01*
X100964286Y-84804819D02*
X101583333Y-84804819D01*
X102202381Y-83804819D02*
X102297619Y-83804819D01*
X102297619Y-83804819D02*
X102392857Y-83852438D01*
X102392857Y-83852438D02*
X102440476Y-83900057D01*
X102440476Y-83900057D02*
X102488095Y-83995295D01*
X102488095Y-83995295D02*
X102535714Y-84185771D01*
X102535714Y-84185771D02*
X102535714Y-84423866D01*
X102535714Y-84423866D02*
X102488095Y-84614342D01*
X102488095Y-84614342D02*
X102440476Y-84709580D01*
X102440476Y-84709580D02*
X102392857Y-84757200D01*
X102392857Y-84757200D02*
X102297619Y-84804819D01*
X102297619Y-84804819D02*
X102202381Y-84804819D01*
X102202381Y-84804819D02*
X102107143Y-84757200D01*
X102107143Y-84757200D02*
X102059524Y-84709580D01*
X102059524Y-84709580D02*
X102011905Y-84614342D01*
X102011905Y-84614342D02*
X101964286Y-84423866D01*
X101964286Y-84423866D02*
X101964286Y-84185771D01*
X101964286Y-84185771D02*
X102011905Y-83995295D01*
X102011905Y-83995295D02*
X102059524Y-83900057D01*
X102059524Y-83900057D02*
X102107143Y-83852438D01*
X102107143Y-83852438D02*
X102202381Y-83804819D01*
X102916667Y-84519104D02*
X103392857Y-84519104D01*
X102821429Y-84804819D02*
X103154762Y-83804819D01*
X103154762Y-83804819D02*
X103488095Y-84804819D01*
X104583334Y-84804819D02*
X104583334Y-83804819D01*
X105059524Y-84138152D02*
X105059524Y-84804819D01*
X105059524Y-84233390D02*
X105107143Y-84185771D01*
X105107143Y-84185771D02*
X105202381Y-84138152D01*
X105202381Y-84138152D02*
X105345238Y-84138152D01*
X105345238Y-84138152D02*
X105440476Y-84185771D01*
X105440476Y-84185771D02*
X105488095Y-84281009D01*
X105488095Y-84281009D02*
X105488095Y-84804819D01*
X105964286Y-84138152D02*
X105964286Y-85138152D01*
X105964286Y-84185771D02*
X106059524Y-84138152D01*
X106059524Y-84138152D02*
X106250000Y-84138152D01*
X106250000Y-84138152D02*
X106345238Y-84185771D01*
X106345238Y-84185771D02*
X106392857Y-84233390D01*
X106392857Y-84233390D02*
X106440476Y-84328628D01*
X106440476Y-84328628D02*
X106440476Y-84614342D01*
X106440476Y-84614342D02*
X106392857Y-84709580D01*
X106392857Y-84709580D02*
X106345238Y-84757200D01*
X106345238Y-84757200D02*
X106250000Y-84804819D01*
X106250000Y-84804819D02*
X106059524Y-84804819D01*
X106059524Y-84804819D02*
X105964286Y-84757200D01*
X107297619Y-84138152D02*
X107297619Y-84804819D01*
X106869048Y-84138152D02*
X106869048Y-84661961D01*
X106869048Y-84661961D02*
X106916667Y-84757200D01*
X106916667Y-84757200D02*
X107011905Y-84804819D01*
X107011905Y-84804819D02*
X107154762Y-84804819D01*
X107154762Y-84804819D02*
X107250000Y-84757200D01*
X107250000Y-84757200D02*
X107297619Y-84709580D01*
X107630953Y-84138152D02*
X108011905Y-84138152D01*
X107773810Y-83804819D02*
X107773810Y-84661961D01*
X107773810Y-84661961D02*
X107821429Y-84757200D01*
X107821429Y-84757200D02*
X107916667Y-84804819D01*
X107916667Y-84804819D02*
X108011905Y-84804819D01*
X108578571Y-85964700D02*
X109721429Y-85964700D01*
X96278571Y-85964700D02*
X97421429Y-85964700D01*
X96850000Y-86536128D02*
X96850000Y-85393271D01*
X135204819Y-73078094D02*
X134204819Y-73078094D01*
X135204819Y-72506666D02*
X134633390Y-72935237D01*
X134204819Y-72506666D02*
X134776247Y-73078094D01*
X134204819Y-72173332D02*
X134204819Y-71554285D01*
X134204819Y-71554285D02*
X134585771Y-71887618D01*
X134585771Y-71887618D02*
X134585771Y-71744761D01*
X134585771Y-71744761D02*
X134633390Y-71649523D01*
X134633390Y-71649523D02*
X134681009Y-71601904D01*
X134681009Y-71601904D02*
X134776247Y-71554285D01*
X134776247Y-71554285D02*
X135014342Y-71554285D01*
X135014342Y-71554285D02*
X135109580Y-71601904D01*
X135109580Y-71601904D02*
X135157200Y-71649523D01*
X135157200Y-71649523D02*
X135204819Y-71744761D01*
X135204819Y-71744761D02*
X135204819Y-72030475D01*
X135204819Y-72030475D02*
X135157200Y-72125713D01*
X135157200Y-72125713D02*
X135109580Y-72173332D01*
X139761905Y-93804819D02*
X139761905Y-92804819D01*
X139761905Y-92804819D02*
X140000000Y-92804819D01*
X140000000Y-92804819D02*
X140142857Y-92852438D01*
X140142857Y-92852438D02*
X140238095Y-92947676D01*
X140238095Y-92947676D02*
X140285714Y-93042914D01*
X140285714Y-93042914D02*
X140333333Y-93233390D01*
X140333333Y-93233390D02*
X140333333Y-93376247D01*
X140333333Y-93376247D02*
X140285714Y-93566723D01*
X140285714Y-93566723D02*
X140238095Y-93661961D01*
X140238095Y-93661961D02*
X140142857Y-93757200D01*
X140142857Y-93757200D02*
X140000000Y-93804819D01*
X140000000Y-93804819D02*
X139761905Y-93804819D01*
X141285714Y-93804819D02*
X140714286Y-93804819D01*
X141000000Y-93804819D02*
X141000000Y-92804819D01*
X141000000Y-92804819D02*
X140904762Y-92947676D01*
X140904762Y-92947676D02*
X140809524Y-93042914D01*
X140809524Y-93042914D02*
X140714286Y-93090533D01*
D12*
%TO.C,*%
G36*
X101896375Y-42494379D02*
G01*
X101895246Y-42717831D01*
X101874535Y-42719160D01*
X101853826Y-42720489D01*
X101853826Y-42495708D01*
X101853826Y-42270928D01*
X101875666Y-42270928D01*
X101897505Y-42270928D01*
X101896375Y-42494379D01*
G37*
G36*
X105947899Y-47038624D02*
G01*
X105947899Y-47062604D01*
X105906478Y-47062604D01*
X105865057Y-47062604D01*
X105865057Y-47208666D01*
X105865057Y-47354727D01*
X105841078Y-47354727D01*
X105817097Y-47354727D01*
X105817097Y-47208666D01*
X105817097Y-47062604D01*
X105775677Y-47062604D01*
X105734257Y-47062604D01*
X105734257Y-47038624D01*
X105734257Y-47014644D01*
X105841078Y-47014644D01*
X105947899Y-47014644D01*
X105947899Y-47038624D01*
G37*
G36*
X102512191Y-42397369D02*
G01*
X102512026Y-42411220D01*
X102511595Y-42420802D01*
X102511101Y-42423784D01*
X102506714Y-42424519D01*
X102494560Y-42426527D01*
X102475478Y-42429670D01*
X102450307Y-42433810D01*
X102419883Y-42438811D01*
X102385045Y-42444532D01*
X102346633Y-42450838D01*
X102305484Y-42457589D01*
X102303999Y-42457833D01*
X102097987Y-42491626D01*
X102097987Y-42431417D01*
X102097987Y-42371208D01*
X102305089Y-42371208D01*
X102512191Y-42371208D01*
X102512191Y-42397369D01*
G37*
G36*
X101823305Y-42597421D02*
G01*
X101823251Y-42621459D01*
X101822942Y-42638187D01*
X101822160Y-42649016D01*
X101820686Y-42655358D01*
X101818299Y-42658624D01*
X101814781Y-42660223D01*
X101813497Y-42660583D01*
X101793179Y-42663178D01*
X101769898Y-42661959D01*
X101748329Y-42657313D01*
X101741368Y-42654644D01*
X101725919Y-42644132D01*
X101714584Y-42628042D01*
X101706968Y-42605525D01*
X101702672Y-42575734D01*
X101702332Y-42571213D01*
X101699980Y-42536890D01*
X101761643Y-42536890D01*
X101823305Y-42536890D01*
X101823305Y-42597421D01*
G37*
G36*
X101827666Y-42393008D02*
G01*
X101827666Y-42515089D01*
X101751010Y-42515089D01*
X101674352Y-42515089D01*
X101675808Y-42415899D01*
X101676458Y-42380335D01*
X101677414Y-42352370D01*
X101678931Y-42330883D01*
X101681263Y-42314752D01*
X101684667Y-42302854D01*
X101689399Y-42294070D01*
X101695712Y-42287278D01*
X101703864Y-42281356D01*
X101706888Y-42279471D01*
X101714230Y-42275760D01*
X101723032Y-42273286D01*
X101735152Y-42271816D01*
X101752442Y-42271114D01*
X101774257Y-42270944D01*
X101827666Y-42270928D01*
X101827666Y-42393008D01*
G37*
G36*
X102044896Y-42575317D02*
G01*
X102041534Y-42605838D01*
X102034349Y-42628962D01*
X102022754Y-42645391D01*
X102006162Y-42655825D01*
X101983985Y-42660967D01*
X101972497Y-42661728D01*
X101955857Y-42661860D01*
X101941528Y-42661363D01*
X101933396Y-42660469D01*
X101929509Y-42659314D01*
X101926814Y-42656873D01*
X101925092Y-42651750D01*
X101924126Y-42642548D01*
X101923698Y-42627873D01*
X101923588Y-42606325D01*
X101923586Y-42597627D01*
X101923586Y-42536890D01*
X101985160Y-42536890D01*
X102046734Y-42536890D01*
X102044896Y-42575317D01*
G37*
G36*
X101977813Y-42271680D02*
G01*
X102001444Y-42272313D01*
X102018049Y-42273085D01*
X102029320Y-42274332D01*
X102036946Y-42276388D01*
X102042619Y-42279590D01*
X102048033Y-42284271D01*
X102049782Y-42285940D01*
X102059626Y-42298189D01*
X102066708Y-42311906D01*
X102067471Y-42314280D01*
X102068767Y-42323248D01*
X102069910Y-42339370D01*
X102070835Y-42361084D01*
X102071482Y-42386823D01*
X102071788Y-42415023D01*
X102071803Y-42422439D01*
X102071827Y-42515089D01*
X101995526Y-42515089D01*
X101919226Y-42515089D01*
X101919226Y-42392671D01*
X101919226Y-42270252D01*
X101977813Y-42271680D01*
G37*
G36*
X99490688Y-47038624D02*
G01*
X99490688Y-47062604D01*
X99457988Y-47062604D01*
X99425287Y-47062604D01*
X99425287Y-47184685D01*
X99425287Y-47306767D01*
X99457988Y-47306767D01*
X99490688Y-47306767D01*
X99490688Y-47330746D01*
X99490688Y-47354727D01*
X99399127Y-47354727D01*
X99307567Y-47354727D01*
X99307567Y-47330746D01*
X99307567Y-47306767D01*
X99342447Y-47306767D01*
X99377327Y-47306767D01*
X99377327Y-47184868D01*
X99377327Y-47062972D01*
X99343537Y-47061698D01*
X99309747Y-47060425D01*
X99308428Y-47037535D01*
X99307111Y-47014644D01*
X99398899Y-47014644D01*
X99490688Y-47014644D01*
X99490688Y-47038624D01*
G37*
G36*
X99769730Y-47038624D02*
G01*
X99769730Y-47062604D01*
X99693430Y-47062604D01*
X99617129Y-47062604D01*
X99617129Y-47110564D01*
X99617129Y-47158525D01*
X99686890Y-47158525D01*
X99756650Y-47158525D01*
X99756650Y-47182505D01*
X99756650Y-47206486D01*
X99686890Y-47206486D01*
X99617129Y-47206486D01*
X99617129Y-47256626D01*
X99617129Y-47306767D01*
X99693430Y-47306767D01*
X99769730Y-47306767D01*
X99769730Y-47330746D01*
X99769730Y-47354727D01*
X99669449Y-47354727D01*
X99569169Y-47354727D01*
X99569169Y-47184685D01*
X99569169Y-47014644D01*
X99669449Y-47014644D01*
X99769730Y-47014644D01*
X99769730Y-47038624D01*
G37*
G36*
X100575475Y-47037535D02*
G01*
X100574157Y-47060425D01*
X100498946Y-47061617D01*
X100423735Y-47062810D01*
X100423735Y-47110557D01*
X100423735Y-47158304D01*
X100492406Y-47159505D01*
X100561077Y-47160706D01*
X100561077Y-47182505D01*
X100561077Y-47204305D01*
X100492406Y-47205506D01*
X100423735Y-47206707D01*
X100423735Y-47256736D01*
X100423735Y-47306767D01*
X100500264Y-47306767D01*
X100576792Y-47306767D01*
X100575475Y-47329657D01*
X100574157Y-47352547D01*
X100474966Y-47353719D01*
X100375775Y-47354890D01*
X100375775Y-47184767D01*
X100375775Y-47014644D01*
X100476284Y-47014644D01*
X100576792Y-47014644D01*
X100575475Y-47037535D01*
G37*
G36*
X101653266Y-42430027D02*
G01*
X101653266Y-42488929D01*
X101639095Y-42488560D01*
X101631830Y-42487783D01*
X101616946Y-42485716D01*
X101595428Y-42482512D01*
X101568258Y-42478322D01*
X101536417Y-42473300D01*
X101500889Y-42467598D01*
X101462656Y-42461368D01*
X101443984Y-42458293D01*
X101404798Y-42451811D01*
X101367847Y-42445686D01*
X101334115Y-42440081D01*
X101304589Y-42435161D01*
X101280250Y-42431091D01*
X101262085Y-42428034D01*
X101251078Y-42426154D01*
X101248662Y-42425725D01*
X101234281Y-42423055D01*
X101235582Y-42398221D01*
X101236882Y-42373388D01*
X101445074Y-42372256D01*
X101653266Y-42371124D01*
X101653266Y-42430027D01*
G37*
G36*
X102454648Y-47037535D02*
G01*
X102453330Y-47060425D01*
X102378120Y-47061617D01*
X102302909Y-47062810D01*
X102302909Y-47110668D01*
X102302909Y-47158525D01*
X102370489Y-47158525D01*
X102438070Y-47158525D01*
X102438070Y-47182505D01*
X102438070Y-47206486D01*
X102370489Y-47206486D01*
X102302909Y-47206486D01*
X102302909Y-47256626D01*
X102302909Y-47306767D01*
X102379438Y-47306767D01*
X102455966Y-47306767D01*
X102454648Y-47329657D01*
X102453330Y-47352547D01*
X102354139Y-47353719D01*
X102254949Y-47354890D01*
X102254949Y-47184767D01*
X102254949Y-47014644D01*
X102355457Y-47014644D01*
X102455966Y-47014644D01*
X102454648Y-47037535D01*
G37*
G36*
X105394174Y-47038624D02*
G01*
X105394174Y-47062604D01*
X105361474Y-47062604D01*
X105328774Y-47062604D01*
X105328774Y-47184685D01*
X105328774Y-47306767D01*
X105363882Y-47306767D01*
X105398989Y-47306767D01*
X105397672Y-47329657D01*
X105396354Y-47352547D01*
X105305883Y-47353726D01*
X105215413Y-47354904D01*
X105215413Y-47330835D01*
X105215413Y-47306767D01*
X105248113Y-47306767D01*
X105280813Y-47306767D01*
X105280813Y-47184685D01*
X105280813Y-47062604D01*
X105248113Y-47062604D01*
X105215413Y-47062604D01*
X105215413Y-47038624D01*
X105215413Y-47014644D01*
X105304793Y-47014644D01*
X105394174Y-47014644D01*
X105394174Y-47038624D01*
G37*
G36*
X105673216Y-47038624D02*
G01*
X105673216Y-47062604D01*
X105599095Y-47062604D01*
X105524975Y-47062604D01*
X105524975Y-47110564D01*
X105524975Y-47158525D01*
X105592555Y-47158525D01*
X105660136Y-47158525D01*
X105660136Y-47182505D01*
X105660136Y-47206486D01*
X105592555Y-47206486D01*
X105524975Y-47206486D01*
X105524975Y-47256626D01*
X105524975Y-47306767D01*
X105599095Y-47306767D01*
X105673216Y-47306767D01*
X105673216Y-47330746D01*
X105673216Y-47354727D01*
X105575116Y-47354727D01*
X105477015Y-47354727D01*
X105477015Y-47184685D01*
X105477015Y-47014644D01*
X105575116Y-47014644D01*
X105673216Y-47014644D01*
X105673216Y-47038624D01*
G37*
G36*
X97636634Y-47183386D02*
G01*
X97635493Y-47352547D01*
X97612675Y-47353862D01*
X97589856Y-47355178D01*
X97588694Y-47238508D01*
X97587532Y-47121838D01*
X97564179Y-47177461D01*
X97540825Y-47233086D01*
X97520896Y-47231776D01*
X97500967Y-47230466D01*
X97477986Y-47175965D01*
X97455004Y-47121465D01*
X97453688Y-47237006D01*
X97452372Y-47352547D01*
X97429481Y-47353864D01*
X97406591Y-47355182D01*
X97406591Y-47184913D01*
X97406591Y-47014644D01*
X97432081Y-47014644D01*
X97457570Y-47014644D01*
X97487375Y-47085495D01*
X97497196Y-47108663D01*
X97505974Y-47129041D01*
X97513109Y-47145263D01*
X97518002Y-47155960D01*
X97519949Y-47159689D01*
X97522423Y-47156963D01*
X97527628Y-47147360D01*
X97534985Y-47132073D01*
X97543922Y-47112294D01*
X97553563Y-47089929D01*
X97584410Y-47016824D01*
X97611093Y-47015524D01*
X97637776Y-47014225D01*
X97636634Y-47183386D01*
G37*
G36*
X106072030Y-47087674D02*
G01*
X106082915Y-47111000D01*
X106092649Y-47131572D01*
X106100606Y-47148088D01*
X106106156Y-47159242D01*
X106108644Y-47163703D01*
X106111218Y-47160887D01*
X106116757Y-47151268D01*
X106124663Y-47136002D01*
X106134341Y-47116247D01*
X106145193Y-47093159D01*
X106146280Y-47090797D01*
X106181160Y-47014894D01*
X106208410Y-47014769D01*
X106222530Y-47015027D01*
X106232378Y-47015825D01*
X106235661Y-47016862D01*
X106233773Y-47021202D01*
X106228465Y-47032241D01*
X106220266Y-47048906D01*
X106209709Y-47070123D01*
X106197324Y-47094818D01*
X106186610Y-47116053D01*
X106137560Y-47213026D01*
X106135380Y-47282786D01*
X106133200Y-47352547D01*
X106110310Y-47353864D01*
X106087420Y-47355182D01*
X106087420Y-47291308D01*
X106087420Y-47227435D01*
X106035418Y-47121040D01*
X105983416Y-47014644D01*
X106010794Y-47014644D01*
X106038174Y-47014644D01*
X106072030Y-47087674D01*
G37*
G36*
X103794041Y-47038624D02*
G01*
X103794041Y-47062604D01*
X103717741Y-47062604D01*
X103641440Y-47062604D01*
X103641440Y-47110564D01*
X103641440Y-47158525D01*
X103711201Y-47158525D01*
X103780961Y-47158525D01*
X103780961Y-47182505D01*
X103780961Y-47206486D01*
X103711201Y-47206486D01*
X103641440Y-47206486D01*
X103641440Y-47256626D01*
X103641440Y-47306767D01*
X103717741Y-47306767D01*
X103794041Y-47306767D01*
X103794041Y-47330746D01*
X103794041Y-47354727D01*
X103696667Y-47354727D01*
X103668367Y-47354602D01*
X103643041Y-47354252D01*
X103621974Y-47353715D01*
X103606449Y-47353027D01*
X103597752Y-47352227D01*
X103596386Y-47351820D01*
X103595738Y-47346953D01*
X103595140Y-47334331D01*
X103594609Y-47314918D01*
X103594161Y-47289679D01*
X103593813Y-47259580D01*
X103593581Y-47225584D01*
X103593482Y-47188657D01*
X103593480Y-47181778D01*
X103593480Y-47014644D01*
X103693760Y-47014644D01*
X103794041Y-47014644D01*
X103794041Y-47038624D01*
G37*
G36*
X101886711Y-40823091D02*
G01*
X101900529Y-40834662D01*
X101915515Y-40852858D01*
X101931100Y-40876786D01*
X101946708Y-40905557D01*
X101961767Y-40938279D01*
X101975706Y-40974060D01*
X101977490Y-40979134D01*
X101981526Y-40990633D01*
X101985169Y-41001031D01*
X101988438Y-41010811D01*
X101991355Y-41020449D01*
X101993939Y-41030425D01*
X101996211Y-41041219D01*
X101998189Y-41053309D01*
X101999896Y-41067175D01*
X102001351Y-41083297D01*
X102002573Y-41102152D01*
X102003583Y-41124220D01*
X102004400Y-41149982D01*
X102005047Y-41179915D01*
X102005540Y-41214499D01*
X102005902Y-41254213D01*
X102006152Y-41299537D01*
X102006310Y-41350950D01*
X102006397Y-41408930D01*
X102006433Y-41473957D01*
X102006436Y-41546511D01*
X102006428Y-41627070D01*
X102006427Y-41669724D01*
X102006427Y-42244768D01*
X101873324Y-42244768D01*
X101740224Y-42244768D01*
X101741450Y-41659432D01*
X101742677Y-41074098D01*
X101754526Y-41032018D01*
X101766932Y-40992065D01*
X101780896Y-40954214D01*
X101795932Y-40919329D01*
X101811551Y-40888276D01*
X101827265Y-40861915D01*
X101842590Y-40841114D01*
X101857037Y-40826734D01*
X101870119Y-40819641D01*
X101874635Y-40819036D01*
X101886711Y-40823091D01*
G37*
G36*
X101538692Y-47014926D02*
G01*
X101561983Y-47015956D01*
X101579826Y-47018008D01*
X101593849Y-47021362D01*
X101605682Y-47026291D01*
X101616926Y-47033056D01*
X101633688Y-47049345D01*
X101645413Y-47070934D01*
X101652036Y-47095957D01*
X101653489Y-47122549D01*
X101649706Y-47148841D01*
X101640619Y-47172971D01*
X101626162Y-47193070D01*
X101622775Y-47196304D01*
X101610268Y-47205970D01*
X101596828Y-47212559D01*
X101580427Y-47216611D01*
X101559040Y-47218664D01*
X101536635Y-47219234D01*
X101491945Y-47219566D01*
X101491945Y-47287146D01*
X101491945Y-47354727D01*
X101467964Y-47354727D01*
X101443984Y-47354727D01*
X101443984Y-47184685D01*
X101443984Y-47177175D01*
X101491945Y-47177175D01*
X101530360Y-47174984D01*
X101548979Y-47173404D01*
X101565206Y-47171097D01*
X101576350Y-47168477D01*
X101578555Y-47167561D01*
X101592649Y-47155414D01*
X101601484Y-47138173D01*
X101604516Y-47118083D01*
X101601199Y-47097385D01*
X101597668Y-47088826D01*
X101590303Y-47077386D01*
X101580649Y-47069720D01*
X101566991Y-47065162D01*
X101547610Y-47063050D01*
X101530095Y-47062669D01*
X101491945Y-47062604D01*
X101491945Y-47119890D01*
X101491945Y-47177175D01*
X101443984Y-47177175D01*
X101443984Y-47119890D01*
X101443984Y-47014644D01*
X101508323Y-47014644D01*
X101538692Y-47014926D01*
G37*
G36*
X98531671Y-47131275D02*
G01*
X98531886Y-47172115D01*
X98532497Y-47205211D01*
X98533675Y-47231533D01*
X98535591Y-47252054D01*
X98538417Y-47267746D01*
X98542321Y-47279580D01*
X98547478Y-47288530D01*
X98554055Y-47295565D01*
X98561555Y-47301215D01*
X98581318Y-47309621D01*
X98602264Y-47310485D01*
X98622272Y-47304336D01*
X98639222Y-47291701D01*
X98647900Y-47279709D01*
X98650218Y-47274655D01*
X98652064Y-47268241D01*
X98653506Y-47259427D01*
X98654611Y-47247171D01*
X98655450Y-47230432D01*
X98656090Y-47208170D01*
X98656599Y-47179344D01*
X98657046Y-47142913D01*
X98657077Y-47139995D01*
X98658412Y-47014644D01*
X98682147Y-47014644D01*
X98705882Y-47014644D01*
X98705882Y-47132150D01*
X98705699Y-47167409D01*
X98705181Y-47199645D01*
X98704367Y-47227625D01*
X98703301Y-47250117D01*
X98702023Y-47265886D01*
X98701145Y-47271742D01*
X98690919Y-47300532D01*
X98674411Y-47324313D01*
X98652874Y-47342463D01*
X98627563Y-47354359D01*
X98599734Y-47359379D01*
X98570638Y-47356901D01*
X98546230Y-47348614D01*
X98523463Y-47333951D01*
X98505243Y-47312888D01*
X98493541Y-47291272D01*
X98491283Y-47285278D01*
X98489472Y-47277801D01*
X98488042Y-47267806D01*
X98486928Y-47254258D01*
X98486065Y-47236119D01*
X98485389Y-47212354D01*
X98484835Y-47181928D01*
X98484344Y-47144355D01*
X98482838Y-47014644D01*
X98507159Y-47014644D01*
X98531480Y-47014644D01*
X98531671Y-47131275D01*
G37*
G36*
X98082642Y-47011721D02*
G01*
X98100454Y-47015344D01*
X98123085Y-47026395D01*
X98143155Y-47044333D01*
X98159229Y-47067400D01*
X98169871Y-47093836D01*
X98171935Y-47102935D01*
X98174928Y-47119285D01*
X98149148Y-47119285D01*
X98123368Y-47119285D01*
X98114251Y-47097706D01*
X98101704Y-47077233D01*
X98084638Y-47064053D01*
X98063469Y-47058460D01*
X98058416Y-47058277D01*
X98036253Y-47062144D01*
X98018113Y-47073682D01*
X98004061Y-47092792D01*
X97994160Y-47119375D01*
X97988471Y-47153332D01*
X97987372Y-47169342D01*
X97987729Y-47210036D01*
X97992641Y-47244015D01*
X98002008Y-47271081D01*
X98015725Y-47291038D01*
X98033692Y-47303687D01*
X98055804Y-47308832D01*
X98060018Y-47308946D01*
X98081547Y-47305909D01*
X98098051Y-47296288D01*
X98110635Y-47279323D01*
X98114359Y-47271407D01*
X98123368Y-47250086D01*
X98149009Y-47250086D01*
X98174650Y-47250086D01*
X98171682Y-47264256D01*
X98161381Y-47294580D01*
X98144896Y-47319895D01*
X98123352Y-47339546D01*
X98097879Y-47352877D01*
X98069604Y-47359231D01*
X98039654Y-47357953D01*
X98019679Y-47352667D01*
X98006435Y-47345930D01*
X97991953Y-47335646D01*
X97985512Y-47329969D01*
X97965278Y-47305426D01*
X97950638Y-47276011D01*
X97941348Y-47240998D01*
X97937165Y-47199660D01*
X97936865Y-47184685D01*
X97939532Y-47140414D01*
X97947697Y-47101885D01*
X97961194Y-47069452D01*
X97979860Y-47043471D01*
X98003528Y-47024292D01*
X98014464Y-47018557D01*
X98034058Y-47012855D01*
X98058026Y-47010530D01*
X98082642Y-47011721D01*
G37*
G36*
X99095015Y-47014669D02*
G01*
X99118987Y-47015005D01*
X99141250Y-47015908D01*
X99159651Y-47017252D01*
X99172033Y-47018908D01*
X99173952Y-47019359D01*
X99194783Y-47029178D01*
X99213763Y-47045450D01*
X99228700Y-47065915D01*
X99236201Y-47083558D01*
X99241165Y-47114590D01*
X99237970Y-47143889D01*
X99227010Y-47170438D01*
X99208678Y-47193218D01*
X99187806Y-47208733D01*
X99185326Y-47211001D01*
X99184547Y-47214834D01*
X99185850Y-47221393D01*
X99189615Y-47231844D01*
X99196222Y-47247349D01*
X99206053Y-47269071D01*
X99211202Y-47280258D01*
X99221429Y-47302639D01*
X99230232Y-47322322D01*
X99237006Y-47337923D01*
X99241149Y-47348057D01*
X99242166Y-47351249D01*
X99238212Y-47353091D01*
X99227915Y-47353999D01*
X99215503Y-47353845D01*
X99188841Y-47352547D01*
X99159757Y-47287146D01*
X99130672Y-47221746D01*
X99105873Y-47220442D01*
X99081074Y-47219137D01*
X99079870Y-47285842D01*
X99078665Y-47352547D01*
X99055774Y-47353864D01*
X99032884Y-47355182D01*
X99032884Y-47184913D01*
X99032884Y-47171605D01*
X99080845Y-47171605D01*
X99115942Y-47171605D01*
X99140199Y-47170516D01*
X99157781Y-47167364D01*
X99163637Y-47165090D01*
X99178996Y-47153575D01*
X99187471Y-47137830D01*
X99189845Y-47118520D01*
X99187922Y-47097472D01*
X99181561Y-47082046D01*
X99169880Y-47071570D01*
X99151992Y-47065372D01*
X99127012Y-47062783D01*
X99116156Y-47062604D01*
X99080845Y-47062604D01*
X99080845Y-47117105D01*
X99080845Y-47171605D01*
X99032884Y-47171605D01*
X99032884Y-47117105D01*
X99032884Y-47014644D01*
X99095015Y-47014669D01*
G37*
G36*
X103934653Y-47015359D02*
G01*
X103961197Y-47015971D01*
X103980659Y-47016700D01*
X103994672Y-47017790D01*
X104004872Y-47019484D01*
X104012895Y-47022024D01*
X104020375Y-47025652D01*
X104026097Y-47028930D01*
X104046829Y-47045821D01*
X104061634Y-47067592D01*
X104070360Y-47092593D01*
X104072860Y-47119175D01*
X104068983Y-47145688D01*
X104058580Y-47170480D01*
X104041501Y-47191904D01*
X104040914Y-47192451D01*
X104029880Y-47202107D01*
X104020866Y-47209090D01*
X104016953Y-47211389D01*
X104016454Y-47215966D01*
X104020154Y-47228003D01*
X104028072Y-47247548D01*
X104040223Y-47274648D01*
X104042343Y-47279218D01*
X104052579Y-47301495D01*
X104061371Y-47321168D01*
X104068104Y-47336819D01*
X104072163Y-47347027D01*
X104073083Y-47350204D01*
X104068848Y-47353143D01*
X104056191Y-47354113D01*
X104046521Y-47353845D01*
X104019960Y-47352547D01*
X103990931Y-47286070D01*
X103961902Y-47219594D01*
X103936832Y-47219580D01*
X103911762Y-47219566D01*
X103911762Y-47287146D01*
X103911762Y-47354727D01*
X103887782Y-47354727D01*
X103863802Y-47354727D01*
X103863802Y-47184310D01*
X103863802Y-47172447D01*
X103911762Y-47172447D01*
X103952839Y-47170936D01*
X103972703Y-47169969D01*
X103986005Y-47168488D01*
X103994905Y-47165995D01*
X104001560Y-47161990D01*
X104005209Y-47158809D01*
X104017446Y-47141634D01*
X104022804Y-47120797D01*
X104020735Y-47098633D01*
X104019955Y-47095973D01*
X104013184Y-47081781D01*
X104002520Y-47071948D01*
X103986703Y-47065894D01*
X103964474Y-47063035D01*
X103947733Y-47062612D01*
X103911762Y-47062604D01*
X103911762Y-47117526D01*
X103911762Y-47172447D01*
X103863802Y-47172447D01*
X103863802Y-47117526D01*
X103863802Y-47013894D01*
X103934653Y-47015359D01*
G37*
G36*
X100712946Y-47015359D02*
G01*
X100739424Y-47015949D01*
X100758809Y-47016634D01*
X100772725Y-47017669D01*
X100782796Y-47019313D01*
X100790647Y-47021821D01*
X100797902Y-47025449D01*
X100805404Y-47029972D01*
X100827343Y-47048310D01*
X100842175Y-47071476D01*
X100849567Y-47098807D01*
X100850184Y-47119285D01*
X100845103Y-47150712D01*
X100833796Y-47176402D01*
X100816414Y-47196050D01*
X100810535Y-47200388D01*
X100799866Y-47207501D01*
X100792714Y-47212198D01*
X100791076Y-47213221D01*
X100792467Y-47217122D01*
X100797001Y-47227592D01*
X100804091Y-47243317D01*
X100813147Y-47262985D01*
X100820506Y-47278753D01*
X100830743Y-47300885D01*
X100839518Y-47320466D01*
X100846207Y-47336051D01*
X100850183Y-47346196D01*
X100851019Y-47349249D01*
X100847401Y-47352700D01*
X100836151Y-47354446D01*
X100825347Y-47354727D01*
X100799675Y-47354727D01*
X100769756Y-47287155D01*
X100739838Y-47219583D01*
X100714768Y-47219575D01*
X100689697Y-47219566D01*
X100689697Y-47287146D01*
X100689697Y-47354727D01*
X100665718Y-47354727D01*
X100641737Y-47354727D01*
X100641737Y-47184310D01*
X100641737Y-47172447D01*
X100689697Y-47172447D01*
X100730775Y-47170936D01*
X100750634Y-47169970D01*
X100763932Y-47168491D01*
X100772830Y-47166000D01*
X100779488Y-47161995D01*
X100783168Y-47158786D01*
X100794945Y-47142759D01*
X100800757Y-47123969D01*
X100800688Y-47104652D01*
X100794818Y-47087044D01*
X100783231Y-47073382D01*
X100779947Y-47071142D01*
X100770487Y-47066657D01*
X100758666Y-47064010D01*
X100742090Y-47062810D01*
X100727848Y-47062621D01*
X100689697Y-47062604D01*
X100689697Y-47117526D01*
X100689697Y-47172447D01*
X100641737Y-47172447D01*
X100641737Y-47117526D01*
X100641737Y-47013894D01*
X100712946Y-47015359D01*
G37*
G36*
X103386355Y-47139995D02*
G01*
X103395031Y-47171970D01*
X103403075Y-47201452D01*
X103410178Y-47227323D01*
X103416031Y-47248464D01*
X103420326Y-47263755D01*
X103422753Y-47272077D01*
X103423068Y-47273041D01*
X103424949Y-47271288D01*
X103428735Y-47261728D01*
X103434222Y-47245018D01*
X103441203Y-47221812D01*
X103449473Y-47192763D01*
X103457342Y-47164040D01*
X103465822Y-47132632D01*
X103473773Y-47103218D01*
X103480851Y-47077077D01*
X103486708Y-47055489D01*
X103490996Y-47039734D01*
X103493370Y-47031091D01*
X103493397Y-47030994D01*
X103497969Y-47014644D01*
X103524391Y-47014644D01*
X103539709Y-47015177D01*
X103547449Y-47016939D01*
X103548721Y-47020094D01*
X103547095Y-47025400D01*
X103543376Y-47038137D01*
X103537838Y-47057343D01*
X103530758Y-47082056D01*
X103522410Y-47111315D01*
X103513070Y-47144160D01*
X103503013Y-47179627D01*
X103502199Y-47182505D01*
X103492081Y-47218246D01*
X103482654Y-47251534D01*
X103474198Y-47281393D01*
X103466987Y-47306844D01*
X103461301Y-47326906D01*
X103457416Y-47340604D01*
X103455609Y-47346955D01*
X103455568Y-47347097D01*
X103452757Y-47351378D01*
X103446121Y-47353727D01*
X103433681Y-47354646D01*
X103425509Y-47354727D01*
X103397647Y-47354727D01*
X103388992Y-47325297D01*
X103383896Y-47307835D01*
X103377364Y-47285244D01*
X103369714Y-47258639D01*
X103361260Y-47229135D01*
X103352322Y-47197846D01*
X103343215Y-47165887D01*
X103334257Y-47134375D01*
X103325764Y-47104423D01*
X103318053Y-47077147D01*
X103311442Y-47053662D01*
X103306247Y-47035082D01*
X103302785Y-47022523D01*
X103301374Y-47017099D01*
X103301357Y-47016982D01*
X103305314Y-47015736D01*
X103315579Y-47014888D01*
X103326894Y-47014644D01*
X103352431Y-47014644D01*
X103386355Y-47139995D01*
G37*
G36*
X103177750Y-47011759D02*
G01*
X103197374Y-47016478D01*
X103198201Y-47016815D01*
X103223147Y-47031847D01*
X103243927Y-47053929D01*
X103260200Y-47082273D01*
X103271629Y-47116092D01*
X103277872Y-47154601D01*
X103278593Y-47197012D01*
X103278282Y-47202488D01*
X103272789Y-47245171D01*
X103262364Y-47281342D01*
X103247174Y-47310772D01*
X103227387Y-47333233D01*
X103203168Y-47348495D01*
X103174684Y-47356331D01*
X103165339Y-47357199D01*
X103147635Y-47357274D01*
X103130794Y-47355887D01*
X103121672Y-47354142D01*
X103099201Y-47343485D01*
X103078790Y-47325417D01*
X103061344Y-47301169D01*
X103047767Y-47271973D01*
X103039616Y-47242535D01*
X103036482Y-47217625D01*
X103035566Y-47188573D01*
X103036400Y-47166316D01*
X103084154Y-47166316D01*
X103084350Y-47197444D01*
X103087726Y-47227699D01*
X103094107Y-47254904D01*
X103103317Y-47276880D01*
X103108024Y-47284077D01*
X103124827Y-47299753D01*
X103144705Y-47308103D01*
X103165899Y-47308837D01*
X103186645Y-47301667D01*
X103192475Y-47297962D01*
X103205797Y-47283664D01*
X103216377Y-47262769D01*
X103224033Y-47237018D01*
X103228586Y-47208147D01*
X103229857Y-47177896D01*
X103227664Y-47148003D01*
X103221830Y-47120206D01*
X103213151Y-47098097D01*
X103198759Y-47077696D01*
X103181329Y-47064701D01*
X103162203Y-47058976D01*
X103142722Y-47060383D01*
X103124228Y-47068790D01*
X103108061Y-47084059D01*
X103095564Y-47106054D01*
X103094005Y-47110159D01*
X103087314Y-47136495D01*
X103084154Y-47166316D01*
X103036400Y-47166316D01*
X103036708Y-47158120D01*
X103039747Y-47129010D01*
X103044523Y-47103985D01*
X103048448Y-47091298D01*
X103060819Y-47067073D01*
X103077727Y-47044910D01*
X103097089Y-47027214D01*
X103111696Y-47018442D01*
X103130983Y-47012815D01*
X103154311Y-47010562D01*
X103177750Y-47011759D01*
G37*
G36*
X101042908Y-47014753D02*
G01*
X101059135Y-47020990D01*
X101081960Y-47036283D01*
X101100901Y-47058520D01*
X101115673Y-47086707D01*
X101125992Y-47119846D01*
X101131577Y-47156941D01*
X101132145Y-47196998D01*
X101127412Y-47239019D01*
X101124829Y-47252266D01*
X101113474Y-47287162D01*
X101095714Y-47316404D01*
X101071771Y-47339659D01*
X101062046Y-47346275D01*
X101045871Y-47352806D01*
X101024724Y-47356717D01*
X101002027Y-47357753D01*
X100981203Y-47355660D01*
X100971597Y-47353011D01*
X100946610Y-47339107D01*
X100925473Y-47317798D01*
X100908560Y-47289679D01*
X100896243Y-47255341D01*
X100889857Y-47223131D01*
X100886998Y-47181250D01*
X100887636Y-47172227D01*
X100939050Y-47172227D01*
X100939118Y-47208300D01*
X100942210Y-47237341D01*
X100948591Y-47260590D01*
X100958524Y-47279289D01*
X100963111Y-47285254D01*
X100980604Y-47300529D01*
X101000256Y-47308416D01*
X101020489Y-47308647D01*
X101039721Y-47300951D01*
X101042758Y-47298850D01*
X101059003Y-47282820D01*
X101070723Y-47261738D01*
X101078146Y-47234852D01*
X101081496Y-47201407D01*
X101081405Y-47169703D01*
X101080223Y-47147494D01*
X101078233Y-47131181D01*
X101074875Y-47117946D01*
X101069586Y-47104967D01*
X101067748Y-47101129D01*
X101055559Y-47080891D01*
X101041624Y-47067965D01*
X101024139Y-47060944D01*
X101014008Y-47059264D01*
X100992801Y-47060901D01*
X100974184Y-47070823D01*
X100958280Y-47088949D01*
X100952420Y-47099026D01*
X100947205Y-47110025D01*
X100943676Y-47120680D01*
X100941412Y-47133285D01*
X100939995Y-47150132D01*
X100939050Y-47172227D01*
X100887636Y-47172227D01*
X100889830Y-47141218D01*
X100898027Y-47104402D01*
X100911266Y-47072167D01*
X100929220Y-47045879D01*
X100933102Y-47041705D01*
X100956802Y-47023397D01*
X100983877Y-47012659D01*
X101013016Y-47009706D01*
X101042908Y-47014753D01*
G37*
G36*
X101711135Y-41372663D02*
G01*
X101711626Y-41385064D01*
X101712092Y-41405020D01*
X101712527Y-41431948D01*
X101712926Y-41465266D01*
X101713285Y-41504392D01*
X101713597Y-41548742D01*
X101713858Y-41597736D01*
X101714065Y-41650789D01*
X101714210Y-41707321D01*
X101714291Y-41766747D01*
X101714306Y-41806246D01*
X101714306Y-42244091D01*
X101699687Y-42248916D01*
X101680060Y-42259668D01*
X101665735Y-42277256D01*
X101656666Y-42301745D01*
X101653604Y-42321068D01*
X101651086Y-42347228D01*
X101445358Y-42348361D01*
X101403856Y-42348520D01*
X101365076Y-42348538D01*
X101329877Y-42348423D01*
X101299120Y-42348184D01*
X101273664Y-42347828D01*
X101254369Y-42347367D01*
X101242098Y-42346809D01*
X101237716Y-42346180D01*
X101237072Y-42339711D01*
X101237917Y-42327016D01*
X101239929Y-42310405D01*
X101242786Y-42292181D01*
X101246167Y-42274651D01*
X101249722Y-42260206D01*
X101255522Y-42243957D01*
X101263822Y-42227364D01*
X101275174Y-42209812D01*
X101290134Y-42190683D01*
X101309253Y-42169363D01*
X101333084Y-42145234D01*
X101362181Y-42117683D01*
X101397097Y-42086092D01*
X101438383Y-42049846D01*
X101439331Y-42049022D01*
X101464977Y-42026475D01*
X101489656Y-42004247D01*
X101512229Y-41983405D01*
X101531556Y-41965015D01*
X101546499Y-41950146D01*
X101555842Y-41939953D01*
X101574321Y-41915473D01*
X101590912Y-41888809D01*
X101605812Y-41859261D01*
X101619214Y-41826126D01*
X101631314Y-41788705D01*
X101642310Y-41746298D01*
X101652394Y-41698202D01*
X101661765Y-41643718D01*
X101670616Y-41582145D01*
X101679144Y-41512782D01*
X101681895Y-41488301D01*
X101686006Y-41452276D01*
X101689628Y-41424052D01*
X101692974Y-41402735D01*
X101696257Y-41387436D01*
X101699691Y-41377262D01*
X101703490Y-41371324D01*
X101707866Y-41368726D01*
X101710621Y-41368400D01*
X101711135Y-41372663D01*
G37*
G36*
X104785699Y-47011354D02*
G01*
X104814922Y-47019835D01*
X104817483Y-47020990D01*
X104840362Y-47036308D01*
X104859342Y-47058562D01*
X104874137Y-47086758D01*
X104884466Y-47119897D01*
X104890045Y-47156981D01*
X104890590Y-47197015D01*
X104885817Y-47239001D01*
X104883212Y-47252266D01*
X104873191Y-47283328D01*
X104857837Y-47311066D01*
X104838361Y-47333710D01*
X104817232Y-47348843D01*
X104801999Y-47353894D01*
X104781769Y-47356829D01*
X104760041Y-47357480D01*
X104740320Y-47355681D01*
X104729945Y-47353011D01*
X104705372Y-47339278D01*
X104684332Y-47318143D01*
X104667322Y-47290386D01*
X104654844Y-47256779D01*
X104648475Y-47226324D01*
X104647094Y-47208217D01*
X104697421Y-47208217D01*
X104700520Y-47237428D01*
X104707016Y-47260852D01*
X104717169Y-47279712D01*
X104721460Y-47285254D01*
X104738952Y-47300529D01*
X104758605Y-47308416D01*
X104778837Y-47308647D01*
X104798069Y-47300951D01*
X104801107Y-47298850D01*
X104817351Y-47282820D01*
X104829072Y-47261738D01*
X104836494Y-47234852D01*
X104839844Y-47201407D01*
X104839754Y-47169703D01*
X104838571Y-47147494D01*
X104836582Y-47131181D01*
X104833223Y-47117946D01*
X104827935Y-47104967D01*
X104826097Y-47101129D01*
X104813907Y-47080891D01*
X104799973Y-47067965D01*
X104782488Y-47060944D01*
X104772356Y-47059264D01*
X104751142Y-47060891D01*
X104732566Y-47070785D01*
X104716760Y-47088862D01*
X104710900Y-47099026D01*
X104705694Y-47110208D01*
X104702158Y-47121207D01*
X104699865Y-47134336D01*
X104698390Y-47151911D01*
X104697463Y-47171997D01*
X104697421Y-47208217D01*
X104647094Y-47208217D01*
X104645467Y-47186869D01*
X104647664Y-47147823D01*
X104654710Y-47111050D01*
X104666251Y-47078416D01*
X104681824Y-47051918D01*
X104702755Y-47031307D01*
X104728073Y-47017441D01*
X104756235Y-47010673D01*
X104785699Y-47011354D01*
G37*
G36*
X97864000Y-47180139D02*
G01*
X97873974Y-47216674D01*
X97883158Y-47250588D01*
X97891306Y-47280958D01*
X97898177Y-47306861D01*
X97903525Y-47327378D01*
X97907107Y-47341586D01*
X97908678Y-47348563D01*
X97908725Y-47349091D01*
X97904413Y-47351209D01*
X97893967Y-47353023D01*
X97884249Y-47353849D01*
X97860402Y-47355151D01*
X97853914Y-47332048D01*
X97849100Y-47314595D01*
X97844372Y-47296971D01*
X97842625Y-47290276D01*
X97837822Y-47271604D01*
X97789243Y-47272835D01*
X97740663Y-47274066D01*
X97734709Y-47298046D01*
X97730452Y-47315020D01*
X97726261Y-47331455D01*
X97724466Y-47338377D01*
X97720177Y-47354727D01*
X97693719Y-47354727D01*
X97678322Y-47354182D01*
X97670523Y-47352391D01*
X97669197Y-47349277D01*
X97670743Y-47343985D01*
X97674327Y-47331223D01*
X97679688Y-47311928D01*
X97686566Y-47287042D01*
X97694702Y-47257507D01*
X97703836Y-47224260D01*
X97703955Y-47223825D01*
X97755394Y-47223825D01*
X97759512Y-47226090D01*
X97770934Y-47227633D01*
X97788258Y-47228277D01*
X97790783Y-47228286D01*
X97808279Y-47228095D01*
X97818664Y-47227281D01*
X97823540Y-47225476D01*
X97824514Y-47222313D01*
X97824187Y-47220655D01*
X97822463Y-47213795D01*
X97819102Y-47200238D01*
X97814543Y-47181758D01*
X97809223Y-47160128D01*
X97807492Y-47153075D01*
X97802034Y-47131617D01*
X97797073Y-47113557D01*
X97793053Y-47100409D01*
X97790419Y-47093683D01*
X97789888Y-47093125D01*
X97788076Y-47097070D01*
X97784677Y-47107732D01*
X97780156Y-47123356D01*
X97774978Y-47142181D01*
X97769606Y-47162451D01*
X97764504Y-47182408D01*
X97760136Y-47200293D01*
X97756966Y-47214350D01*
X97755457Y-47222820D01*
X97755394Y-47223825D01*
X97703955Y-47223825D01*
X97713707Y-47188243D01*
X97716173Y-47179235D01*
X97761212Y-47014644D01*
X97789929Y-47014644D01*
X97818646Y-47014644D01*
X97864000Y-47180139D01*
G37*
G36*
X98936452Y-47177056D02*
G01*
X98946443Y-47213456D01*
X98955769Y-47247404D01*
X98964163Y-47277937D01*
X98971362Y-47304089D01*
X98977099Y-47324899D01*
X98981110Y-47339402D01*
X98983129Y-47346635D01*
X98983262Y-47347097D01*
X98983472Y-47351341D01*
X98979745Y-47353651D01*
X98970318Y-47354589D01*
X98959225Y-47354727D01*
X98932939Y-47354727D01*
X98928652Y-47338377D01*
X98925049Y-47324405D01*
X98920668Y-47307091D01*
X98918409Y-47298046D01*
X98912455Y-47274066D01*
X98863874Y-47272835D01*
X98815294Y-47271604D01*
X98810493Y-47290276D01*
X98806334Y-47306026D01*
X98801368Y-47324275D01*
X98799265Y-47331837D01*
X98792839Y-47354727D01*
X98769707Y-47354727D01*
X98756349Y-47354353D01*
X98746997Y-47353395D01*
X98744423Y-47352574D01*
X98745070Y-47348041D01*
X98747819Y-47336011D01*
X98752440Y-47317390D01*
X98758697Y-47293083D01*
X98766356Y-47263994D01*
X98775184Y-47231028D01*
X98776582Y-47225884D01*
X98827963Y-47225884D01*
X98831978Y-47227000D01*
X98842649Y-47227840D01*
X98857913Y-47228262D01*
X98862843Y-47228286D01*
X98881795Y-47227825D01*
X98893015Y-47226345D01*
X98897447Y-47223697D01*
X98897605Y-47222836D01*
X98896462Y-47214864D01*
X98893542Y-47201448D01*
X98889303Y-47184231D01*
X98884206Y-47164857D01*
X98878710Y-47144970D01*
X98873272Y-47126214D01*
X98868355Y-47110232D01*
X98864415Y-47098669D01*
X98861913Y-47093167D01*
X98861371Y-47093125D01*
X98859539Y-47099230D01*
X98856168Y-47111739D01*
X98851717Y-47128830D01*
X98846643Y-47148682D01*
X98841406Y-47169472D01*
X98836463Y-47189381D01*
X98832274Y-47206585D01*
X98829295Y-47219265D01*
X98827987Y-47225596D01*
X98827963Y-47225884D01*
X98776582Y-47225884D01*
X98784947Y-47195090D01*
X98788387Y-47182540D01*
X98834503Y-47014658D01*
X98863197Y-47014651D01*
X98891891Y-47014644D01*
X98936452Y-47177056D01*
G37*
G36*
X101888194Y-47177056D02*
G01*
X101898185Y-47213456D01*
X101907511Y-47247404D01*
X101915905Y-47277937D01*
X101923104Y-47304089D01*
X101928841Y-47324899D01*
X101932852Y-47339402D01*
X101934871Y-47346635D01*
X101935004Y-47347097D01*
X101935214Y-47351341D01*
X101931487Y-47353651D01*
X101922061Y-47354589D01*
X101910968Y-47354727D01*
X101884682Y-47354727D01*
X101880394Y-47338377D01*
X101876791Y-47324405D01*
X101872410Y-47307091D01*
X101870151Y-47298046D01*
X101864197Y-47274066D01*
X101815618Y-47272835D01*
X101767039Y-47271604D01*
X101762712Y-47288095D01*
X101759087Y-47302162D01*
X101754693Y-47319542D01*
X101752442Y-47328567D01*
X101746498Y-47352547D01*
X101722599Y-47353827D01*
X101708985Y-47354142D01*
X101699293Y-47353593D01*
X101696357Y-47352765D01*
X101696962Y-47348189D01*
X101699674Y-47336119D01*
X101704261Y-47317461D01*
X101710490Y-47293121D01*
X101718127Y-47264005D01*
X101726941Y-47231019D01*
X101728335Y-47225884D01*
X101779707Y-47225884D01*
X101783722Y-47227000D01*
X101794393Y-47227840D01*
X101809657Y-47228262D01*
X101814586Y-47228286D01*
X101833537Y-47227825D01*
X101844757Y-47226345D01*
X101849189Y-47223697D01*
X101849347Y-47222836D01*
X101848204Y-47214864D01*
X101845284Y-47201448D01*
X101841045Y-47184231D01*
X101835948Y-47164857D01*
X101830452Y-47144970D01*
X101825015Y-47126214D01*
X101820099Y-47110232D01*
X101816159Y-47098669D01*
X101813656Y-47093167D01*
X101813115Y-47093125D01*
X101811283Y-47099230D01*
X101807912Y-47111739D01*
X101803460Y-47128830D01*
X101798387Y-47148682D01*
X101793150Y-47169472D01*
X101788207Y-47189381D01*
X101784017Y-47206585D01*
X101781039Y-47219265D01*
X101779730Y-47225596D01*
X101779707Y-47225884D01*
X101728335Y-47225884D01*
X101736697Y-47195069D01*
X101740131Y-47182540D01*
X101786247Y-47014658D01*
X101814941Y-47014651D01*
X101843633Y-47014644D01*
X101888194Y-47177056D01*
G37*
G36*
X102048211Y-41373027D02*
G01*
X102050168Y-41374538D01*
X102051957Y-41378015D01*
X102053715Y-41384244D01*
X102055582Y-41394010D01*
X102057698Y-41408097D01*
X102060202Y-41427292D01*
X102063232Y-41452380D01*
X102066930Y-41484146D01*
X102071432Y-41523376D01*
X102074158Y-41547162D01*
X102082770Y-41615561D01*
X102092078Y-41676030D01*
X102102285Y-41729346D01*
X102113594Y-41776284D01*
X102126208Y-41817621D01*
X102140329Y-41854134D01*
X102156158Y-41886597D01*
X102167983Y-41906726D01*
X102181274Y-41924754D01*
X102200956Y-41947144D01*
X102226325Y-41973193D01*
X102256674Y-42002194D01*
X102291298Y-42033446D01*
X102318169Y-42056681D01*
X102352423Y-42086556D01*
X102384658Y-42116125D01*
X102413912Y-42144426D01*
X102439224Y-42170494D01*
X102459629Y-42193369D01*
X102474166Y-42212084D01*
X102475632Y-42214247D01*
X102491713Y-42243574D01*
X102502861Y-42276307D01*
X102509763Y-42314568D01*
X102510568Y-42321809D01*
X102513395Y-42349408D01*
X102306254Y-42349408D01*
X102099114Y-42349408D01*
X102096067Y-42322480D01*
X102090079Y-42293077D01*
X102079441Y-42270848D01*
X102063909Y-42255439D01*
X102043317Y-42246515D01*
X102031339Y-42243508D01*
X102034143Y-42197680D01*
X102034562Y-42186462D01*
X102034962Y-42167242D01*
X102035338Y-42140740D01*
X102035686Y-42107671D01*
X102036002Y-42068755D01*
X102036280Y-42024710D01*
X102036516Y-41976254D01*
X102036705Y-41924105D01*
X102036843Y-41868982D01*
X102036925Y-41811603D01*
X102036947Y-41762305D01*
X102036961Y-41694286D01*
X102037011Y-41634480D01*
X102037103Y-41582380D01*
X102037246Y-41537477D01*
X102037448Y-41499265D01*
X102037718Y-41467238D01*
X102038063Y-41440887D01*
X102038492Y-41419705D01*
X102039013Y-41403185D01*
X102039634Y-41390820D01*
X102040364Y-41382103D01*
X102041209Y-41376525D01*
X102042180Y-41373580D01*
X102043230Y-41372760D01*
X102045944Y-41372696D01*
X102048211Y-41373027D01*
G37*
G36*
X102882046Y-47015013D02*
G01*
X102906301Y-47016346D01*
X102925026Y-47018983D01*
X102939804Y-47023266D01*
X102952219Y-47029532D01*
X102963855Y-47038123D01*
X102965154Y-47039224D01*
X102982144Y-47059125D01*
X102992822Y-47083089D01*
X102997288Y-47109325D01*
X102995635Y-47136040D01*
X102987964Y-47161440D01*
X102974368Y-47183735D01*
X102956473Y-47200124D01*
X102936858Y-47213383D01*
X102968455Y-47280785D01*
X102978862Y-47303137D01*
X102987852Y-47322746D01*
X102994816Y-47338251D01*
X102999139Y-47348293D01*
X103000284Y-47351457D01*
X102996632Y-47353691D01*
X102987106Y-47354746D01*
X102974458Y-47354728D01*
X102961437Y-47353749D01*
X102950793Y-47351917D01*
X102945278Y-47349340D01*
X102945237Y-47349277D01*
X102942331Y-47343539D01*
X102936630Y-47331349D01*
X102928837Y-47314242D01*
X102919654Y-47293753D01*
X102914791Y-47282786D01*
X102887818Y-47221746D01*
X102861326Y-47220448D01*
X102834833Y-47219149D01*
X102834833Y-47286938D01*
X102834833Y-47354727D01*
X102813760Y-47354727D01*
X102800844Y-47354170D01*
X102791848Y-47352757D01*
X102789780Y-47351820D01*
X102789131Y-47346953D01*
X102788533Y-47334331D01*
X102788002Y-47314918D01*
X102787555Y-47289679D01*
X102787206Y-47259580D01*
X102786974Y-47225584D01*
X102786875Y-47188657D01*
X102786873Y-47181778D01*
X102786873Y-47171605D01*
X102834833Y-47171605D01*
X102872983Y-47171589D01*
X102893984Y-47171098D01*
X102908660Y-47169395D01*
X102919371Y-47166097D01*
X102924855Y-47163206D01*
X102937567Y-47150748D01*
X102945226Y-47133539D01*
X102947594Y-47114102D01*
X102944428Y-47094959D01*
X102935488Y-47078632D01*
X102933169Y-47076109D01*
X102927257Y-47070867D01*
X102920761Y-47067440D01*
X102911623Y-47065349D01*
X102897784Y-47064112D01*
X102878344Y-47063286D01*
X102834833Y-47061787D01*
X102834833Y-47116696D01*
X102834833Y-47171605D01*
X102786873Y-47171605D01*
X102786873Y-47116696D01*
X102786873Y-47014644D01*
X102850678Y-47014644D01*
X102882046Y-47015013D01*
G37*
G36*
X102105557Y-47011373D02*
G01*
X102125694Y-47014999D01*
X102145262Y-47024262D01*
X102164062Y-47039904D01*
X102179866Y-47059707D01*
X102189387Y-47078435D01*
X102195877Y-47096875D01*
X102198335Y-47108740D01*
X102196169Y-47115469D01*
X102188788Y-47118501D01*
X102175600Y-47119275D01*
X102172581Y-47119285D01*
X102158126Y-47119000D01*
X102150066Y-47117510D01*
X102146077Y-47113865D01*
X102143950Y-47107561D01*
X102134992Y-47087367D01*
X102120312Y-47071376D01*
X102101820Y-47061176D01*
X102084693Y-47058244D01*
X102062790Y-47062203D01*
X102044425Y-47073756D01*
X102029851Y-47092420D01*
X102019319Y-47117713D01*
X102013083Y-47149152D01*
X102011393Y-47186254D01*
X102011778Y-47197762D01*
X102015985Y-47234110D01*
X102024573Y-47263744D01*
X102037376Y-47286368D01*
X102054231Y-47301687D01*
X102073852Y-47309205D01*
X102094824Y-47309012D01*
X102114395Y-47301391D01*
X102130666Y-47287620D01*
X102141738Y-47268977D01*
X102143901Y-47262076D01*
X102146139Y-47255416D01*
X102150139Y-47251828D01*
X102158202Y-47250367D01*
X102172626Y-47250086D01*
X102173066Y-47250086D01*
X102199239Y-47250086D01*
X102196207Y-47266436D01*
X102187010Y-47294616D01*
X102171196Y-47319550D01*
X102150168Y-47339527D01*
X102125330Y-47352836D01*
X102125247Y-47352866D01*
X102106239Y-47356996D01*
X102083186Y-47358243D01*
X102060281Y-47356579D01*
X102045667Y-47353387D01*
X102029605Y-47344998D01*
X102012383Y-47330587D01*
X101995972Y-47312266D01*
X101982347Y-47292149D01*
X101975585Y-47278291D01*
X101971549Y-47267394D01*
X101968710Y-47257048D01*
X101966863Y-47245390D01*
X101965800Y-47230555D01*
X101965316Y-47210683D01*
X101965204Y-47184685D01*
X101965324Y-47158085D01*
X101965824Y-47138344D01*
X101966908Y-47123602D01*
X101968780Y-47112001D01*
X101971646Y-47101680D01*
X101975503Y-47091298D01*
X101988191Y-47066983D01*
X102005235Y-47044826D01*
X102024574Y-47027187D01*
X102039127Y-47018442D01*
X102057824Y-47012985D01*
X102081161Y-47010581D01*
X102105557Y-47011373D01*
G37*
G36*
X100204644Y-47014687D02*
G01*
X100234074Y-47014729D01*
X100278927Y-47179278D01*
X100288846Y-47215820D01*
X100297995Y-47249830D01*
X100306129Y-47280365D01*
X100312999Y-47306485D01*
X100318359Y-47327249D01*
X100321962Y-47341714D01*
X100323559Y-47348941D01*
X100323617Y-47349494D01*
X100320745Y-47352819D01*
X100311553Y-47354125D01*
X100298639Y-47353855D01*
X100273823Y-47352547D01*
X100267879Y-47328567D01*
X100263627Y-47311592D01*
X100259441Y-47295156D01*
X100257646Y-47288236D01*
X100253358Y-47271886D01*
X100205429Y-47271886D01*
X100182139Y-47272227D01*
X100166660Y-47273312D01*
X100158109Y-47275240D01*
X100155696Y-47277337D01*
X100153813Y-47283862D01*
X100150372Y-47296481D01*
X100146010Y-47312848D01*
X100144455Y-47318756D01*
X100135018Y-47354727D01*
X100109335Y-47354727D01*
X100095679Y-47354459D01*
X100086364Y-47353765D01*
X100083653Y-47352990D01*
X100084772Y-47348545D01*
X100087966Y-47336603D01*
X100092985Y-47318070D01*
X100099584Y-47293854D01*
X100107515Y-47264862D01*
X100116529Y-47232001D01*
X100117551Y-47228286D01*
X100167946Y-47228286D01*
X100204279Y-47228286D01*
X100220847Y-47228020D01*
X100233455Y-47227311D01*
X100240082Y-47226294D01*
X100240614Y-47225884D01*
X100239549Y-47220122D01*
X100236675Y-47207812D01*
X100232476Y-47190818D01*
X100227438Y-47171003D01*
X100222043Y-47150229D01*
X100216777Y-47130360D01*
X100212122Y-47113258D01*
X100208563Y-47100786D01*
X100206584Y-47094807D01*
X100206528Y-47094698D01*
X100204523Y-47096857D01*
X100200875Y-47106229D01*
X100195991Y-47121558D01*
X100190281Y-47141581D01*
X100185732Y-47158804D01*
X100167946Y-47228286D01*
X100117551Y-47228286D01*
X100126381Y-47196179D01*
X100129433Y-47185097D01*
X100139488Y-47148551D01*
X100148779Y-47114680D01*
X100157059Y-47084393D01*
X100164080Y-47058601D01*
X100169595Y-47038215D01*
X100173355Y-47024144D01*
X100175113Y-47017299D01*
X100175214Y-47016793D01*
X100179199Y-47015722D01*
X100189656Y-47014966D01*
X100204340Y-47014686D01*
X100204644Y-47014687D01*
G37*
G36*
X101306589Y-47012696D02*
G01*
X101330178Y-47020483D01*
X101347447Y-47031091D01*
X101361715Y-47046103D01*
X101372592Y-47065849D01*
X101378148Y-47086540D01*
X101378488Y-47092035D01*
X101378584Y-47106205D01*
X101355580Y-47106205D01*
X101342061Y-47105878D01*
X101334235Y-47103716D01*
X101329076Y-47097944D01*
X101323970Y-47087674D01*
X101311591Y-47069565D01*
X101295082Y-47059041D01*
X101274997Y-47056381D01*
X101264612Y-47057896D01*
X101251010Y-47062663D01*
X101240160Y-47069374D01*
X101237972Y-47071588D01*
X101231983Y-47084901D01*
X101230755Y-47101511D01*
X101234326Y-47117386D01*
X101237482Y-47123178D01*
X101244208Y-47129016D01*
X101257321Y-47137353D01*
X101275201Y-47147239D01*
X101296222Y-47157724D01*
X101297432Y-47158297D01*
X101326654Y-47173012D01*
X101348578Y-47186419D01*
X101364327Y-47199480D01*
X101375023Y-47213158D01*
X101381785Y-47228414D01*
X101382681Y-47231437D01*
X101386447Y-47259697D01*
X101382560Y-47286999D01*
X101371767Y-47311843D01*
X101354816Y-47332728D01*
X101332455Y-47348153D01*
X101322445Y-47352360D01*
X101299252Y-47357421D01*
X101272928Y-47358378D01*
X101247802Y-47355244D01*
X101236966Y-47352119D01*
X101213650Y-47339164D01*
X101194044Y-47319553D01*
X101179511Y-47295030D01*
X101171620Y-47268616D01*
X101168535Y-47250086D01*
X101193988Y-47250109D01*
X101219442Y-47250132D01*
X101225982Y-47270755D01*
X101236288Y-47290899D01*
X101252056Y-47304307D01*
X101272820Y-47310643D01*
X101281414Y-47311126D01*
X101304297Y-47308073D01*
X101321002Y-47299060D01*
X101331281Y-47284307D01*
X101334884Y-47264035D01*
X101334886Y-47263820D01*
X101332715Y-47248917D01*
X101325448Y-47235821D01*
X101312200Y-47223719D01*
X101292089Y-47211794D01*
X101265305Y-47199676D01*
X101232104Y-47183639D01*
X101207330Y-47166360D01*
X101190754Y-47147642D01*
X101182861Y-47130185D01*
X101178259Y-47099951D01*
X101181442Y-47072939D01*
X101191845Y-47049859D01*
X101208904Y-47031421D01*
X101232052Y-47018334D01*
X101260726Y-47011308D01*
X101278303Y-47010284D01*
X101306589Y-47012696D01*
G37*
G36*
X101639497Y-42757198D02*
G01*
X101644606Y-42761505D01*
X101647903Y-42771304D01*
X101648041Y-42788011D01*
X101645267Y-42810499D01*
X101639824Y-42837647D01*
X101631957Y-42868333D01*
X101621911Y-42901431D01*
X101609929Y-42935820D01*
X101602374Y-42955453D01*
X101567311Y-43035029D01*
X101524291Y-43117833D01*
X101473300Y-43203883D01*
X101414326Y-43293201D01*
X101347353Y-43385809D01*
X101272369Y-43481724D01*
X101189359Y-43580968D01*
X101141488Y-43635616D01*
X101121335Y-43657719D01*
X101095736Y-43684901D01*
X101065594Y-43716265D01*
X101031812Y-43750912D01*
X100995294Y-43787944D01*
X100956940Y-43826463D01*
X100917656Y-43865569D01*
X100878343Y-43904365D01*
X100839903Y-43941952D01*
X100803240Y-43977433D01*
X100769256Y-44009907D01*
X100738854Y-44038477D01*
X100712937Y-44062246D01*
X100711498Y-44063542D01*
X100688347Y-44084427D01*
X100667119Y-44103712D01*
X100648750Y-44120539D01*
X100634175Y-44134043D01*
X100624330Y-44143366D01*
X100620296Y-44147458D01*
X100613643Y-44154522D01*
X100606960Y-44158238D01*
X100598670Y-44158393D01*
X100587197Y-44154770D01*
X100570966Y-44147156D01*
X100554275Y-44138459D01*
X100417912Y-44061244D01*
X100286500Y-43976864D01*
X100159983Y-43885281D01*
X100038310Y-43786454D01*
X99921425Y-43680345D01*
X99900703Y-43660286D01*
X99842014Y-43602916D01*
X99898523Y-43599712D01*
X99997021Y-43590532D01*
X100099477Y-43574052D01*
X100205394Y-43550469D01*
X100314277Y-43519983D01*
X100425632Y-43482791D01*
X100538964Y-43439091D01*
X100653777Y-43389082D01*
X100769578Y-43332961D01*
X100885869Y-43270926D01*
X101002157Y-43203176D01*
X101117947Y-43129909D01*
X101184562Y-43085049D01*
X101239968Y-43046140D01*
X101298271Y-43003831D01*
X101357173Y-42959851D01*
X101414381Y-42915924D01*
X101467598Y-42873778D01*
X101493577Y-42852607D01*
X101516878Y-42833449D01*
X101539493Y-42814950D01*
X101559997Y-42798267D01*
X101576970Y-42784556D01*
X101588989Y-42774973D01*
X101590971Y-42773422D01*
X101610699Y-42760522D01*
X101626973Y-42755092D01*
X101639497Y-42757198D01*
G37*
G36*
X105065260Y-47011547D02*
G01*
X105077087Y-47014757D01*
X105090530Y-47020690D01*
X105091262Y-47021047D01*
X105113050Y-47035128D01*
X105129886Y-47054138D01*
X105142549Y-47079224D01*
X105151369Y-47109475D01*
X105152013Y-47114772D01*
X105149743Y-47117710D01*
X105142741Y-47118983D01*
X105129194Y-47119281D01*
X105125623Y-47119285D01*
X105110086Y-47118892D01*
X105101477Y-47117418D01*
X105098031Y-47114416D01*
X105097691Y-47112249D01*
X105094530Y-47100159D01*
X105086524Y-47086135D01*
X105075890Y-47073358D01*
X105064846Y-47065009D01*
X105064708Y-47064943D01*
X105042695Y-47058731D01*
X105021627Y-47060807D01*
X105002584Y-47070737D01*
X104986651Y-47088090D01*
X104980633Y-47098510D01*
X104970990Y-47124445D01*
X104965437Y-47153734D01*
X104963788Y-47184634D01*
X104965855Y-47215406D01*
X104971451Y-47244311D01*
X104980390Y-47269609D01*
X104992485Y-47289559D01*
X105002176Y-47299006D01*
X105020263Y-47307589D01*
X105041164Y-47310049D01*
X105061148Y-47306026D01*
X105063670Y-47304921D01*
X105075427Y-47296313D01*
X105086488Y-47283347D01*
X105094645Y-47269127D01*
X105097691Y-47257123D01*
X105099333Y-47253099D01*
X105105454Y-47250930D01*
X105117854Y-47250131D01*
X105123852Y-47250086D01*
X105138334Y-47250283D01*
X105146142Y-47251501D01*
X105149323Y-47254683D01*
X105149923Y-47260769D01*
X105149917Y-47262076D01*
X105147129Y-47277127D01*
X105140014Y-47295212D01*
X105130147Y-47312947D01*
X105120325Y-47325696D01*
X105098885Y-47342823D01*
X105072779Y-47353434D01*
X105043191Y-47357829D01*
X105024565Y-47358247D01*
X105010592Y-47356546D01*
X104997327Y-47352067D01*
X104990692Y-47349043D01*
X104965791Y-47332399D01*
X104945581Y-47308840D01*
X104930299Y-47278945D01*
X104920183Y-47243296D01*
X104915468Y-47202472D01*
X104915802Y-47165509D01*
X104921230Y-47122462D01*
X104932081Y-47086087D01*
X104948467Y-47056138D01*
X104970499Y-47032371D01*
X104979233Y-47025699D01*
X104990323Y-47018722D01*
X105000941Y-47014498D01*
X105014166Y-47012177D01*
X105032737Y-47010925D01*
X105051619Y-47010467D01*
X105065260Y-47011547D01*
G37*
G36*
X104529544Y-47013782D02*
G01*
X104549770Y-47019355D01*
X104554867Y-47021660D01*
X104574283Y-47036160D01*
X104589400Y-47056177D01*
X104598316Y-47078969D01*
X104599515Y-47086093D01*
X104601781Y-47106205D01*
X104577097Y-47106205D01*
X104562286Y-47105644D01*
X104554079Y-47103573D01*
X104550414Y-47099407D01*
X104550131Y-47098575D01*
X104540298Y-47077303D01*
X104525971Y-47063224D01*
X104507698Y-47056687D01*
X104486677Y-47057896D01*
X104468285Y-47065027D01*
X104457080Y-47076868D01*
X104452555Y-47094017D01*
X104452407Y-47098584D01*
X104454263Y-47111087D01*
X104460463Y-47122326D01*
X104471951Y-47133124D01*
X104489670Y-47144302D01*
X104514563Y-47156681D01*
X104524020Y-47160952D01*
X104552651Y-47174749D01*
X104573920Y-47187915D01*
X104588989Y-47201645D01*
X104599021Y-47217135D01*
X104605181Y-47235580D01*
X104607198Y-47246452D01*
X104607326Y-47274628D01*
X104599609Y-47301097D01*
X104584683Y-47324063D01*
X104576906Y-47331805D01*
X104562932Y-47342350D01*
X104548171Y-47350843D01*
X104540449Y-47353960D01*
X104517125Y-47358016D01*
X104490801Y-47358103D01*
X104466085Y-47354328D01*
X104458402Y-47352021D01*
X104435260Y-47339406D01*
X104415784Y-47320096D01*
X104401304Y-47295796D01*
X104393170Y-47268340D01*
X104390251Y-47250086D01*
X104416969Y-47250086D01*
X104431747Y-47250380D01*
X104439800Y-47251707D01*
X104443114Y-47254729D01*
X104443687Y-47259022D01*
X104447737Y-47276655D01*
X104458702Y-47292112D01*
X104474797Y-47303851D01*
X104494238Y-47310325D01*
X104503853Y-47311111D01*
X104526469Y-47307994D01*
X104542982Y-47298708D01*
X104553224Y-47283414D01*
X104557026Y-47262272D01*
X104557047Y-47260345D01*
X104554377Y-47246719D01*
X104545882Y-47234063D01*
X104530834Y-47221754D01*
X104508506Y-47209174D01*
X104484137Y-47198171D01*
X104454352Y-47184070D01*
X104432260Y-47169694D01*
X104416856Y-47154170D01*
X104407132Y-47136625D01*
X104404760Y-47129404D01*
X104400358Y-47099934D01*
X104403748Y-47073040D01*
X104414466Y-47049646D01*
X104432043Y-47030680D01*
X104456013Y-47017066D01*
X104462614Y-47014714D01*
X104482267Y-47011183D01*
X104505810Y-47010965D01*
X104529544Y-47013782D01*
G37*
G36*
X98354837Y-47013130D02*
G01*
X98378249Y-47021781D01*
X98399095Y-47037457D01*
X98408165Y-47046977D01*
X98423706Y-47068384D01*
X98434975Y-47093092D01*
X98442463Y-47122632D01*
X98446657Y-47158532D01*
X98447284Y-47169425D01*
X98446754Y-47213525D01*
X98440938Y-47252893D01*
X98430057Y-47286810D01*
X98414330Y-47314559D01*
X98396842Y-47333156D01*
X98381812Y-47345546D01*
X98413019Y-47383927D01*
X98425451Y-47399485D01*
X98435537Y-47412621D01*
X98442166Y-47421850D01*
X98444254Y-47425577D01*
X98440293Y-47427253D01*
X98429917Y-47428432D01*
X98416315Y-47428847D01*
X98388352Y-47428847D01*
X98359739Y-47394542D01*
X98346492Y-47378933D01*
X98336882Y-47368786D01*
X98329096Y-47362756D01*
X98321317Y-47359499D01*
X98311733Y-47357673D01*
X98309557Y-47357377D01*
X98287246Y-47350963D01*
X98264717Y-47338721D01*
X98245361Y-47322761D01*
X98236366Y-47311812D01*
X98224937Y-47292781D01*
X98216767Y-47273793D01*
X98211375Y-47252818D01*
X98208284Y-47227825D01*
X98207017Y-47196788D01*
X98206924Y-47186866D01*
X98207297Y-47170310D01*
X98254741Y-47170310D01*
X98254749Y-47180326D01*
X98255269Y-47202399D01*
X98256575Y-47223102D01*
X98258456Y-47239792D01*
X98260189Y-47248337D01*
X98270797Y-47273258D01*
X98285421Y-47292184D01*
X98302983Y-47304578D01*
X98322408Y-47309907D01*
X98342620Y-47307634D01*
X98360860Y-47298458D01*
X98375209Y-47283382D01*
X98386628Y-47261536D01*
X98394736Y-47234494D01*
X98399146Y-47203825D01*
X98399478Y-47171101D01*
X98397303Y-47149337D01*
X98390103Y-47116609D01*
X98379025Y-47091334D01*
X98363842Y-47073051D01*
X98357524Y-47068223D01*
X98337699Y-47059296D01*
X98318008Y-47058753D01*
X98299233Y-47066285D01*
X98282152Y-47081579D01*
X98267698Y-47104025D01*
X98261995Y-47116003D01*
X98258249Y-47126252D01*
X98256060Y-47137141D01*
X98255025Y-47151037D01*
X98254741Y-47170310D01*
X98207297Y-47170310D01*
X98207759Y-47149814D01*
X98210916Y-47119662D01*
X98216832Y-47094796D01*
X98225945Y-47073601D01*
X98238694Y-47054464D01*
X98244883Y-47047057D01*
X98265340Y-47027887D01*
X98287304Y-47016211D01*
X98313089Y-47010993D01*
X98326558Y-47010475D01*
X98354837Y-47013130D01*
G37*
G36*
X101801944Y-42799262D02*
G01*
X101812561Y-42802523D01*
X101818971Y-42809701D01*
X101822201Y-42822220D01*
X101823287Y-42841507D01*
X101823350Y-42850033D01*
X101823274Y-42860520D01*
X101823035Y-42879151D01*
X101822646Y-42905354D01*
X101822117Y-42938555D01*
X101821459Y-42978180D01*
X101820684Y-43023656D01*
X101819800Y-43074410D01*
X101818819Y-43129866D01*
X101817752Y-43189454D01*
X101816610Y-43252600D01*
X101815404Y-43318729D01*
X101814144Y-43387268D01*
X101812840Y-43457644D01*
X101811505Y-43529284D01*
X101810149Y-43601613D01*
X101808783Y-43674058D01*
X101807416Y-43746046D01*
X101806061Y-43817003D01*
X101804728Y-43886357D01*
X101803427Y-43953532D01*
X101802170Y-44017957D01*
X101800967Y-44079058D01*
X101799829Y-44136260D01*
X101798767Y-44188990D01*
X101797792Y-44236676D01*
X101796914Y-44278744D01*
X101796144Y-44314619D01*
X101795494Y-44343729D01*
X101794972Y-44365500D01*
X101794591Y-44379359D01*
X101794568Y-44380093D01*
X101791834Y-44464024D01*
X101762880Y-44463199D01*
X101742324Y-44462497D01*
X101720369Y-44461572D01*
X101707766Y-44460944D01*
X101660514Y-44457624D01*
X101607051Y-44452603D01*
X101549656Y-44446173D01*
X101490609Y-44438628D01*
X101432185Y-44430260D01*
X101376667Y-44421363D01*
X101326330Y-44412229D01*
X101321903Y-44411359D01*
X101256983Y-44397448D01*
X101188402Y-44380785D01*
X101117823Y-44361881D01*
X101046909Y-44341247D01*
X100977323Y-44319393D01*
X100910728Y-44296831D01*
X100848788Y-44274071D01*
X100793165Y-44251624D01*
X100772675Y-44242676D01*
X100746088Y-44230762D01*
X100817083Y-44166802D01*
X100838878Y-44146836D01*
X100865245Y-44122143D01*
X100894638Y-44094205D01*
X100925508Y-44064504D01*
X100956307Y-44034523D01*
X100985486Y-44005744D01*
X100990132Y-44001121D01*
X101090875Y-43897927D01*
X101185181Y-43795642D01*
X101272906Y-43694487D01*
X101353906Y-43594681D01*
X101428035Y-43496441D01*
X101495149Y-43399987D01*
X101555104Y-43305538D01*
X101607754Y-43213313D01*
X101652955Y-43123531D01*
X101690562Y-43036411D01*
X101720431Y-42952170D01*
X101742417Y-42871028D01*
X101745125Y-42858670D01*
X101750238Y-42834973D01*
X101754409Y-42818491D01*
X101758533Y-42807915D01*
X101763499Y-42801934D01*
X101770201Y-42799239D01*
X101779528Y-42798520D01*
X101786089Y-42798492D01*
X101801944Y-42799262D01*
G37*
G36*
X102125072Y-42755371D02*
G01*
X102131851Y-42757305D01*
X102139885Y-42761434D01*
X102150287Y-42768499D01*
X102164176Y-42779243D01*
X102182669Y-42794405D01*
X102200621Y-42809452D01*
X102331282Y-42915727D01*
X102462484Y-43015007D01*
X102593959Y-43107151D01*
X102725441Y-43192015D01*
X102856663Y-43269464D01*
X102987358Y-43339354D01*
X103117259Y-43401545D01*
X103246100Y-43455895D01*
X103373613Y-43502263D01*
X103499531Y-43540510D01*
X103623589Y-43570495D01*
X103654520Y-43576729D01*
X103694507Y-43583746D01*
X103736732Y-43589895D01*
X103778803Y-43594906D01*
X103818332Y-43598511D01*
X103852928Y-43600439D01*
X103867072Y-43600690D01*
X103883546Y-43601158D01*
X103896052Y-43602365D01*
X103902558Y-43604082D01*
X103903042Y-43604737D01*
X103899982Y-43608865D01*
X103891423Y-43618000D01*
X103878291Y-43631255D01*
X103861513Y-43647745D01*
X103842015Y-43666582D01*
X103820725Y-43686882D01*
X103798571Y-43707757D01*
X103776478Y-43728320D01*
X103755376Y-43747687D01*
X103736189Y-43764970D01*
X103726461Y-43773553D01*
X103678174Y-43814320D01*
X103624543Y-43857087D01*
X103567187Y-43900700D01*
X103507732Y-43944004D01*
X103447801Y-43985844D01*
X103389015Y-44025062D01*
X103333000Y-44060504D01*
X103281377Y-44091014D01*
X103277377Y-44093269D01*
X103264593Y-44100353D01*
X103247920Y-44109464D01*
X103228848Y-44119802D01*
X103208865Y-44130571D01*
X103189461Y-44140969D01*
X103172125Y-44150200D01*
X103158345Y-44157465D01*
X103149611Y-44161965D01*
X103147265Y-44163044D01*
X103143886Y-44160338D01*
X103135161Y-44153047D01*
X103122371Y-44142253D01*
X103106803Y-44129034D01*
X103105156Y-44127631D01*
X103035935Y-44067125D01*
X102963966Y-44001310D01*
X102890428Y-43931398D01*
X102816502Y-43858597D01*
X102743367Y-43784117D01*
X102672202Y-43709171D01*
X102604187Y-43634967D01*
X102540502Y-43562716D01*
X102482328Y-43493629D01*
X102458771Y-43464532D01*
X102399136Y-43387442D01*
X102344097Y-43311351D01*
X102293911Y-43236738D01*
X102248835Y-43164082D01*
X102209125Y-43093862D01*
X102175037Y-43026554D01*
X102146828Y-42962638D01*
X102124754Y-42902592D01*
X102109072Y-42846895D01*
X102100037Y-42796025D01*
X102099895Y-42794794D01*
X102098923Y-42775370D01*
X102101618Y-42762979D01*
X102108489Y-42756526D01*
X102118428Y-42754891D01*
X102125072Y-42755371D01*
G37*
G36*
X101946999Y-42796305D02*
G01*
X101950750Y-42797108D01*
X101954863Y-42797946D01*
X101959351Y-42798457D01*
X101960788Y-42798492D01*
X101975158Y-42799503D01*
X101985289Y-42802142D01*
X101987891Y-42803941D01*
X101990795Y-42810574D01*
X101994643Y-42823318D01*
X101998714Y-42839729D01*
X101999717Y-42844272D01*
X102022999Y-42934312D01*
X102054651Y-43026637D01*
X102094674Y-43121253D01*
X102143073Y-43218163D01*
X102199852Y-43317377D01*
X102265012Y-43418897D01*
X102338557Y-43522729D01*
X102420492Y-43628880D01*
X102510819Y-43737352D01*
X102609541Y-43848152D01*
X102682785Y-43926203D01*
X102717489Y-43961963D01*
X102755474Y-44000244D01*
X102795317Y-44039664D01*
X102835592Y-44078841D01*
X102874873Y-44116396D01*
X102911737Y-44150946D01*
X102944755Y-44181112D01*
X102958227Y-44193105D01*
X103000960Y-44230762D01*
X102974119Y-44242972D01*
X102917815Y-44266936D01*
X102854334Y-44291038D01*
X102785200Y-44314849D01*
X102711938Y-44337937D01*
X102636073Y-44359873D01*
X102559128Y-44380225D01*
X102482629Y-44398563D01*
X102408099Y-44414457D01*
X102337063Y-44427475D01*
X102300597Y-44433173D01*
X102261510Y-44438458D01*
X102216927Y-44443807D01*
X102169363Y-44448969D01*
X102121330Y-44453691D01*
X102075344Y-44457721D01*
X102033919Y-44460808D01*
X102011877Y-44462124D01*
X101954106Y-44465143D01*
X101954106Y-44444803D01*
X101954023Y-44438386D01*
X101953782Y-44423694D01*
X101953389Y-44401173D01*
X101952853Y-44371265D01*
X101952182Y-44334415D01*
X101951386Y-44291068D01*
X101950470Y-44241666D01*
X101949445Y-44186654D01*
X101948320Y-44126477D01*
X101947100Y-44061579D01*
X101945797Y-43992403D01*
X101944415Y-43919393D01*
X101942967Y-43842994D01*
X101941458Y-43763651D01*
X101939897Y-43681806D01*
X101938708Y-43619602D01*
X101936782Y-43519741D01*
X101934996Y-43428236D01*
X101933359Y-43344727D01*
X101931881Y-43268851D01*
X101930572Y-43200247D01*
X101929442Y-43138552D01*
X101928501Y-43083408D01*
X101927757Y-43034448D01*
X101927221Y-42991312D01*
X101926903Y-42953638D01*
X101926813Y-42921065D01*
X101926960Y-42893230D01*
X101927353Y-42869773D01*
X101928002Y-42850330D01*
X101928918Y-42834539D01*
X101930110Y-42822040D01*
X101931588Y-42812471D01*
X101933361Y-42805469D01*
X101935439Y-42800673D01*
X101937833Y-42797719D01*
X101940550Y-42796249D01*
X101943603Y-42795898D01*
X101946999Y-42796305D01*
G37*
G36*
X104500465Y-39569584D02*
G01*
X104550382Y-39570015D01*
X104598433Y-39570753D01*
X104643370Y-39571793D01*
X104683941Y-39573130D01*
X104718895Y-39574760D01*
X104746981Y-39576678D01*
X104757609Y-39577693D01*
X104861261Y-39590997D01*
X104957057Y-39607600D01*
X105045248Y-39627595D01*
X105126088Y-39651074D01*
X105199830Y-39678131D01*
X105266725Y-39708859D01*
X105327028Y-39743350D01*
X105380989Y-39781697D01*
X105428862Y-39823993D01*
X105429646Y-39824768D01*
X105472600Y-39872297D01*
X105507829Y-39922409D01*
X105535569Y-39975707D01*
X105556059Y-40032793D01*
X105569536Y-40094270D01*
X105576241Y-40160740D01*
X105577129Y-40197730D01*
X105572896Y-40278333D01*
X105560232Y-40360529D01*
X105539213Y-40444008D01*
X105509917Y-40528459D01*
X105474274Y-40609754D01*
X105443075Y-40670511D01*
X105408500Y-40730303D01*
X105370107Y-40789648D01*
X105327458Y-40849058D01*
X105280112Y-40909051D01*
X105227630Y-40970143D01*
X105169573Y-41032848D01*
X105105500Y-41097682D01*
X105034972Y-41165161D01*
X104957549Y-41235799D01*
X104888410Y-41296615D01*
X104866140Y-41315897D01*
X104849599Y-41330115D01*
X104837936Y-41339929D01*
X104830300Y-41345995D01*
X104825842Y-41348975D01*
X104823709Y-41349526D01*
X104823051Y-41348308D01*
X104823010Y-41347265D01*
X104822446Y-41340271D01*
X104820900Y-41326414D01*
X104818586Y-41307325D01*
X104815721Y-41284633D01*
X104812519Y-41259969D01*
X104809195Y-41234962D01*
X104805966Y-41211241D01*
X104803046Y-41190437D01*
X104800651Y-41174180D01*
X104798998Y-41164100D01*
X104798501Y-41161840D01*
X104799021Y-41156841D01*
X104803508Y-41149133D01*
X104812629Y-41137875D01*
X104827048Y-41122221D01*
X104841493Y-41107339D01*
X104911519Y-41031853D01*
X104975408Y-40954114D01*
X105032656Y-40874866D01*
X105082760Y-40794848D01*
X105125218Y-40714804D01*
X105156820Y-40642476D01*
X105177896Y-40583043D01*
X105192856Y-40527520D01*
X105202060Y-40473979D01*
X105205869Y-40420489D01*
X105205498Y-40381570D01*
X105200298Y-40325342D01*
X105189107Y-40274610D01*
X105171374Y-40228051D01*
X105146548Y-40184347D01*
X105114081Y-40142176D01*
X105098609Y-40125208D01*
X105061762Y-40090210D01*
X105021337Y-40059195D01*
X104976585Y-40031829D01*
X104926756Y-40007775D01*
X104871101Y-39986698D01*
X104808870Y-39968263D01*
X104739313Y-39952132D01*
X104692208Y-39943147D01*
X104637662Y-39934694D01*
X104577769Y-39927552D01*
X104514757Y-39921859D01*
X104450858Y-39917752D01*
X104388302Y-39915370D01*
X104329321Y-39914850D01*
X104276142Y-39916331D01*
X104267105Y-39916837D01*
X104211183Y-39920934D01*
X104147594Y-39926840D01*
X104077179Y-39934453D01*
X104000780Y-39943672D01*
X103919237Y-39954392D01*
X103833391Y-39966513D01*
X103744085Y-39979932D01*
X103728640Y-39982331D01*
X103688799Y-39988606D01*
X103656594Y-39993690D01*
X103631024Y-39997573D01*
X103611085Y-40000249D01*
X103595777Y-40001708D01*
X103584095Y-40001942D01*
X103575038Y-40000942D01*
X103567603Y-39998701D01*
X103560788Y-39995210D01*
X103553590Y-39990460D01*
X103545006Y-39984442D01*
X103539559Y-39980740D01*
X103521493Y-39968256D01*
X103501506Y-39953683D01*
X103480885Y-39938048D01*
X103460917Y-39922381D01*
X103442890Y-39907708D01*
X103428091Y-39895058D01*
X103417809Y-39885458D01*
X103413343Y-39879972D01*
X103414015Y-39873970D01*
X103417404Y-39861361D01*
X103423039Y-39843651D01*
X103430447Y-39822351D01*
X103436161Y-39806844D01*
X103445383Y-39782146D01*
X103454136Y-39758313D01*
X103461670Y-39737416D01*
X103467237Y-39721524D01*
X103469098Y-39715947D01*
X103473747Y-39702416D01*
X103477699Y-39692450D01*
X103479565Y-39688963D01*
X103484844Y-39686876D01*
X103497502Y-39683412D01*
X103516350Y-39678829D01*
X103540204Y-39673388D01*
X103567876Y-39667346D01*
X103598179Y-39660963D01*
X103629925Y-39654498D01*
X103661929Y-39648210D01*
X103693003Y-39642357D01*
X103693760Y-39642219D01*
X103778734Y-39627619D01*
X103869949Y-39613753D01*
X103964933Y-39600944D01*
X104061216Y-39589515D01*
X104156328Y-39579788D01*
X104203885Y-39575562D01*
X104231836Y-39573710D01*
X104266679Y-39572200D01*
X104307160Y-39571024D01*
X104352031Y-39570180D01*
X104400038Y-39569662D01*
X104449933Y-39569464D01*
X104500465Y-39569584D01*
G37*
G36*
X102258143Y-39590411D02*
G01*
X102261248Y-39595241D01*
X102268300Y-39606803D01*
X102278830Y-39624309D01*
X102292368Y-39646972D01*
X102308446Y-39674004D01*
X102326592Y-39704619D01*
X102346339Y-39738028D01*
X102361598Y-39763907D01*
X102382702Y-39799655D01*
X102402964Y-39833836D01*
X102421849Y-39865553D01*
X102438817Y-39893910D01*
X102453334Y-39918011D01*
X102464860Y-39936961D01*
X102472859Y-39949861D01*
X102475894Y-39954550D01*
X102498031Y-39979677D01*
X102526127Y-39999121D01*
X102555115Y-40010874D01*
X102560858Y-40012418D01*
X102566830Y-40013589D01*
X102573839Y-40014340D01*
X102582697Y-40014625D01*
X102594213Y-40014397D01*
X102609196Y-40013608D01*
X102628458Y-40012213D01*
X102652807Y-40010164D01*
X102683052Y-40007415D01*
X102720005Y-40003918D01*
X102764474Y-39999627D01*
X102786283Y-39997509D01*
X102837292Y-39992545D01*
X102880303Y-39988359D01*
X102915999Y-39984901D01*
X102945062Y-39982120D01*
X102968176Y-39979969D01*
X102986023Y-39978397D01*
X102999287Y-39977354D01*
X103008649Y-39976791D01*
X103014793Y-39976658D01*
X103018402Y-39976906D01*
X103020158Y-39977484D01*
X103020744Y-39978343D01*
X103020843Y-39979435D01*
X103021030Y-39980440D01*
X103017759Y-39983671D01*
X103007626Y-39990912D01*
X102991285Y-40001749D01*
X102969388Y-40015768D01*
X102942589Y-40032556D01*
X102911539Y-40051700D01*
X102876895Y-40072785D01*
X102842701Y-40093367D01*
X102805985Y-40115433D01*
X102771025Y-40136591D01*
X102738642Y-40156333D01*
X102709663Y-40174148D01*
X102684912Y-40189528D01*
X102665214Y-40201962D01*
X102651394Y-40210942D01*
X102644411Y-40215849D01*
X102629241Y-40231821D01*
X102615188Y-40253255D01*
X102604033Y-40276918D01*
X102597556Y-40299576D01*
X102597255Y-40301513D01*
X102597136Y-40309596D01*
X102597840Y-40325422D01*
X102599293Y-40348057D01*
X102601423Y-40376572D01*
X102604159Y-40410034D01*
X102607428Y-40447510D01*
X102611155Y-40488069D01*
X102614463Y-40522547D01*
X102618501Y-40564170D01*
X102622262Y-40603519D01*
X102625662Y-40639664D01*
X102628615Y-40671674D01*
X102631038Y-40698619D01*
X102632843Y-40719568D01*
X102633948Y-40733589D01*
X102634272Y-40739459D01*
X102632738Y-40750364D01*
X102628445Y-40753030D01*
X102621858Y-40747320D01*
X102619420Y-40743825D01*
X102615954Y-40738146D01*
X102608527Y-40725751D01*
X102597611Y-40707434D01*
X102583677Y-40683989D01*
X102567196Y-40656211D01*
X102548641Y-40624893D01*
X102528481Y-40590829D01*
X102510026Y-40559614D01*
X102488525Y-40523455D01*
X102467849Y-40489114D01*
X102448522Y-40457429D01*
X102431065Y-40429239D01*
X102416001Y-40405380D01*
X102403853Y-40386691D01*
X102395144Y-40374008D01*
X102390928Y-40368673D01*
X102371672Y-40353048D01*
X102347605Y-40339621D01*
X102322632Y-40330465D01*
X102315989Y-40328944D01*
X102308464Y-40328738D01*
X102293056Y-40329361D01*
X102270557Y-40330753D01*
X102241759Y-40332854D01*
X102207453Y-40335602D01*
X102168431Y-40338938D01*
X102125485Y-40342801D01*
X102083988Y-40346692D01*
X102041411Y-40350689D01*
X102001480Y-40354307D01*
X101965031Y-40357480D01*
X101932903Y-40360139D01*
X101905935Y-40362220D01*
X101884963Y-40363654D01*
X101870827Y-40364374D01*
X101864363Y-40364316D01*
X101864065Y-40364206D01*
X101864129Y-40359138D01*
X101867165Y-40355181D01*
X101872079Y-40351819D01*
X101883722Y-40344455D01*
X101901334Y-40333552D01*
X101924157Y-40319572D01*
X101951428Y-40302982D01*
X101982388Y-40284244D01*
X102016279Y-40263823D01*
X102052207Y-40242259D01*
X102093925Y-40217118D01*
X102131911Y-40193923D01*
X102165567Y-40173053D01*
X102194297Y-40154888D01*
X102217504Y-40139807D01*
X102234591Y-40128188D01*
X102244962Y-40120411D01*
X102247062Y-40118495D01*
X102267782Y-40090996D01*
X102280649Y-40059853D01*
X102285404Y-40025712D01*
X102285426Y-40023329D01*
X102285013Y-40012678D01*
X102283817Y-39994387D01*
X102281923Y-39969493D01*
X102279419Y-39939031D01*
X102276391Y-39904039D01*
X102272928Y-39865552D01*
X102269116Y-39824609D01*
X102266020Y-39792295D01*
X102262130Y-39751369D01*
X102258649Y-39713100D01*
X102255646Y-39678363D01*
X102253186Y-39648032D01*
X102251340Y-39622981D01*
X102250174Y-39604085D01*
X102249760Y-39592217D01*
X102250072Y-39588278D01*
X102255289Y-39588014D01*
X102258143Y-39590411D01*
G37*
G36*
X101315575Y-40569019D02*
G01*
X101321957Y-40573758D01*
X101321027Y-40580486D01*
X101312560Y-40589440D01*
X101296333Y-40600855D01*
X101272122Y-40614967D01*
X101271763Y-40615164D01*
X101108097Y-40705622D01*
X100952131Y-40793158D01*
X100803449Y-40878037D01*
X100661635Y-40960522D01*
X100526271Y-41040880D01*
X100396941Y-41119376D01*
X100273229Y-41196274D01*
X100154719Y-41271840D01*
X100040993Y-41346338D01*
X99931636Y-41420033D01*
X99826230Y-41493190D01*
X99724360Y-41566075D01*
X99625609Y-41638951D01*
X99529561Y-41712086D01*
X99451687Y-41773099D01*
X99361252Y-41846462D01*
X99271215Y-41922598D01*
X99182383Y-42000725D01*
X99095566Y-42080061D01*
X99011571Y-42159825D01*
X98931205Y-42239236D01*
X98855275Y-42317511D01*
X98784592Y-42393870D01*
X98719960Y-42467530D01*
X98664824Y-42534394D01*
X98607478Y-42610584D01*
X98557190Y-42686117D01*
X98514189Y-42760564D01*
X98478697Y-42833497D01*
X98450941Y-42904484D01*
X98431145Y-42973097D01*
X98428272Y-42985973D01*
X98423153Y-43019680D01*
X98420617Y-43058263D01*
X98420628Y-43098689D01*
X98423149Y-43137920D01*
X98428147Y-43172924D01*
X98430591Y-43184092D01*
X98448701Y-43239967D01*
X98474810Y-43293574D01*
X98508303Y-43344007D01*
X98548563Y-43390357D01*
X98594977Y-43431718D01*
X98602447Y-43437448D01*
X98649141Y-43468644D01*
X98703445Y-43498026D01*
X98764374Y-43525268D01*
X98830948Y-43550044D01*
X98902181Y-43572028D01*
X98977092Y-43590893D01*
X99054698Y-43606313D01*
X99134016Y-43617961D01*
X99152785Y-43620115D01*
X99177723Y-43622371D01*
X99210085Y-43624592D01*
X99248577Y-43626734D01*
X99291901Y-43628750D01*
X99338763Y-43630594D01*
X99387867Y-43632218D01*
X99437917Y-43633578D01*
X99487619Y-43634627D01*
X99535675Y-43635319D01*
X99580791Y-43635607D01*
X99587376Y-43635613D01*
X99686245Y-43635616D01*
X99746518Y-43698920D01*
X99764947Y-43718382D01*
X99781218Y-43735768D01*
X99794404Y-43750070D01*
X99803578Y-43760280D01*
X99807808Y-43765389D01*
X99807973Y-43765689D01*
X99804253Y-43767346D01*
X99792706Y-43769423D01*
X99774213Y-43771849D01*
X99749654Y-43774552D01*
X99719908Y-43777462D01*
X99685857Y-43780509D01*
X99648379Y-43783620D01*
X99608355Y-43786726D01*
X99566665Y-43789755D01*
X99524188Y-43792636D01*
X99481806Y-43795299D01*
X99440398Y-43797673D01*
X99400843Y-43799686D01*
X99368511Y-43801093D01*
X99329847Y-43802380D01*
X99286654Y-43803403D01*
X99240250Y-43804163D01*
X99191954Y-43804661D01*
X99143086Y-43804897D01*
X99094963Y-43804873D01*
X99048904Y-43804588D01*
X99006229Y-43804044D01*
X98968256Y-43803242D01*
X98936304Y-43802183D01*
X98911692Y-43800867D01*
X98910803Y-43800804D01*
X98819005Y-43792300D01*
X98730439Y-43780390D01*
X98646163Y-43765285D01*
X98567235Y-43747198D01*
X98494712Y-43726339D01*
X98437220Y-43705935D01*
X98366332Y-43674454D01*
X98302972Y-43638583D01*
X98247111Y-43598293D01*
X98198724Y-43553551D01*
X98157784Y-43504327D01*
X98124262Y-43450587D01*
X98098135Y-43392300D01*
X98079374Y-43329436D01*
X98069020Y-43270970D01*
X98066587Y-43241374D01*
X98065714Y-43205972D01*
X98066311Y-43167520D01*
X98068289Y-43128776D01*
X98071556Y-43092496D01*
X98075869Y-43062274D01*
X98096008Y-42971282D01*
X98123426Y-42882048D01*
X98158347Y-42794126D01*
X98200993Y-42707071D01*
X98251587Y-42620438D01*
X98310351Y-42533783D01*
X98377507Y-42446659D01*
X98392771Y-42428175D01*
X98468833Y-42341361D01*
X98553196Y-42253050D01*
X98645600Y-42163421D01*
X98745789Y-42072655D01*
X98853504Y-41980931D01*
X98968489Y-41888428D01*
X99090484Y-41795328D01*
X99219232Y-41701809D01*
X99354478Y-41608051D01*
X99495961Y-41514234D01*
X99643425Y-41420538D01*
X99796611Y-41327142D01*
X99955263Y-41234227D01*
X100119122Y-41141971D01*
X100287931Y-41050555D01*
X100461432Y-40960159D01*
X100589417Y-40895655D01*
X100644553Y-40868440D01*
X100700966Y-40840951D01*
X100758088Y-40813443D01*
X100815354Y-40786170D01*
X100872197Y-40759387D01*
X100928051Y-40733350D01*
X100982350Y-40708311D01*
X101034528Y-40684526D01*
X101084019Y-40662251D01*
X101130256Y-40641739D01*
X101172673Y-40623245D01*
X101210704Y-40607023D01*
X101243782Y-40593330D01*
X101271343Y-40582419D01*
X101292818Y-40574544D01*
X101307643Y-40569961D01*
X101315251Y-40568924D01*
X101315575Y-40569019D01*
G37*
G36*
X105626573Y-44817202D02*
G01*
X105704961Y-44817251D01*
X105775368Y-44817337D01*
X105838162Y-44817462D01*
X105893713Y-44817631D01*
X105942391Y-44817848D01*
X105984565Y-44818114D01*
X106020604Y-44818435D01*
X106050878Y-44818813D01*
X106075756Y-44819251D01*
X106095607Y-44819752D01*
X106110799Y-44820322D01*
X106121704Y-44820962D01*
X106128691Y-44821676D01*
X106132127Y-44822468D01*
X106132420Y-44822636D01*
X106134178Y-44824464D01*
X106135624Y-44827638D01*
X106136786Y-44832919D01*
X106137685Y-44841068D01*
X106138345Y-44852846D01*
X106138790Y-44869015D01*
X106139043Y-44890336D01*
X106139128Y-44917569D01*
X106139068Y-44951476D01*
X106138887Y-44992817D01*
X106138704Y-45025999D01*
X106137560Y-45223911D01*
X106126660Y-45231989D01*
X106124815Y-45233160D01*
X106122306Y-45234214D01*
X106118680Y-45235158D01*
X106113487Y-45235999D01*
X106106277Y-45236747D01*
X106096600Y-45237406D01*
X106084006Y-45237986D01*
X106068045Y-45238492D01*
X106048267Y-45238933D01*
X106024219Y-45239315D01*
X105995454Y-45239647D01*
X105961520Y-45239934D01*
X105921967Y-45240184D01*
X105876346Y-45240406D01*
X105824206Y-45240606D01*
X105765096Y-45240791D01*
X105698566Y-45240969D01*
X105624166Y-45241147D01*
X105551135Y-45241310D01*
X105468253Y-45241487D01*
X105393624Y-45241648D01*
X105326786Y-45241811D01*
X105267272Y-45241993D01*
X105214618Y-45242211D01*
X105168357Y-45242483D01*
X105128025Y-45242828D01*
X105093157Y-45243263D01*
X105063288Y-45243805D01*
X105037952Y-45244474D01*
X105016684Y-45245284D01*
X104999020Y-45246256D01*
X104984492Y-45247406D01*
X104972638Y-45248753D01*
X104962991Y-45250314D01*
X104955087Y-45252106D01*
X104948459Y-45254148D01*
X104942644Y-45256457D01*
X104937175Y-45259051D01*
X104931588Y-45261948D01*
X104925440Y-45265153D01*
X104908180Y-45276813D01*
X104889568Y-45293959D01*
X104871849Y-45314135D01*
X104857264Y-45334882D01*
X104850774Y-45346963D01*
X104841129Y-45376957D01*
X104836917Y-45411040D01*
X104838058Y-45446546D01*
X104844473Y-45480808D01*
X104855680Y-45510373D01*
X104868807Y-45530081D01*
X104887342Y-45550022D01*
X104908459Y-45567553D01*
X104929333Y-45580030D01*
X104930881Y-45580720D01*
X104945818Y-45586530D01*
X104965024Y-45593139D01*
X104984331Y-45599111D01*
X104991033Y-45600994D01*
X104997550Y-45602603D01*
X105004581Y-45603958D01*
X105012823Y-45605075D01*
X105022972Y-45605973D01*
X105035727Y-45606670D01*
X105051785Y-45607183D01*
X105071843Y-45607531D01*
X105096598Y-45607732D01*
X105126748Y-45607801D01*
X105162991Y-45607759D01*
X105206023Y-45607622D01*
X105256543Y-45607409D01*
X105300844Y-45607204D01*
X105365085Y-45606990D01*
X105424025Y-45606967D01*
X105477175Y-45607130D01*
X105524046Y-45607476D01*
X105564148Y-45607999D01*
X105596992Y-45608693D01*
X105622089Y-45609556D01*
X105638747Y-45610562D01*
X105719162Y-45620555D01*
X105793153Y-45636130D01*
X105861130Y-45657454D01*
X105923500Y-45684693D01*
X105980674Y-45718011D01*
X106033063Y-45757575D01*
X106058499Y-45780625D01*
X106106251Y-45831928D01*
X106146362Y-45886800D01*
X106179159Y-45945844D01*
X106204972Y-46009663D01*
X106224133Y-46078858D01*
X106225666Y-46085956D01*
X106229491Y-46110805D01*
X106232136Y-46141945D01*
X106233602Y-46177104D01*
X106233894Y-46214011D01*
X106233013Y-46250398D01*
X106230962Y-46283991D01*
X106227745Y-46312519D01*
X106225365Y-46325758D01*
X106206463Y-46397956D01*
X106182190Y-46463850D01*
X106152055Y-46524363D01*
X106115566Y-46580416D01*
X106072231Y-46632933D01*
X106048834Y-46657177D01*
X106003249Y-46698896D01*
X105957919Y-46733263D01*
X105911043Y-46761400D01*
X105860814Y-46784428D01*
X105821458Y-46798507D01*
X105808384Y-46802715D01*
X105796363Y-46806481D01*
X105784861Y-46809835D01*
X105773343Y-46812800D01*
X105761276Y-46815406D01*
X105748126Y-46817677D01*
X105733358Y-46819642D01*
X105716439Y-46821327D01*
X105696835Y-46822759D01*
X105674012Y-46823965D01*
X105647437Y-46824972D01*
X105616573Y-46825805D01*
X105580890Y-46826494D01*
X105539851Y-46827063D01*
X105492925Y-46827541D01*
X105439575Y-46827953D01*
X105379268Y-46828327D01*
X105311471Y-46828689D01*
X105235650Y-46829067D01*
X105211053Y-46829188D01*
X105143697Y-46829535D01*
X105076582Y-46829908D01*
X105010492Y-46830300D01*
X104946208Y-46830706D01*
X104884516Y-46831121D01*
X104826196Y-46831539D01*
X104772032Y-46831953D01*
X104722809Y-46832359D01*
X104679308Y-46832749D01*
X104642314Y-46833119D01*
X104612608Y-46833463D01*
X104594107Y-46833724D01*
X104555323Y-46834291D01*
X104524297Y-46834600D01*
X104500069Y-46834624D01*
X104481681Y-46834333D01*
X104468173Y-46833695D01*
X104458588Y-46832682D01*
X104451965Y-46831264D01*
X104447345Y-46829413D01*
X104446912Y-46829178D01*
X104434878Y-46822477D01*
X104436012Y-46625617D01*
X104437147Y-46428755D01*
X104461126Y-46418881D01*
X104485107Y-46409005D01*
X105036651Y-46408726D01*
X105119731Y-46408687D01*
X105194563Y-46408645D01*
X105261622Y-46408580D01*
X105321378Y-46408474D01*
X105374307Y-46408306D01*
X105420880Y-46408059D01*
X105461571Y-46407712D01*
X105496852Y-46407247D01*
X105527196Y-46406644D01*
X105553077Y-46405885D01*
X105574966Y-46404949D01*
X105593339Y-46403818D01*
X105608666Y-46402472D01*
X105621421Y-46400892D01*
X105632077Y-46399060D01*
X105641107Y-46396954D01*
X105648983Y-46394557D01*
X105656179Y-46391851D01*
X105663168Y-46388813D01*
X105670423Y-46385426D01*
X105676141Y-46382730D01*
X105709780Y-46362521D01*
X105738335Y-46336304D01*
X105760955Y-46305302D01*
X105776788Y-46270738D01*
X105784983Y-46233835D01*
X105785678Y-46225483D01*
X105784173Y-46184408D01*
X105774928Y-46146820D01*
X105758254Y-46113277D01*
X105734461Y-46084341D01*
X105703860Y-46060573D01*
X105690145Y-46052824D01*
X105685871Y-46050523D01*
X105682213Y-46048504D01*
X105678610Y-46046739D01*
X105674500Y-46045196D01*
X105669322Y-46043848D01*
X105662516Y-46042664D01*
X105653519Y-46041617D01*
X105641770Y-46040676D01*
X105626709Y-46039813D01*
X105607773Y-46038997D01*
X105584402Y-46038201D01*
X105556034Y-46037395D01*
X105522109Y-46036548D01*
X105482064Y-46035633D01*
X105435339Y-46034620D01*
X105381371Y-46033479D01*
X105319601Y-46032182D01*
X105276453Y-46031272D01*
X105214030Y-46029933D01*
X105159604Y-46028713D01*
X105112456Y-46027568D01*
X105071863Y-46026457D01*
X105037105Y-46025339D01*
X105007462Y-46024171D01*
X104982211Y-46022911D01*
X104960632Y-46021517D01*
X104942005Y-46019949D01*
X104925607Y-46018162D01*
X104910720Y-46016116D01*
X104896621Y-46013770D01*
X104882589Y-46011080D01*
X104867904Y-46008005D01*
X104864871Y-46007350D01*
X104791174Y-45987521D01*
X104723386Y-45961348D01*
X104661623Y-45929005D01*
X104606004Y-45890668D01*
X104556644Y-45846511D01*
X104513662Y-45796708D01*
X104477174Y-45741433D01*
X104447298Y-45680863D01*
X104424149Y-45615171D01*
X104407846Y-45544531D01*
X104398506Y-45469120D01*
X104396245Y-45389111D01*
X104400277Y-45314230D01*
X104405996Y-45267112D01*
X104414476Y-45225655D01*
X104426460Y-45187031D01*
X104442695Y-45148418D01*
X104445758Y-45142009D01*
X104478028Y-45085359D01*
X104517528Y-45033059D01*
X104563735Y-44985472D01*
X104616125Y-44942958D01*
X104674174Y-44905881D01*
X104737357Y-44874603D01*
X104805151Y-44849485D01*
X104877031Y-44830890D01*
X104903013Y-44825998D01*
X104910589Y-44824742D01*
X104918151Y-44823613D01*
X104926175Y-44822601D01*
X104935136Y-44821702D01*
X104945507Y-44820907D01*
X104957763Y-44820212D01*
X104972377Y-44819609D01*
X104989825Y-44819092D01*
X105010581Y-44818654D01*
X105035118Y-44818289D01*
X105063910Y-44817990D01*
X105097434Y-44817750D01*
X105136162Y-44817563D01*
X105180568Y-44817423D01*
X105231127Y-44817322D01*
X105288313Y-44817255D01*
X105352602Y-44817214D01*
X105424465Y-44817193D01*
X105504379Y-44817187D01*
X105539835Y-44817187D01*
X105626573Y-44817202D01*
G37*
G36*
X97996777Y-44780689D02*
G01*
X98067566Y-44790218D01*
X98137740Y-44807326D01*
X98184674Y-44823325D01*
X98236244Y-44847053D01*
X98285953Y-44877668D01*
X98332621Y-44914051D01*
X98375066Y-44955085D01*
X98412106Y-44999651D01*
X98442560Y-45046633D01*
X98461357Y-45085132D01*
X98472638Y-45114469D01*
X98485379Y-45151680D01*
X98499368Y-45196082D01*
X98514391Y-45246992D01*
X98530234Y-45303727D01*
X98534145Y-45318172D01*
X98550058Y-45377230D01*
X98563940Y-45428605D01*
X98576002Y-45473041D01*
X98586454Y-45511285D01*
X98595504Y-45544080D01*
X98603363Y-45572171D01*
X98610242Y-45596304D01*
X98616349Y-45617221D01*
X98621896Y-45635669D01*
X98627090Y-45652392D01*
X98632144Y-45668134D01*
X98636497Y-45681338D01*
X98647652Y-45714134D01*
X98656994Y-45739744D01*
X98665104Y-45759364D01*
X98672564Y-45774192D01*
X98679957Y-45785427D01*
X98687864Y-45794265D01*
X98693972Y-45799631D01*
X98714333Y-45811168D01*
X98736814Y-45815686D01*
X98759071Y-45813014D01*
X98775158Y-45805572D01*
X98787866Y-45795180D01*
X98798667Y-45783097D01*
X98800777Y-45779958D01*
X98807413Y-45767079D01*
X98815169Y-45748381D01*
X98824135Y-45723565D01*
X98834404Y-45692324D01*
X98846064Y-45654359D01*
X98859207Y-45609366D01*
X98873923Y-45557044D01*
X98890303Y-45497089D01*
X98908439Y-45429199D01*
X98926042Y-45362191D01*
X98943345Y-45297591D01*
X98959552Y-45240813D01*
X98974957Y-45191068D01*
X98989852Y-45147570D01*
X99004526Y-45109530D01*
X99019273Y-45076160D01*
X99034384Y-45046674D01*
X99050150Y-45020283D01*
X99055828Y-45011704D01*
X99075928Y-44985345D01*
X99101265Y-44956996D01*
X99129496Y-44928977D01*
X99158278Y-44903608D01*
X99185266Y-44883208D01*
X99186442Y-44882416D01*
X99243501Y-44848520D01*
X99302644Y-44822014D01*
X99364918Y-44802573D01*
X99431366Y-44789868D01*
X99501588Y-44783636D01*
X99571339Y-44783961D01*
X99638631Y-44791020D01*
X99702919Y-44804480D01*
X99763654Y-44824007D01*
X99820291Y-44849268D01*
X99872281Y-44879930D01*
X99919076Y-44915660D01*
X99960130Y-44956124D01*
X99994896Y-45000989D01*
X100022825Y-45049921D01*
X100043371Y-45102589D01*
X100047169Y-45115849D01*
X100048142Y-45119745D01*
X100049035Y-45124078D01*
X100049850Y-45129226D01*
X100050591Y-45135559D01*
X100051262Y-45143453D01*
X100051867Y-45153284D01*
X100052408Y-45165424D01*
X100052890Y-45180248D01*
X100053316Y-45198132D01*
X100053688Y-45219448D01*
X100054012Y-45244571D01*
X100054289Y-45273877D01*
X100054524Y-45307738D01*
X100054720Y-45346530D01*
X100054882Y-45390626D01*
X100055011Y-45440401D01*
X100055111Y-45496231D01*
X100055187Y-45558487D01*
X100055241Y-45627546D01*
X100055277Y-45703781D01*
X100055299Y-45787567D01*
X100055309Y-45879279D01*
X100055313Y-45979290D01*
X100055313Y-45992216D01*
X100055313Y-46838062D01*
X99842168Y-46839194D01*
X99788711Y-46839412D01*
X99743549Y-46839445D01*
X99706259Y-46839288D01*
X99676417Y-46838931D01*
X99653599Y-46838369D01*
X99637381Y-46837594D01*
X99627343Y-46836598D01*
X99623077Y-46835390D01*
X99622324Y-46833659D01*
X99621634Y-46829534D01*
X99621007Y-46822665D01*
X99620438Y-46812701D01*
X99619925Y-46799291D01*
X99619465Y-46782083D01*
X99619057Y-46760728D01*
X99618695Y-46734873D01*
X99618379Y-46704167D01*
X99618106Y-46668261D01*
X99617873Y-46626802D01*
X99617677Y-46579441D01*
X99617516Y-46525825D01*
X99617387Y-46465603D01*
X99617287Y-46398426D01*
X99617215Y-46323942D01*
X99617166Y-46241799D01*
X99617138Y-46151647D01*
X99617129Y-46053134D01*
X99617129Y-46050555D01*
X99617129Y-45270655D01*
X99601949Y-45253852D01*
X99578319Y-45232936D01*
X99552059Y-45218656D01*
X99524515Y-45211113D01*
X99497032Y-45210403D01*
X99470957Y-45216624D01*
X99447634Y-45229872D01*
X99435052Y-45241766D01*
X99427356Y-45251251D01*
X99419923Y-45262126D01*
X99412524Y-45275022D01*
X99404926Y-45290575D01*
X99396903Y-45309417D01*
X99388222Y-45332183D01*
X99378653Y-45359506D01*
X99367968Y-45392021D01*
X99355935Y-45430360D01*
X99342324Y-45475158D01*
X99326906Y-45527049D01*
X99309451Y-45586665D01*
X99307836Y-45592211D01*
X99290483Y-45651165D01*
X99274843Y-45702728D01*
X99260529Y-45747972D01*
X99247156Y-45787971D01*
X99234338Y-45823796D01*
X99221689Y-45856521D01*
X99208825Y-45887218D01*
X99195358Y-45916960D01*
X99180904Y-45946819D01*
X99178814Y-45951001D01*
X99148083Y-46005593D01*
X99112893Y-46056252D01*
X99074119Y-46102063D01*
X99032636Y-46142112D01*
X98989320Y-46175485D01*
X98945045Y-46201267D01*
X98934610Y-46206119D01*
X98918515Y-46212498D01*
X98897598Y-46219776D01*
X98875492Y-46226713D01*
X98867393Y-46229043D01*
X98852400Y-46233063D01*
X98839236Y-46236034D01*
X98826154Y-46238114D01*
X98811404Y-46239462D01*
X98793236Y-46240234D01*
X98769902Y-46240591D01*
X98739652Y-46240690D01*
X98738582Y-46240690D01*
X98697516Y-46240213D01*
X98663214Y-46238479D01*
X98633764Y-46235109D01*
X98607256Y-46229725D01*
X98581776Y-46221946D01*
X98555414Y-46211394D01*
X98529301Y-46199187D01*
X98480080Y-46170976D01*
X98434523Y-46136223D01*
X98392268Y-46094530D01*
X98352957Y-46045500D01*
X98316228Y-45988734D01*
X98283174Y-45926815D01*
X98270554Y-45900454D01*
X98258891Y-45874783D01*
X98247852Y-45848850D01*
X98237104Y-45821699D01*
X98226316Y-45792380D01*
X98215155Y-45759938D01*
X98203288Y-45723421D01*
X98190383Y-45681876D01*
X98176108Y-45634350D01*
X98160130Y-45579889D01*
X98150114Y-45545312D01*
X98134115Y-45490164D01*
X98120143Y-45442729D01*
X98107938Y-45402310D01*
X98097241Y-45368203D01*
X98087791Y-45339708D01*
X98079331Y-45316126D01*
X98071600Y-45296754D01*
X98064340Y-45280893D01*
X98057291Y-45267841D01*
X98050194Y-45256900D01*
X98042789Y-45247366D01*
X98037707Y-45241613D01*
X98018905Y-45225050D01*
X97998028Y-45214858D01*
X97973105Y-45210331D01*
X97950123Y-45210252D01*
X97932038Y-45211624D01*
X97919081Y-45214296D01*
X97907662Y-45219414D01*
X97894265Y-45228072D01*
X97880104Y-45239126D01*
X97867588Y-45250999D01*
X97861125Y-45258799D01*
X97851315Y-45273349D01*
X97851315Y-46051564D01*
X97851302Y-46153105D01*
X97851262Y-46246224D01*
X97851193Y-46331218D01*
X97851094Y-46408387D01*
X97850961Y-46478028D01*
X97850794Y-46540439D01*
X97850589Y-46595918D01*
X97850346Y-46644763D01*
X97850061Y-46687273D01*
X97849734Y-46723744D01*
X97849362Y-46754476D01*
X97848943Y-46779765D01*
X97848475Y-46799911D01*
X97847956Y-46815211D01*
X97847385Y-46825964D01*
X97846759Y-46832467D01*
X97846083Y-46835011D01*
X97840450Y-46836376D01*
X97827161Y-46837555D01*
X97807247Y-46838549D01*
X97781743Y-46839360D01*
X97751680Y-46839989D01*
X97718092Y-46840438D01*
X97682011Y-46840710D01*
X97644470Y-46840805D01*
X97606502Y-46840726D01*
X97569140Y-46840475D01*
X97533416Y-46840054D01*
X97500364Y-46839463D01*
X97471016Y-46838704D01*
X97446406Y-46837782D01*
X97427564Y-46836695D01*
X97415527Y-46835447D01*
X97411408Y-46834252D01*
X97410769Y-46831118D01*
X97410187Y-46823159D01*
X97409664Y-46810126D01*
X97409197Y-46791767D01*
X97408785Y-46767833D01*
X97408427Y-46738074D01*
X97408122Y-46702237D01*
X97407869Y-46660074D01*
X97407667Y-46611334D01*
X97407514Y-46555766D01*
X97407409Y-46493120D01*
X97407352Y-46423145D01*
X97407341Y-46345591D01*
X97407375Y-46260208D01*
X97407453Y-46166744D01*
X97407574Y-46064950D01*
X97407658Y-46004756D01*
X97408880Y-45181249D01*
X97420896Y-45139829D01*
X97430988Y-45109536D01*
X97444042Y-45076957D01*
X97458776Y-45044910D01*
X97473912Y-45016209D01*
X97485871Y-44996932D01*
X97501042Y-44977288D01*
X97521206Y-44954617D01*
X97544278Y-44930992D01*
X97568176Y-44908482D01*
X97590814Y-44889157D01*
X97605294Y-44878288D01*
X97662458Y-44843987D01*
X97723955Y-44816795D01*
X97788961Y-44796791D01*
X97856649Y-44784053D01*
X97926196Y-44778660D01*
X97996777Y-44780689D01*
G37*
G36*
X104274604Y-43439911D02*
G01*
X104291794Y-43489511D01*
X104304760Y-43538122D01*
X104313782Y-43587646D01*
X104319141Y-43639987D01*
X104321117Y-43697051D01*
X104320355Y-43750419D01*
X104318257Y-43794704D01*
X104314765Y-43833334D01*
X104309415Y-43869322D01*
X104301739Y-43905683D01*
X104291274Y-43945433D01*
X104289046Y-43953223D01*
X104267215Y-44018763D01*
X104240122Y-44081798D01*
X104207244Y-44143135D01*
X104168057Y-44203581D01*
X104122039Y-44263942D01*
X104068667Y-44325023D01*
X104007418Y-44387632D01*
X104007247Y-44387800D01*
X103938871Y-44451288D01*
X103862722Y-44516299D01*
X103779496Y-44582296D01*
X103689893Y-44648744D01*
X103594612Y-44715106D01*
X103498856Y-44777974D01*
X103432572Y-44820271D01*
X103546816Y-44823254D01*
X103604329Y-44825035D01*
X103654377Y-44827257D01*
X103698209Y-44830064D01*
X103737075Y-44833603D01*
X103772224Y-44838022D01*
X103804906Y-44843464D01*
X103836371Y-44850077D01*
X103867869Y-44858008D01*
X103885111Y-44862826D01*
X103946788Y-44883704D01*
X104001322Y-44908897D01*
X104049338Y-44938760D01*
X104091464Y-44973651D01*
X104106766Y-44989053D01*
X104132323Y-45018896D01*
X104152668Y-45049181D01*
X104168718Y-45081846D01*
X104181391Y-45118828D01*
X104191602Y-45162064D01*
X104193595Y-45172529D01*
X104196021Y-45187152D01*
X104197921Y-45202372D01*
X104199351Y-45219469D01*
X104200371Y-45239723D01*
X104201040Y-45264415D01*
X104201415Y-45294826D01*
X104201555Y-45332235D01*
X104201560Y-45346930D01*
X104201356Y-45393948D01*
X104200709Y-45433739D01*
X104199509Y-45467794D01*
X104197649Y-45497599D01*
X104195022Y-45524642D01*
X104191518Y-45550412D01*
X104187031Y-45576398D01*
X104183707Y-45593272D01*
X104169674Y-45644091D01*
X104149293Y-45689489D01*
X104122210Y-45729911D01*
X104088074Y-45765799D01*
X104046530Y-45797596D01*
X103998744Y-45824987D01*
X103977300Y-45836527D01*
X103963921Y-45846181D01*
X103958404Y-45854848D01*
X103960555Y-45863431D01*
X103970172Y-45872829D01*
X103985883Y-45883237D01*
X104018658Y-45907511D01*
X104050176Y-45939592D01*
X104079767Y-45978587D01*
X104106764Y-46023604D01*
X104130498Y-46073749D01*
X104132838Y-46079436D01*
X104138194Y-46092905D01*
X104143209Y-46106251D01*
X104148022Y-46120075D01*
X104152772Y-46134974D01*
X104157596Y-46151550D01*
X104162632Y-46170400D01*
X104168017Y-46192126D01*
X104173891Y-46217326D01*
X104180391Y-46246600D01*
X104187654Y-46280547D01*
X104195819Y-46319767D01*
X104205024Y-46364860D01*
X104215405Y-46416423D01*
X104227103Y-46475058D01*
X104240254Y-46541365D01*
X104247196Y-46576460D01*
X104258039Y-46631680D01*
X104267142Y-46678897D01*
X104274592Y-46718635D01*
X104280478Y-46751419D01*
X104284885Y-46777774D01*
X104287902Y-46798222D01*
X104289615Y-46813288D01*
X104290111Y-46823495D01*
X104289477Y-46829370D01*
X104289318Y-46829839D01*
X104287585Y-46831235D01*
X104283104Y-46832407D01*
X104275211Y-46833372D01*
X104263241Y-46834149D01*
X104246528Y-46834756D01*
X104224408Y-46835212D01*
X104196216Y-46835533D01*
X104161285Y-46835740D01*
X104118952Y-46835851D01*
X104069620Y-46835883D01*
X103852242Y-46835883D01*
X103843064Y-46826073D01*
X103840261Y-46821915D01*
X103837299Y-46814863D01*
X103833991Y-46804104D01*
X103830143Y-46788826D01*
X103825567Y-46768215D01*
X103820072Y-46741459D01*
X103813467Y-46707745D01*
X103805560Y-46666259D01*
X103805482Y-46665841D01*
X103798131Y-46626364D01*
X103790757Y-46585757D01*
X103783668Y-46545788D01*
X103777173Y-46508227D01*
X103771579Y-46474845D01*
X103767195Y-46447408D01*
X103765621Y-46436939D01*
X103755037Y-46370902D01*
X103743609Y-46312918D01*
X103731050Y-46262338D01*
X103717071Y-46218512D01*
X103701385Y-46180792D01*
X103683703Y-46148527D01*
X103663736Y-46121069D01*
X103641198Y-46097768D01*
X103615800Y-46077976D01*
X103602636Y-46069606D01*
X103571564Y-46051076D01*
X103333714Y-46051076D01*
X103274528Y-46050991D01*
X103223194Y-46050738D01*
X103179847Y-46050319D01*
X103144621Y-46049736D01*
X103117654Y-46048993D01*
X103099080Y-46048090D01*
X103089034Y-46047032D01*
X103087429Y-46046563D01*
X103085426Y-46045206D01*
X103083769Y-46042960D01*
X103082423Y-46039059D01*
X103081357Y-46032730D01*
X103080538Y-46023205D01*
X103079934Y-46009716D01*
X103079512Y-45991492D01*
X103079239Y-45967764D01*
X103079084Y-45937763D01*
X103079014Y-45900719D01*
X103078996Y-45855864D01*
X103078995Y-45846874D01*
X103079058Y-45797110D01*
X103079255Y-45755516D01*
X103079602Y-45721540D01*
X103080112Y-45694630D01*
X103080800Y-45674236D01*
X103081680Y-45659807D01*
X103082767Y-45650793D01*
X103084075Y-45646642D01*
X103084228Y-45646465D01*
X103087540Y-45645325D01*
X103095355Y-45644347D01*
X103108155Y-45643522D01*
X103126427Y-45642840D01*
X103150655Y-45642291D01*
X103181324Y-45641868D01*
X103218919Y-45641560D01*
X103263923Y-45641358D01*
X103316824Y-45641254D01*
X103358826Y-45641233D01*
X103628192Y-45641233D01*
X103672096Y-45623099D01*
X103693797Y-45613670D01*
X103709502Y-45605460D01*
X103721518Y-45597028D01*
X103732154Y-45586932D01*
X103735034Y-45583795D01*
X103744855Y-45572299D01*
X103750883Y-45562744D01*
X103754399Y-45552007D01*
X103756686Y-45536963D01*
X103757558Y-45528898D01*
X103758778Y-45512496D01*
X103759807Y-45489864D01*
X103760563Y-45463491D01*
X103760966Y-45435865D01*
X103761010Y-45423231D01*
X103760869Y-45395543D01*
X103760386Y-45375056D01*
X103759420Y-45360253D01*
X103757829Y-45349618D01*
X103755472Y-45341634D01*
X103752883Y-45336031D01*
X103736386Y-45310821D01*
X103715499Y-45287598D01*
X103694780Y-45270768D01*
X103674825Y-45257550D01*
X103279681Y-45257550D01*
X103208116Y-45257577D01*
X103144862Y-45257662D01*
X103089508Y-45257809D01*
X103041645Y-45258025D01*
X103000862Y-45258316D01*
X102966751Y-45258684D01*
X102938902Y-45259138D01*
X102916905Y-45259681D01*
X102900350Y-45260319D01*
X102888827Y-45261058D01*
X102881927Y-45261902D01*
X102879306Y-45262782D01*
X102878624Y-45265369D01*
X102877999Y-45271911D01*
X102877429Y-45282703D01*
X102876912Y-45298045D01*
X102876445Y-45318231D01*
X102876027Y-45343561D01*
X102875656Y-45374332D01*
X102875329Y-45410842D01*
X102875045Y-45453386D01*
X102874801Y-45502265D01*
X102874597Y-45557774D01*
X102874429Y-45620211D01*
X102874297Y-45689874D01*
X102874196Y-45767060D01*
X102874127Y-45852067D01*
X102874087Y-45945192D01*
X102874074Y-46046731D01*
X102874074Y-46049234D01*
X102874066Y-46148047D01*
X102874038Y-46238491D01*
X102873990Y-46320916D01*
X102873918Y-46395673D01*
X102873819Y-46463113D01*
X102873691Y-46523587D01*
X102873531Y-46577445D01*
X102873336Y-46625037D01*
X102873105Y-46666715D01*
X102872833Y-46702830D01*
X102872519Y-46733731D01*
X102872160Y-46759771D01*
X102871753Y-46781299D01*
X102871296Y-46798665D01*
X102870785Y-46812222D01*
X102870219Y-46822319D01*
X102869594Y-46829308D01*
X102868909Y-46833538D01*
X102868159Y-46835362D01*
X102868126Y-46835390D01*
X102863777Y-46836611D01*
X102853668Y-46837604D01*
X102837376Y-46838377D01*
X102814478Y-46838937D01*
X102784551Y-46839290D01*
X102747171Y-46839445D01*
X102701914Y-46839410D01*
X102649035Y-46839194D01*
X102435890Y-46838062D01*
X102434788Y-46104487D01*
X102434652Y-46025218D01*
X102434488Y-45948337D01*
X102434299Y-45874294D01*
X102434086Y-45803538D01*
X102433852Y-45736521D01*
X102433600Y-45673691D01*
X102433332Y-45615499D01*
X102433050Y-45562396D01*
X102432757Y-45514830D01*
X102432454Y-45473252D01*
X102432146Y-45438112D01*
X102431833Y-45409861D01*
X102431518Y-45388946D01*
X102431205Y-45375820D01*
X102430894Y-45370933D01*
X102430872Y-45370911D01*
X102426305Y-45372835D01*
X102415253Y-45378192D01*
X102398953Y-45386363D01*
X102378640Y-45396728D01*
X102355548Y-45408667D01*
X102353494Y-45409735D01*
X102334057Y-45419775D01*
X102307994Y-45433113D01*
X102276481Y-45449154D01*
X102240694Y-45467302D01*
X102201810Y-45486964D01*
X102161003Y-45507541D01*
X102119451Y-45528438D01*
X102085622Y-45545407D01*
X102039913Y-45568375D01*
X102001529Y-45587818D01*
X101969949Y-45604022D01*
X101944651Y-45617269D01*
X101925116Y-45627842D01*
X101910822Y-45636025D01*
X101901249Y-45642099D01*
X101895875Y-45646348D01*
X101894179Y-45649054D01*
X101894218Y-45649374D01*
X101895834Y-45654310D01*
X101900095Y-45667004D01*
X101906831Y-45686963D01*
X101915876Y-45713692D01*
X101927062Y-45746694D01*
X101940219Y-45785476D01*
X101955181Y-45829543D01*
X101971778Y-45878398D01*
X101989843Y-45931549D01*
X102009209Y-45988499D01*
X102029707Y-46048754D01*
X102051167Y-46111819D01*
X102073425Y-46177198D01*
X102077581Y-46189405D01*
X102100322Y-46256260D01*
X102122506Y-46321612D01*
X102143946Y-46384900D01*
X102164452Y-46445563D01*
X102183836Y-46503040D01*
X102201912Y-46556773D01*
X102218491Y-46606199D01*
X102233384Y-46650760D01*
X102246405Y-46689893D01*
X102257365Y-46723041D01*
X102266077Y-46749641D01*
X102272351Y-46769134D01*
X102276002Y-46780960D01*
X102276094Y-46781279D01*
X102293147Y-46840243D01*
X102067047Y-46840243D01*
X101840947Y-46840243D01*
X101833749Y-46829258D01*
X101830864Y-46822779D01*
X101825678Y-46808943D01*
X101818522Y-46788707D01*
X101809717Y-46763031D01*
X101799594Y-46732872D01*
X101788480Y-46699187D01*
X101776702Y-46662935D01*
X101773051Y-46651587D01*
X101764312Y-46624558D01*
X101753710Y-46592097D01*
X101741468Y-46554869D01*
X101727811Y-46513540D01*
X101712963Y-46468774D01*
X101697148Y-46421237D01*
X101680588Y-46371595D01*
X101663509Y-46320511D01*
X101646134Y-46268653D01*
X101628688Y-46216684D01*
X101611393Y-46165271D01*
X101594475Y-46115078D01*
X101578156Y-46066771D01*
X101562661Y-46021014D01*
X101548213Y-45978473D01*
X101535037Y-45939814D01*
X101523358Y-45905701D01*
X101513397Y-45876800D01*
X101505379Y-45853776D01*
X101499529Y-45837294D01*
X101496070Y-45828020D01*
X101495232Y-45826189D01*
X101490699Y-45827103D01*
X101479387Y-45831000D01*
X101462522Y-45837409D01*
X101441335Y-45845860D01*
X101417053Y-45855884D01*
X101410669Y-45858569D01*
X101339184Y-45888355D01*
X101261720Y-45919910D01*
X101180593Y-45952310D01*
X101098120Y-45984630D01*
X101016614Y-46015945D01*
X101014860Y-46016612D01*
X100985247Y-46027941D01*
X100958312Y-46038393D01*
X100935133Y-46047539D01*
X100916785Y-46054949D01*
X100904346Y-46060194D01*
X100898890Y-46062844D01*
X100898773Y-46062945D01*
X100896853Y-46067617D01*
X100892464Y-46079795D01*
X100885870Y-46098701D01*
X100877336Y-46123561D01*
X100867126Y-46153598D01*
X100855504Y-46188037D01*
X100842734Y-46226101D01*
X100829083Y-46267016D01*
X100822599Y-46286518D01*
X100806175Y-46335901D01*
X100788518Y-46388851D01*
X100770218Y-46443607D01*
X100751865Y-46498409D01*
X100734049Y-46551496D01*
X100717360Y-46601106D01*
X100702389Y-46645478D01*
X100692911Y-46673471D01*
X100636333Y-46840243D01*
X100412467Y-46840243D01*
X100362548Y-46840233D01*
X100320634Y-46840186D01*
X100286006Y-46840075D01*
X100257949Y-46839873D01*
X100235748Y-46839554D01*
X100218685Y-46839093D01*
X100206044Y-46838462D01*
X100197109Y-46837635D01*
X100191164Y-46836585D01*
X100187491Y-46835286D01*
X100185376Y-46833712D01*
X100184101Y-46831835D01*
X100184087Y-46831810D01*
X100181743Y-46826689D01*
X100180529Y-46821120D01*
X100180705Y-46813965D01*
X100182531Y-46804089D01*
X100186267Y-46790356D01*
X100192171Y-46771629D01*
X100200505Y-46746773D01*
X100209586Y-46720290D01*
X100214936Y-46704748D01*
X100222906Y-46681588D01*
X100233280Y-46651442D01*
X100245841Y-46614937D01*
X100260373Y-46572703D01*
X100276659Y-46525368D01*
X100294483Y-46473562D01*
X100313627Y-46417914D01*
X100333876Y-46359053D01*
X100355014Y-46297609D01*
X100376823Y-46234210D01*
X100399088Y-46169485D01*
X100409824Y-46138277D01*
X100432016Y-46073796D01*
X100453731Y-46010776D01*
X100471789Y-45958426D01*
X100930571Y-45958426D01*
X100930588Y-45963371D01*
X100931725Y-45963875D01*
X100936066Y-45961966D01*
X100947533Y-45956453D01*
X100965468Y-45947665D01*
X100989214Y-45935930D01*
X101018112Y-45921574D01*
X101051503Y-45904924D01*
X101088732Y-45886307D01*
X101129138Y-45866051D01*
X101172064Y-45844483D01*
X101187190Y-45836872D01*
X101230980Y-45814805D01*
X101272571Y-45793801D01*
X101311291Y-45774199D01*
X101346468Y-45756345D01*
X101377429Y-45740580D01*
X101403502Y-45727246D01*
X101424015Y-45716688D01*
X101438295Y-45709246D01*
X101445669Y-45705263D01*
X101446462Y-45704775D01*
X101447750Y-45702965D01*
X101448199Y-45699514D01*
X101447618Y-45693776D01*
X101445820Y-45685110D01*
X101442611Y-45672872D01*
X101437804Y-45656419D01*
X101431209Y-45635110D01*
X101422635Y-45608299D01*
X101411893Y-45575344D01*
X101398792Y-45535603D01*
X101383143Y-45488432D01*
X101378067Y-45473166D01*
X101363758Y-45430354D01*
X101350096Y-45389844D01*
X101337352Y-45352426D01*
X101325805Y-45318895D01*
X101315729Y-45290040D01*
X101307400Y-45266654D01*
X101301093Y-45249530D01*
X101297084Y-45239459D01*
X101295955Y-45237208D01*
X101279927Y-45221784D01*
X101259457Y-45212221D01*
X101236714Y-45208696D01*
X101213870Y-45211387D01*
X101193097Y-45220471D01*
X101183587Y-45228016D01*
X101180905Y-45231004D01*
X101178030Y-45235203D01*
X101174770Y-45241140D01*
X101170938Y-45249346D01*
X101166343Y-45260347D01*
X101160795Y-45274672D01*
X101154104Y-45292850D01*
X101146082Y-45315409D01*
X101136538Y-45342878D01*
X101125283Y-45375785D01*
X101112127Y-45414658D01*
X101096881Y-45460026D01*
X101079355Y-45512417D01*
X101059359Y-45572359D01*
X101051054Y-45597286D01*
X101033196Y-45650891D01*
X101016109Y-45702170D01*
X100999996Y-45750511D01*
X100985062Y-45795307D01*
X100971508Y-45835947D01*
X100959539Y-45871822D01*
X100949359Y-45902321D01*
X100941168Y-45926836D01*
X100935172Y-45944758D01*
X100931575Y-45955476D01*
X100930571Y-45958426D01*
X100471789Y-45958426D01*
X100474762Y-45949806D01*
X100494907Y-45891472D01*
X100513963Y-45836360D01*
X100531726Y-45785059D01*
X100547992Y-45738156D01*
X100562557Y-45696236D01*
X100575220Y-45659888D01*
X100585774Y-45629698D01*
X100594019Y-45606255D01*
X100599749Y-45590143D01*
X100601780Y-45584552D01*
X100608616Y-45565436D01*
X100617532Y-45539596D01*
X100627993Y-45508628D01*
X100639465Y-45474128D01*
X100651417Y-45437692D01*
X100663315Y-45400917D01*
X100667712Y-45387182D01*
X100686118Y-45330062D01*
X100702537Y-45280379D01*
X100717321Y-45237170D01*
X100730828Y-45199474D01*
X100743409Y-45166325D01*
X100755421Y-45136762D01*
X100767215Y-45109823D01*
X100778764Y-45085329D01*
X100813972Y-45020769D01*
X100852743Y-44964123D01*
X100895203Y-44915288D01*
X100941480Y-44874164D01*
X100991697Y-44840650D01*
X101045982Y-44814645D01*
X101104459Y-44796048D01*
X101150517Y-44786994D01*
X101172724Y-44784672D01*
X101201059Y-44783177D01*
X101232970Y-44782509D01*
X101265903Y-44782669D01*
X101297306Y-44783656D01*
X101324626Y-44785473D01*
X101337937Y-44786953D01*
X101398214Y-44798293D01*
X101452517Y-44815303D01*
X101501415Y-44838404D01*
X101545480Y-44868016D01*
X101585283Y-44904559D01*
X101621393Y-44948454D01*
X101654382Y-45000121D01*
X101671909Y-45033016D01*
X101684196Y-45059392D01*
X101698737Y-45093933D01*
X101715443Y-45136406D01*
X101734228Y-45186576D01*
X101755004Y-45244210D01*
X101777683Y-45309073D01*
X101799531Y-45373091D01*
X101810172Y-45404544D01*
X101819909Y-45433231D01*
X101828394Y-45458139D01*
X101835282Y-45478251D01*
X101840224Y-45492555D01*
X101842876Y-45500035D01*
X101843223Y-45500897D01*
X101847748Y-45499984D01*
X101859130Y-45495082D01*
X101876678Y-45486568D01*
X101899701Y-45474826D01*
X101927509Y-45460233D01*
X101959414Y-45443170D01*
X101994723Y-45424018D01*
X102032747Y-45403155D01*
X102072796Y-45380962D01*
X102114181Y-45357820D01*
X102156209Y-45334108D01*
X102198193Y-45310207D01*
X102239440Y-45286495D01*
X102279263Y-45263354D01*
X102316970Y-45241164D01*
X102342149Y-45226151D01*
X102431530Y-45172529D01*
X102432671Y-45001270D01*
X102433812Y-44830012D01*
X102444945Y-44825779D01*
X102451631Y-44824903D01*
X102466537Y-44824111D01*
X102489160Y-44823411D01*
X102519001Y-44822811D01*
X102555559Y-44822317D01*
X102598333Y-44821939D01*
X102646823Y-44821684D01*
X102700528Y-44821558D01*
X102724339Y-44821546D01*
X102992601Y-44821546D01*
X103106649Y-44744588D01*
X103173018Y-44699434D01*
X103232999Y-44657809D01*
X103287748Y-44618872D01*
X103338421Y-44581781D01*
X103386176Y-44545691D01*
X103432167Y-44509761D01*
X103464859Y-44483500D01*
X103534716Y-44424637D01*
X103600618Y-44364858D01*
X103662009Y-44304784D01*
X103718335Y-44245035D01*
X103769043Y-44186230D01*
X103813577Y-44128992D01*
X103851384Y-44073939D01*
X103881909Y-44021692D01*
X103887619Y-44010580D01*
X103909867Y-43959427D01*
X103926757Y-43906327D01*
X103937724Y-43853489D01*
X103942204Y-43803127D01*
X103942282Y-43796017D01*
X103942282Y-43761181D01*
X103999533Y-43701669D01*
X104059199Y-43638220D01*
X104113519Y-43577347D01*
X104164433Y-43516841D01*
X104193045Y-43481200D01*
X104209258Y-43460698D01*
X104224193Y-43441877D01*
X104236765Y-43426101D01*
X104245888Y-43414733D01*
X104249951Y-43409755D01*
X104258957Y-43398985D01*
X104274604Y-43439911D01*
G37*
D13*
%TO.C,U1*%
X65120000Y-53480000D02*
X66500000Y-53480000D01*
X65120000Y-54860000D02*
X65120000Y-53480000D01*
X65120000Y-56130000D02*
X65120000Y-104500000D01*
X65120000Y-56130000D02*
X67880000Y-56130000D01*
X65120000Y-104500000D02*
X67880000Y-104500000D01*
X67880000Y-56130000D02*
X67880000Y-104500000D01*
X90520000Y-53480000D02*
X91900000Y-53480000D01*
X90520000Y-54860000D02*
X90520000Y-53480000D01*
X90520000Y-56130000D02*
X90520000Y-104500000D01*
X90520000Y-56130000D02*
X93280000Y-56130000D01*
X90520000Y-104500000D02*
X93280000Y-104500000D01*
X93280000Y-56130000D02*
X93280000Y-104500000D01*
D10*
X64700000Y-37360000D02*
X93700000Y-37360000D01*
X93700000Y-104860000D01*
X64700000Y-104860000D01*
X64700000Y-37360000D01*
D13*
%TO.C,L2*%
X125960000Y-51850000D02*
G75*
G02*
X123051648Y-55780413I-4110000J0D01*
G01*
X112233194Y-55372958D02*
G75*
G02*
X110240000Y-51850000I2116805J3522957D01*
G01*
X125960000Y-37540000D02*
X125960000Y-51850000D01*
X116810000Y-55960000D02*
X120550000Y-55960000D01*
X110240000Y-37540000D02*
X125960000Y-37540000D01*
X110240000Y-37540000D02*
X110240000Y-51850000D01*
%TO.C,Q5*%
X77094351Y-76699677D02*
X77094351Y-75179677D01*
X77144351Y-76699677D02*
X77094351Y-76699677D01*
X79044351Y-76699677D02*
X78264351Y-76699677D01*
X80214351Y-76699677D02*
X80164351Y-76699677D01*
X77094351Y-75179677D02*
X78094351Y-75179677D01*
X79214351Y-75179677D02*
X80214351Y-75179677D01*
X80214351Y-75179677D02*
X80214351Y-76699677D01*
X78604351Y-77479677D02*
X78274351Y-77239677D01*
X78604351Y-76999677D01*
X78604351Y-77479677D01*
G36*
X78604351Y-77479677D02*
G01*
X78274351Y-77239677D01*
X78604351Y-76999677D01*
X78604351Y-77479677D01*
G37*
%TO.C,R3*%
X78574351Y-91749677D02*
X72034351Y-91749677D01*
X72034351Y-89009677D01*
X78574351Y-89009677D01*
X78574351Y-91749677D01*
X71264351Y-90379677D02*
X72034351Y-90379677D01*
X79344351Y-90379677D02*
X78574351Y-90379677D01*
%TO.C,R4*%
X71264351Y-87259677D02*
X72034351Y-87259677D01*
X79344351Y-87259677D02*
X78574351Y-87259677D01*
X72034351Y-85889677D02*
X78574351Y-85889677D01*
X78574351Y-88629677D01*
X72034351Y-88629677D01*
X72034351Y-85889677D01*
%TO.C,R2*%
X72044351Y-82659677D02*
X78584351Y-82659677D01*
X78584351Y-85399677D01*
X72044351Y-85399677D01*
X72044351Y-82659677D01*
X79354351Y-84029677D02*
X78584351Y-84029677D01*
X71274351Y-84029677D02*
X72044351Y-84029677D01*
%TO.C,R1*%
X78574351Y-82179677D02*
X72034351Y-82179677D01*
X72034351Y-79439677D01*
X78574351Y-79439677D01*
X78574351Y-82179677D01*
X71264351Y-80809677D02*
X72034351Y-80809677D01*
X79344351Y-80809677D02*
X78574351Y-80809677D01*
%TO.C,Q3*%
X71664351Y-76739677D02*
X71664351Y-75219677D01*
X71714351Y-76739677D02*
X71664351Y-76739677D01*
X73614351Y-76739677D02*
X72834351Y-76739677D01*
X74784351Y-76739677D02*
X74734351Y-76739677D01*
X71664351Y-75219677D02*
X72664351Y-75219677D01*
X73784351Y-75219677D02*
X74784351Y-75219677D01*
X74784351Y-75219677D02*
X74784351Y-76739677D01*
X73174351Y-77519677D02*
X72844351Y-77279677D01*
X73174351Y-77039677D01*
X73174351Y-77519677D01*
G36*
X73174351Y-77519677D02*
G01*
X72844351Y-77279677D01*
X73174351Y-77039677D01*
X73174351Y-77519677D01*
G37*
%TO.C,R6*%
X129500000Y-53960000D02*
X129500000Y-54730000D01*
X129500000Y-62040000D02*
X129500000Y-61270000D01*
X130870000Y-54730000D02*
X128130000Y-54730000D01*
X128130000Y-61270000D01*
X130870000Y-61270000D01*
X130870000Y-54730000D01*
%TO.C,R5*%
X96500000Y-79210000D02*
X96500000Y-78440000D01*
X96500000Y-71130000D02*
X96500000Y-71900000D01*
X95130000Y-78440000D02*
X97870000Y-78440000D01*
X97870000Y-71900000D01*
X95130000Y-71900000D01*
X95130000Y-78440000D01*
%TO.C,D4*%
X119560000Y-90350000D02*
X119560000Y-89150000D01*
X117600000Y-90350000D02*
X119560000Y-90350000D01*
X117600000Y-89150000D02*
X119560000Y-89150000D01*
%TO.C,D3*%
X132900000Y-91060000D02*
X134100000Y-91060000D01*
X132900000Y-89100000D02*
X132900000Y-91060000D01*
X134100000Y-89100000D02*
X134100000Y-91060000D01*
%TO.C,K1*%
X111700000Y-57990000D02*
X111700000Y-87390000D01*
X111700000Y-87390000D02*
X124800000Y-87390000D01*
X114380000Y-81030000D02*
X114380000Y-82300000D01*
X115650000Y-79760000D02*
X115650000Y-82300000D01*
X115650000Y-81030000D02*
X114380000Y-81030000D01*
X115650000Y-82300000D02*
X120730000Y-82300000D01*
D10*
X119460000Y-82300000D02*
X118190000Y-79760000D01*
D13*
X120730000Y-79760000D02*
X115650000Y-79760000D01*
X120730000Y-81030000D02*
X120730000Y-79760000D01*
X120730000Y-82300000D02*
X120730000Y-81030000D01*
X122000000Y-81030000D02*
X120730000Y-81030000D01*
X122000000Y-82300000D02*
X122000000Y-81030000D01*
X123500000Y-87590000D02*
X125000000Y-87590000D01*
X124800000Y-57990000D02*
X111700000Y-57990000D01*
X124800000Y-87390000D02*
X124800000Y-57990000D01*
X125000000Y-87590000D02*
X125000000Y-86090000D01*
%TO.C,D2*%
X118430000Y-94240000D02*
X128650000Y-94240000D01*
X118430000Y-95620000D02*
X128650000Y-95620000D01*
X118430000Y-98860000D02*
X118430000Y-94240000D01*
X121690000Y-94240000D02*
X121690000Y-95620000D01*
X125390000Y-94240000D02*
X125390000Y-95620000D01*
X128650000Y-94240000D02*
X128650000Y-98860000D01*
X128650000Y-98860000D02*
X118430000Y-98860000D01*
%TO.C,Q1*%
X128140000Y-66930000D02*
X132760000Y-66930000D01*
X128140000Y-77150000D02*
X128140000Y-66930000D01*
X131380000Y-66930000D02*
X131380000Y-77150000D01*
X132760000Y-66930000D02*
X132760000Y-77150000D01*
X132760000Y-70190000D02*
X131380000Y-70190000D01*
X132760000Y-73890000D02*
X131380000Y-73890000D01*
X132760000Y-77150000D02*
X128140000Y-77150000D01*
%TO.C,Q2*%
X102690000Y-66890000D02*
X107310000Y-66890000D01*
X102690000Y-77110000D02*
X102690000Y-66890000D01*
X105930000Y-66890000D02*
X105930000Y-77110000D01*
X107310000Y-66890000D02*
X107310000Y-77110000D01*
X107310000Y-70150000D02*
X105930000Y-70150000D01*
X107310000Y-73850000D02*
X105930000Y-73850000D01*
X107310000Y-77110000D02*
X102690000Y-77110000D01*
%TO.C,L1*%
X134740000Y-37540000D02*
X134740000Y-51850000D01*
X134740000Y-37540000D02*
X150460000Y-37540000D01*
X141310000Y-55960000D02*
X145050000Y-55960000D01*
X150460000Y-37540000D02*
X150460000Y-51850000D01*
X136733194Y-55372958D02*
G75*
G02*
X134740000Y-51850000I2116805J3522957D01*
G01*
X150460000Y-51850000D02*
G75*
G02*
X147551648Y-55780413I-4110000J0D01*
G01*
%TO.C,L3*%
X94890000Y-104810000D02*
X94890000Y-90500000D01*
X104040000Y-86390000D02*
X100300000Y-86390000D01*
X110610000Y-104810000D02*
X94890000Y-104810000D01*
X110610000Y-104810000D02*
X110610000Y-90500000D01*
X94890000Y-90500000D02*
G75*
G02*
X97798352Y-86569587I4110000J0D01*
G01*
X108616806Y-86977042D02*
G75*
G02*
X110610000Y-90500000I-2116805J-3522957D01*
G01*
%TO.C,K3*%
X135950000Y-57990000D02*
X135950000Y-87390000D01*
X135950000Y-87390000D02*
X149050000Y-87390000D01*
X138630000Y-81030000D02*
X138630000Y-82300000D01*
X139900000Y-79760000D02*
X139900000Y-82300000D01*
X139900000Y-81030000D02*
X138630000Y-81030000D01*
X139900000Y-82300000D02*
X144980000Y-82300000D01*
D10*
X143710000Y-82300000D02*
X142440000Y-79760000D01*
D13*
X144980000Y-79760000D02*
X139900000Y-79760000D01*
X144980000Y-81030000D02*
X144980000Y-79760000D01*
X144980000Y-82300000D02*
X144980000Y-81030000D01*
X146250000Y-81030000D02*
X144980000Y-81030000D01*
X146250000Y-82300000D02*
X146250000Y-81030000D01*
X147750000Y-87590000D02*
X149250000Y-87590000D01*
X149050000Y-57990000D02*
X135950000Y-57990000D01*
X149050000Y-87390000D02*
X149050000Y-57990000D01*
X149250000Y-87590000D02*
X149250000Y-86090000D01*
%TO.C,D1*%
X135390000Y-94190000D02*
X145610000Y-94190000D01*
X135390000Y-95570000D02*
X145610000Y-95570000D01*
X135390000Y-98810000D02*
X135390000Y-94190000D01*
X138650000Y-94190000D02*
X138650000Y-95570000D01*
X142350000Y-94190000D02*
X142350000Y-95570000D01*
X145610000Y-94190000D02*
X145610000Y-98810000D01*
X145610000Y-98810000D02*
X135390000Y-98810000D01*
%TD*%
M02*
